{
.appVersion = "3343";
DisplayStrings = (
"Alan/space Play\012Mashallah\012Rosa/space Marina\012HElmanKJGFZ\012QUARTZ\012KALIEFRIEND",
"Ranpifert\012Ranpifert/space/space bpdqecg/space",
"Anna/space Keroulle\012Laure/space Boutmy\012Tiphaine/space Gillet\012Raphael/space Ronot",
hwxkznnnnnznnn,
"e`´/circumflex",
H147HEFPRBLTA5679,
Hplf,
"nnnnsnnnnknnn\012umhoirnznecavyxgzrjtf\012ABCDEFGHIJKLMNOPQR\012sDCG\012CSSs\012TUVWXYZ",
Ragbdunonnnonnzsqwxcvbrain,
"tfgieragskoasg/space \012\012agnostic/space giga/space stagnation\012anostic/space ia/space stanation\012rnfairmatifv!?23",
"UM/M.ss05 hat\012\012Mashed/space Eggs/space Whipped\012/M.ss05 ashed/space/E.ss06/g.ss03/g.ss03 s/space/space/W.ss05 hipped\012\012MASHED/space E/G.alt/G.alt S\012/M.ss05 ASH/E.ss06 D/space/E.ss06 GGS\012\012HELICOPTER/space \012WAFFLES/space MEURINGUE\012\012H/E.ss06 LICOPT/E.ss06 R/space \012/W.ss05 AFFL/E.ss06 S/space/M.ss05/E.ss06 URINGU/E.ss06 \012\012Quadrilatère\012/space"
);
customParameters = (
{
name = Axes;
value = (
{
Name = Weight;
Tag = wght;
}
);
}
);
date = "2021-08-11 14:50:01 +0000";
familyName = "Antique Extended";
featurePrefixes = (
{
automatic = 1;
code = "languagesystem DFLT dflt;\012\012languagesystem latn dflt;\012languagesystem latn NLD;\012";
name = Languagesystems;
}
);
features = (
{
automatic = 1;
code = "feature locl;\012feature ss01;\012feature ss02;\012feature ss03;\012feature ss04;\012feature ss05;\012";
name = aalt;
},
{
automatic = 1;
code = "lookup ccmp_DFLT_1 {\012	@CombiningTopAccents = [acutecomb circumflexcomb dieresiscomb dotaccentcomb gravecomb ringcomb tildecomb];\012	lookupflag UseMarkFilteringSet @CombiningTopAccents;\012	sub i' @CombiningTopAccents by idotless;\012	sub j' @CombiningTopAccents by jdotless;\012} ccmp_DFLT_1;\012";
name = ccmp;
},
{
automatic = 1;
code = "script latn;\012language NLD;\012lookup locl_latn_0 {\012	sub iacute j' by jacute;\012	sub Iacute J' by Jacute;\012} locl_latn_0;\012";
name = locl;
},
{
automatic = 1;

glyphs = (
{
glyphname = A;
lastChange = "2025-06-17 12:16:12 +0000";
layers = (
{
anchors = (
{
name = bottom;
position = "{327, 0}";
},
{
name = ogonek;
position = "{589, 10}";
},
{
name = top;
position = "{327, 740}";
}
);
layerId = "D8D2F0D2-8948-448B-99CD-378CDFD0E0AE";
paths = (
{
closed = 1;
nodes = (
"295 700 LINE",
"28 0 LINE",
"95 0 LINE",
"356 700 LINE"
);
},
{
closed = 1;
nodes = (
"560 0 LINE",
"626 0 LINE",
"361 700 LINE",
"300 700 LINE"
);
},
{
closed = 1;
nodes = (
"156 231 LINE",
"499 231 LINE",
"499 287 LINE",
"156 287 LINE"
);
}
);
width = 654;
},
{
anchors = (
{
name = bottom;
position = "{398, 0}";
},
{
name = ogonek;
position = "{716, 10}";
},
{
name = top;
position = "{398, 700}";
}
);
layerId = "83B83716-1CD1-47ED-B715-8773FED73F88";
paths = (
{
closed = 1;
nodes = (
"268 700 LINE",
"10 0 LINE",
"263 0 LINE",
"479 700 LINE"
);
},
{
closed = 1;
nodes = (
"530 0 LINE",
"786 0 LINE",
"528 700 LINE",
"324 700 LINE"
);
},
{
closed = 1;
nodes = (
"202 104 LINE",
"604 104 LINE",
"604 294 LINE",
"202 294 LINE"
);
}
);
width = 796;
}
);
rightMetricsKey = "=|";
unicode = 0041;
},
{
glyphname = B;
lastChange = "2025-06-11 15:35:47 +0000";
layers = (
{
layerId = "D8D2F0D2-8948-448B-99CD-378CDFD0E0AE";
paths = (
{
closed = 1;
nodes = (
"392 0 LINE SMOOTH",
"567 0 OFFCURVE",
"664 73 OFFCURVE",
"664 197 CURVE SMOOTH",
"664 320 OFFCURVE",
"570 367 OFFCURVE",
"420 367 CURVE SMOOTH",
"173 367 LINE",
"173 325 LINE",
"392 325 LINE SMOOTH",
"526 325 OFFCURVE",
"596 287 OFFCURVE",
"596 196 CURVE SMOOTH",
"596 105 OFFCURVE",
"526 57 OFFCURVE",
"392 57 CURVE SMOOTH",
"173 57 LINE",
"173 0 LINE"
);
},
{
closed = 1;
nodes = (
"177 0 LINE",
"177 700 LINE",
"114 700 LINE",
"114 0 LINE"
);
},
{
closed = 1;
nodes = (
"392 341 LINE SMOOTH",
"534 341 OFFCURVE",
"634 395 OFFCURVE",
"634 519 CURVE SMOOTH",
"634 641 OFFCURVE",
"537 700 OFFCURVE",
"363 700 CURVE SMOOTH",
"144 700 LINE",
"144 643 LINE",
"363 643 LINE SMOOTH",
"497 643 OFFCURVE",
"568 608 OFFCURVE",
"568 518 CURVE SMOOTH",
"568 427 OFFCURVE",
"497 382 OFFCURVE",
"363 382 CURVE SMOOTH",
"144 382 LINE",
"144 341 LINE"
);
}
);
width = 729;
},
{
layerId = "83B83716-1CD1-47ED-B715-8773FED73F88";
paths = (
{
closed = 1;
nodes = (
"366 0 LINE SMOOTH",
"550 0 OFFCURVE",
"674 51 OFFCURVE",
"674 200 CURVE SMOOTH",
"674 362 OFFCURVE",
"508 377 OFFCURVE",
"366 377 CURVE SMOOTH",
"228 377 LINE",
"228 260 LINE",
"363 260 LINE SMOOTH",
"403 260 OFFCURVE",
"426 255 OFFCURVE",
"426 224 CURVE SMOOTH",
"426 192 OFFCURVE",
"400 190 OFFCURVE",
"363 190 CURVE SMOOTH",
"228 190 LINE",
"228 0 LINE"
);
},
{
closed = 1;
nodes = (
"266 0 LINE",
"266 700 LINE",
"30 700 LINE",
"30 0 LINE"
);
},
{
closed = 1;
nodes = (
"342 325 LINE SMOOTH",
"476 325 OFFCURVE",
"648 325 OFFCURVE",
"648 502 CURVE SMOOTH",
"648 646 OFFCURVE",
"534 700 OFFCURVE",
"342 700 CURVE SMOOTH",
"168 700 LINE",
"168 510 LINE",
"346 510 LINE SMOOTH",
"385 510 OFFCURVE",
"408 505 OFFCURVE",
"408 475 CURVE SMOOTH",
"408 444 OFFCURVE",
"382 440 OFFCURVE",
"346 440 CURVE SMOOTH",
"168 440 LINE",
"168 325 LINE"
);
}
);
width = 692;
}
);
leftMetricsKey = "=H";
unicode = 0042;
},
{
glyphname = C;
lastChange = "2025-06-17 11:42:35 +0000";
layers = (
{
anchors = (
{
name = bottom;
position = "{413, 0}";
},
{
name = top;
position = "{343, 700}";
}
);
layerId = "D8D2F0D2-8948-448B-99CD-378CDFD0E0AE";
paths = (
{
closed = 1;
nodes = (
"487 -12 OFFCURVE",
"569 14 OFFCURVE",
"616 45 CURVE",
"616 103 LINE",
"542 66 OFFCURVE",
"476 44 OFFCURVE",
"399 44 CURVE SMOOTH",
"217 44 OFFCURVE",
"122 160 OFFCURVE",
"124 342 CURVE SMOOTH",
"126 525 OFFCURVE",
"218 656 OFFCURVE",
"389 656 CURVE SMOOTH",
"535 656 OFFCURVE",
"561 557 OFFCURVE",
"602 557 CURVE SMOOTH",
"614 557 OFFCURVE",
"622 565 OFFCURVE",
"622 584 CURVE SMOOTH",
"622 654 OFFCURVE",
"519 712 OFFCURVE",
"391 712 CURVE SMOOTH",
"182 712 OFFCURVE",
"56 557 OFFCURVE",
"56 340 CURVE SMOOTH",
"56 128 OFFCURVE",
"177 -12 OFFCURVE",
"394 -12 CURVE SMOOTH"
);
}
);
width = 668;
},
{
anchors = (
{
name = bottom;
position = "{322, 0}";
},
{
name = top;
position = "{322, 700}";
}
);
layerId = "83B83716-1CD1-47ED-B715-8773FED73F88";
paths = (
{
closed = 1;
nodes = (
"479 -12 OFFCURVE",
"556 13 OFFCURVE",
"618 44 CURVE",
"618 240 LINE",
"547 216 OFFCURVE",
"481 202 OFFCURVE",
"424 202 CURVE SMOOTH",
"287 202 OFFCURVE",
"252 285 OFFCURVE",
"252 359 CURVE SMOOTH",
"252 437 OFFCURVE",
"292 498 OFFCURVE",
"361 498 CURVE SMOOTH",
"435 498 OFFCURVE",
"454 427 OFFCURVE",
"544 427 CURVE SMOOTH",
"601 427 OFFCURVE",
"654 456 OFFCURVE",
"654 534 CURVE SMOOTH",
"654 659 OFFCURVE",
"508 712 OFFCURVE",
"374 712 CURVE SMOOTH",
"136 711 OFFCURVE",
"6 545 OFFCURVE",
"6 340 CURVE SMOOTH",
"6 131 OFFCURVE",
"140 -12 OFFCURVE",
"378 -12 CURVE SMOOTH"
);
}
);
width = 654;
},
{
associatedMasterId = "83B83716-1CD1-47ED-B715-8773FED73F88";
layerId = "C47B9186-437F-4E61-AFF1-364C4813D818";
name = "6 juin 25 à 17:48";
paths = (
{
closed = 1;
nodes = (
"489 231 OFFCURVE",
"456 205 OFFCURVE",
"411 205 CURVE SMOOTH",
"337 205 OFFCURVE",
"302 275 OFFCURVE",
"302 365 CURVE SMOOTH",
"302 457 OFFCURVE",
"340 535 OFFCURVE",
"412 535 CURVE SMOOTH",
"460 535 OFFCURVE",
"487 504 OFFCURVE",
"499 464 CURVE",
"724 562 LINE",
"672 699 OFFCURVE",
"551 750 OFFCURVE",
"418 750 CURVE SMOOTH",
"186 750 OFFCURVE",
"56 585 OFFCURVE",
"56 360 CURVE SMOOTH",
"56 131 OFFCURVE",
"190 -10 OFFCURVE",
"412 -10 CURVE SMOOTH",
"564 -10 OFFCURVE",
"681 55 OFFCURVE",
"736 188 CURVE",
"511 284 LINE"
);
}
);
width = 770;
}
);
leftMetricsKey = "=O";
unicode = 0043;
},
{
glyphname = D;
lastChange = "2025-06-17 08:29:38 +0000";
layers = (
{
layerId = "D8D2F0D2-8948-448B-99CD-378CDFD0E0AE";
paths = (
{
closed = 1;
nodes = (
"114 700 LINE",
"114 0 LINE",
"178 0 LINE",
"178 700 LINE"
);
},
{
closed = 1;
nodes = (
"299 0 LINE SMOOTH",
"572 0 OFFCURVE",
"697 147 OFFCURVE",
"697 363 CURVE SMOOTH",
"697 576 OFFCURVE",
"572 700 OFFCURVE",
"299 700 CURVE SMOOTH",
"154 700 LINE",
"154 643 LINE",
"297 643 LINE SMOOTH",
"530 643 OFFCURVE",
"629 548 OFFCURVE",
"629 359 CURVE SMOOTH",
"629 176 OFFCURVE",
"534 57 OFFCURVE",
"297 57 CURVE SMOOTH",
"154 57 LINE",
"154 0 LINE"
);
}
);
width = 753;
},
{
layerId = "83B83716-1CD1-47ED-B715-8773FED73F88";
paths = (
{
closed = 1;
nodes = (
"30 700 LINE",
"30 0 LINE",
"266 0 LINE",
"266 700 LINE"
);
},
{
closed = 1;
nodes = (
"306 0 LINE SMOOTH",
"583 0 OFFCURVE",
"702 154 OFFCURVE",
"702 361 CURVE SMOOTH",
"702 568 OFFCURVE",
"583 700 OFFCURVE",
"306 700 CURVE SMOOTH",
"142 700 LINE",
"142 510 LINE",
"302 510 LINE SMOOTH",
"412 510 OFFCURVE",
"456 456 OFFCURVE",
"456 353 CURVE SMOOTH",
"456 254 OFFCURVE",
"415 190 OFFCURVE",
"302 190 CURVE SMOOTH",
"142 190 LINE",
"142 0 LINE"
);
}
);
width = 708;
}
);
leftMetricsKey = "=H";
rightMetricsKey = "=O";
unicode = 0044;
},
{
glyphname = E;
lastChange = "2025-06-17 11:36:43 +0000";
layers = (
{
anchors = (
{
name = bottom;
position = "{320, 0}";
},
{
name = ogonek;
position = "{576, 10}";
},
{
name = top;
position = "{370, 700}";
},
{
name = topleft;
position = "{20, 700}";
}
);
layerId = "D8D2F0D2-8948-448B-99CD-378CDFD0E0AE";
paths = (
{
closed = 1;
nodes = (
"178 0 LINE",
"178 700 LINE",
"114 700 LINE",
"114 0 LINE"
);
},
{
closed = 1;
nodes = (
"592 0 LINE",
"592 56 LINE",
"144 56 LINE",
"144 0 LINE"
);
},
{
closed = 1;
nodes = (
"552 354 LINE",
"552 410 LINE",
"144 410 LINE",
"144 354 LINE"
);
},
{
closed = 1;
nodes = (
"592 644 LINE",
"592 700 LINE",
"144 700 LINE",
"144 644 LINE"
);
}
);
width = 640;
},
{
anchors = (
{
name = bottom;
position = "{285, 0}";
},
{
name = ogonek;
position = "{513, 10}";
},
{
name = top;
position = "{295, 700}";
},
{
name = topleft;
position = "{20, 700}";
}
);
layerId = "83B83716-1CD1-47ED-B715-8773FED73F88";
paths = (
{
closed = 1;
nodes = (
"266 0 LINE",
"266 700 LINE",
"30 700 LINE",
"30 0 LINE"
);
},
{
closed = 1;
nodes = (
"554 0 LINE",
"554 190 LINE",
"102 190 LINE",
"102 0 LINE"
);
},
{
closed = 1;
nodes = (
"484 260 LINE",
"484 450 LINE",
"102 450 LINE",
"102 260 LINE"
);
},
{
closed = 1;
nodes = (
"554 510 LINE",
"554 700 LINE",
"102 700 LINE",
"102 510 LINE"
);
}
);
width = 570;
},
{
anchors = (
{
name = bottom;
position = "{285, 0}";
},
{
name = ogonek;
position = "{513, 10}";
},
{
name = top;
position = "{295, 700}";
},
{
name = topleft;
position = "{20, 700}";
}
);
associatedMasterId = "83B83716-1CD1-47ED-B715-8773FED73F88";
layerId = "42106470-92DC-4361-844B-DF32979D6851";
name = "17 juin 25 à 13:36";
paths = (
{
closed = 1;
nodes = (
"266 0 LINE",
"266 700 LINE",
"30 700 LINE",
"30 0 LINE"
);
},
{
closed = 1;
nodes = (
"554 0 LINE",
"554 190 LINE",
"102 190 LINE",
"102 0 LINE"
);
},
{
closed = 1;
nodes = (
"484 260 LINE",
"484 450 LINE",
"102 450 LINE",
"102 260 LINE"
);
},
{
closed = 1;
nodes = (
"554 510 LINE",
"554 700 LINE",
"102 700 LINE",
"102 510 LINE"
);
}
);
width = 570;
}
);
leftMetricsKey = "=H";
unicode = 0045;
},
{
glyphname = F;
lastChange = "2025-06-11 14:02:48 +0000";
layers = (
{
layerId = "D8D2F0D2-8948-448B-99CD-378CDFD0E0AE";
paths = (
{
closed = 1;
nodes = (
"178 0 LINE",
"178 700 LINE",
"114 700 LINE",
"114 0 LINE"
);
},
{
closed = 1;
nodes = (
"562 344 LINE",
"562 400 LINE",
"144 400 LINE",
"144 344 LINE"
);
},
{
closed = 1;
nodes = (
"602 644 LINE",
"602 700 LINE",
"144 700 LINE",
"144 644 LINE"
);
}
);
width = 640;
},
{
layerId = "83B83716-1CD1-47ED-B715-8773FED73F88";
paths = (
{
closed = 1;
nodes = (
"266 0 LINE",
"266 700 LINE",
"30 700 LINE",
"30 0 LINE"
);
},
{
closed = 1;
nodes = (
"484 260 LINE",
"484 450 LINE",
"102 450 LINE",
"102 260 LINE"
);
},
{
closed = 1;
nodes = (
"554 510 LINE",
"554 700 LINE",
"102 700 LINE",
"102 510 LINE"
);
}
);
width = 560;
}
);
leftMetricsKey = "=H";
rightMetricsKey = "=E-10";
unicode = 0046;
},
{
glyphname = G;
lastChange = "2025-06-17 11:53:10 +0000";
layers = (
{
layerId = "D8D2F0D2-8948-448B-99CD-378CDFD0E0AE";
paths = (
{
closed = 1;
nodes = (
"346 378 LINE",
"346 322 LINE",
"670 322 LINE",
"620 358 LINE",
"632 166 OFFCURVE",
"564 45 OFFCURVE",
"392 45 CURVE SMOOTH",
"227 45 OFFCURVE",
"131 158 OFFCURVE",
"131 342 CURVE SMOOTH",
"131 525 OFFCURVE",
"228 656 OFFCURVE",
"398 656 CURVE SMOOTH",
"549 656 OFFCURVE",
"568 557 OFFCURVE",
"609 557 CURVE SMOOTH",
"621 557 OFFCURVE",
"629 565 OFFCURVE",
"629 584 CURVE SMOOTH",
"629 654 OFFCURVE",
"526 712 OFFCURVE",
"401 712 CURVE SMOOTH",
"192 712 OFFCURVE",
"63 553 OFFCURVE",
"63 336 CURVE SMOOTH",
"63 124 OFFCURVE",
"187 -11 OFFCURVE",
"391 -11 CURVE SMOOTH",
"608 -11 OFFCURVE",
"702 147 OFFCURVE",
"683 378 CURVE"
);
}
);
width = 736;
},
{
associatedMasterId = "83B83716-1CD1-47ED-B715-8773FED73F88";
layerId = "B696A3A8-550F-475E-A5C7-9B6820D3AA3C";
name = "29 mai 25 à 18:23";
paths = (
{
closed = 1;
nodes = (
"565 355 LINE",
"593 234 OFFCURVE",
"527 160 OFFCURVE",
"417 160 CURVE SMOOTH",
"308 160 OFFCURVE",
"250 249 OFFCURVE",
"250 363 CURVE SMOOTH",
"250 481 OFFCURVE",
"312 576 OFFCURVE",
"475 576 CURVE SMOOTH",
"553 576 OFFCURVE",
"627 554 OFFCURVE",
"685 521 CURVE",
"702 699 OFFCURVE",
"590 750 OFFCURVE",
"446 750 CURVE SMOOTH",
"186 750 OFFCURVE",
"56 585 OFFCURVE",
"56 360 CURVE SMOOTH",
"56 131 OFFCURVE",
"190 -10 OFFCURVE",
"418 -10 CURVE SMOOTH",
"655 -10 OFFCURVE",
"786 145 OFFCURVE",
"753 456 CURVE"
);
},
{
closed = 1;
nodes = (
"713 288 LINE",
"753 456 LINE",
"371 456 LINE",
"371 288 LINE"
);
}
);
width = 812;
},
{
layerId = "83B83716-1CD1-47ED-B715-8773FED73F88";
name = Black;
paths = (
{
closed = 1;
nodes = (
"353 416 LINE",
"353 246 LINE",
"526 246 LINE",
"486 289 LINE",
"483 225 OFFCURVE",
"450 194 OFFCURVE",
"382 194 CURVE SMOOTH",
"281 194 OFFCURVE",
"252 265 OFFCURVE",
"252 340 CURVE SMOOTH",
"252 417 OFFCURVE",
"284 496 OFFCURVE",
"378 496 CURVE SMOOTH",
"468 496 OFFCURVE",
"486 425 OFFCURVE",
"576 425 CURVE SMOOTH",
"633 425 OFFCURVE",
"686 454 OFFCURVE",
"686 532 CURVE SMOOTH",
"686 657 OFFCURVE",
"540 712 OFFCURVE",
"395 712 CURVE SMOOTH",
"136 712 OFFCURVE",
"6 545 OFFCURVE",
"6 340 CURVE SMOOTH",
"6 131 OFFCURVE",
"137 -12 OFFCURVE",
"387 -12 CURVE SMOOTH",
"624 -12 OFFCURVE",
"748 115 OFFCURVE",
"725 416 CURVE"
);
}
);
width = 744;
},
{
associatedMasterId = "83B83716-1CD1-47ED-B715-8773FED73F88";
layerId = "D455E6E9-84C2-44D3-B511-37E43D636A60";
name = "6 juin 25 à 17:53";
paths = (
{
closed = 1;
nodes = (
"499 350 LINE",
"505 264 OFFCURVE",
"465 205 OFFCURVE",
"387 205 CURVE SMOOTH",
"301 205 OFFCURVE",
"260 275 OFFCURVE",
"260 364 CURVE SMOOTH",
"260 457 OFFCURVE",
"304 535 OFFCURVE",
"384 535 CURVE SMOOTH",
"436 535 OFFCURVE",
"465 504 OFFCURVE",
"478 464 CURVE",
"696 562 LINE",
"644 699 OFFCURVE",
"517 750 OFFCURVE",
"385 750 CURVE SMOOTH",
"146 750 OFFCURVE",
"16 585 OFFCURVE",
"16 360 CURVE SMOOTH",
"16 131 OFFCURVE",
"150 -10 OFFCURVE",
"383 -10 CURVE SMOOTH",
"627 -10 OFFCURVE",
"748 145 OFFCURVE",
"735 446 CURVE"
);
},
{
closed = 1;
nodes = (
"685 266 LINE",
"735 446 LINE",
"343 446 LINE",
"343 266 LINE"
);
}
);
width = 784;
}
);
leftMetricsKey = "=O";
unicode = 0047;
},
{
glyphname = H;
lastChange = "2025-06-13 22:10:03 +0000";
layers = (
{
layerId = "D8D2F0D2-8948-448B-99CD-378CDFD0E0AE";
paths = (
{
closed = 1;
nodes = (
"644 0 LINE",
"644 700 LINE",
"580 700 LINE",
"580 0 LINE"
);
},
{
closed = 1;
nodes = (
"178 0 LINE",
"178 700 LINE",
"114 700 LINE",
"114 0 LINE"
);
},
{
closed = 1;
nodes = (
"612 352 LINE",
"612 410 LINE",
"144 410 LINE",
"144 352 LINE"
);
}
);
width = 758;
},
{
layerId = "83B83716-1CD1-47ED-B715-8773FED73F88";
paths = (
{
closed = 1;
nodes = (
"688 0 LINE",
"688 700 LINE",
"452 700 LINE",
"452 0 LINE"
);
},
{
closed = 1;
nodes = (
"266 0 LINE",
"266 700 LINE",
"30 700 LINE",
"30 0 LINE"
);
},
{
closed = 1;
nodes = (
"584 260 LINE",
"584 450 LINE",
"102 450 LINE",
"102 260 LINE"
);
}
);
width = 718;
}
);
rightMetricsKey = "=|";
unicode = 0048;
},
{
glyphname = I;
lastChange = "2025-06-11 13:52:11 +0000";
layers = (
{
anchors = (
{
name = bottom;
position = "{146, 0}";
},
{
name = ogonek;
position = "{262, 10}";
},
{
name = top;
position = "{146, 700}";
},
{
name = topleft;
position = "{20, 700}";
}
);
layerId = "D8D2F0D2-8948-448B-99CD-378CDFD0E0AE";
paths = (
{
closed = 1;
nodes = (
"177 0 LINE",
"177 700 LINE",
"114 700 LINE",
"114 0 LINE"
);
}
);
width = 291;
},
{
anchors = (
{
name = bottom;
position = "{148, 0}";
},
{
name = ogonek;
position = "{266, 10}";
},
{
name = top;
position = "{148, 700}";
},
{
name = topleft;
position = "{20, 700}";
}
);
layerId = "83B83716-1CD1-47ED-B715-8773FED73F88";
paths = (
{
closed = 1;
nodes = (
"266 0 LINE",
"266 700 LINE",
"30 700 LINE",
"30 0 LINE"
);
}
);
width = 296;
}
);
leftMetricsKey = "=H";
rightMetricsKey = "=H";
unicode = 0049;
},
{
glyphname = J;
lastChange = "2025-06-16 15:30:45 +0000";
layers = (
{
anchors = (
{
name = bottom;
position = "{198, 0}";
},
{
name = top;
position = "{198, 700}";
}
);
layerId = "D8D2F0D2-8948-448B-99CD-378CDFD0E0AE";
paths = (
{
closed = 1;
nodes = (
"252 -12 OFFCURVE",
"292 56 OFFCURVE",
"292 191 CURVE SMOOTH",
"292 700 LINE",
"230 700 LINE",
"230 199 LINE SMOOTH",
"230 60 OFFCURVE",
"179 45 OFFCURVE",
"138 45 CURVE SMOOTH",
"97 45 OFFCURVE",
"70 60 OFFCURVE",
"49 60 CURVE SMOOTH",
"32 60 OFFCURVE",
"23 50 OFFCURVE",
"23 36 CURVE SMOOTH",
"23 4 OFFCURVE",
"70 -12 OFFCURVE",
"131 -12 CURVE SMOOTH"
);
},
{
closed = 1;
nodes = (
"292 642 LINE",
"292 700 LINE",
"43 700 LINE",
"43 642 LINE"
);
}
);
width = 396;
},
{
anchors = (
{
name = bottom;
position = "{244, 0}";
},
{
name = top;
position = "{244, 700}";
}
);
layerId = "83B83716-1CD1-47ED-B715-8773FED73F88";
paths = (
{
closed = 1;
nodes = (
"318 -12 OFFCURVE",
"438 41 OFFCURVE",
"438 250 CURVE SMOOTH",
"438 700 LINE",
"202 700 LINE",
"202 273 LINE SMOOTH",
"202 208 OFFCURVE",
"189 188 OFFCURVE",
"155 188 CURVE SMOOTH",
"134 188 OFFCURVE",
"115 196 OFFCURVE",
"93 196 CURVE SMOOTH",
"47 196 OFFCURVE",
"10 162 OFFCURVE",
"10 106 CURVE SMOOTH",
"10 24 OFFCURVE",
"91 -12 OFFCURVE",
"192 -12 CURVE SMOOTH"
);
},
{
closed = 1;
nodes = (
"438 520 LINE",
"438 700 LINE",
"40 700 LINE",
"40 520 LINE"
);
}
);
width = 458;
},
{
associatedMasterId = "D8D2F0D2-8948-448B-99CD-378CDFD0E0AE";
layerId = "7F9D26FB-564C-4C0E-BC72-198310F9C550";
name = "Sep 11 21, 16:01";
paths = (
{
closed = 1;
nodes = (
"243 22 OFFCURVE",
"308 85 OFFCURVE",
"308 240 CURVE SMOOTH",
"308 780 LINE",
"242 780 LINE",
"242 238 LINE SMOOTH",
"242 118 OFFCURVE",
"197 76 OFFCURVE",
"46 51 CURVE",
"51 -10 LINE"
);
}
);
width = 418;
}
);
rightMetricsKey = "=U";
unicode = 004A;
},
{
glyphname = K;
lastChange = "2025-06-13 10:20:51 +0000";
layers = (
{
layerId = "D8D2F0D2-8948-448B-99CD-378CDFD0E0AE";
paths = (
{
closed = 1;
nodes = (
"114 700 LINE",
"114 0 LINE",
"178 0 LINE",
"178 700 LINE"
);
},
{
closed = 1;
nodes = (
"587 700 LINE",
"507 700 LINE",
"127 297 LINE",
"160 249 LINE"
);
},
{
closed = 1;
nodes = (
"628 0 LINE",
"296 430 LINE",
"249 386 LINE",
"547 0 LINE"
);
}
);
width = 636;
},
{
layerId = "83B83716-1CD1-47ED-B715-8773FED73F88";
paths = (
{
closed = 1;
nodes = (
"30 700 LINE",
"30 0 LINE",
"266 0 LINE",
"266 700 LINE"
);
},
{
closed = 1;
nodes = (
"734 700 LINE",
"455 700 LINE",
"97 253 LINE",
"214 106 LINE"
);
},
{
closed = 1;
nodes = (
"734 0 LINE",
"424 518 LINE",
"267 310 LINE",
"454 0 LINE"
);
}
);
width = 744;
},
{
associatedMasterId = "83B83716-1CD1-47ED-B715-8773FED73F88";
layerId = "1CC0AEB0-7023-4328-A38C-A27278C3261A";
name = "13 juin 25 à 12:19";
paths = (
{
closed = 1;
nodes = (
"30 700 LINE",
"30 0 LINE",
"266 0 LINE",
"266 700 LINE"
);
},
{
closed = 1;
nodes = (
"734 700 LINE",
"455 700 LINE",
"97 253 LINE",
"214 106 LINE"
);
},
{
closed = 1;
nodes = (
"726 -16 OFFCURVE",
"751 91 OFFCURVE",
"688 179 CURVE SMOOTH",
"445 518 LINE",
"297 310 LINE",
"449 93 LINE SMOOTH",
"492 31 OFFCURVE",
"535 -16 OFFCURVE",
"611 -16 CURVE SMOOTH"
);
}
);
width = 754;
},
{
associatedMasterId = "D8D2F0D2-8948-448B-99CD-378CDFD0E0AE";
layerId = "5BF3BBCE-0A7F-4DFF-BDCA-5EDE044CF258";
name = "13 juin 25 à 12:20";
paths = (
{
closed = 1;
nodes = (
"114 700 LINE",
"114 0 LINE",
"178 0 LINE",
"178 700 LINE"
);
},
{
closed = 1;
nodes = (
"587 700 LINE",
"507 700 LINE",
"127 297 LINE",
"160 249 LINE"
);
},
{
closed = 1;
nodes = (
"598 -4 OFFCURVE",
"604 30 OFFCURVE",
"583 58 CURVE SMOOTH",
"296 430 LINE",
"249 386 LINE",
"527 26 LINE SMOOTH",
"540 9 OFFCURVE",
"554 -4 OFFCURVE",
"571 -4 CURVE SMOOTH"
);
}
);
width = 636;
}
);
leftMetricsKey = "=H";
unicode = 004B;
},
{
glyphname = L;
lastChange = "2025-06-11 14:01:37 +0000";
layers = (
{
layerId = "D8D2F0D2-8948-448B-99CD-378CDFD0E0AE";
paths = (
{
closed = 1;
nodes = (
"178 0 LINE",
"178 700 LINE",
"114 700 LINE",
"114 0 LINE"
);
},
{
closed = 1;
nodes = (
"592 0 LINE",
"592 56 LINE",
"144 56 LINE",
"144 0 LINE"
);
}
);
width = 632;
},
{
layerId = "83B83716-1CD1-47ED-B715-8773FED73F88";
paths = (
{
closed = 1;
nodes = (
"266 0 LINE",
"266 700 LINE",
"30 700 LINE",
"30 0 LINE"
);
},
{
closed = 1;
nodes = (
"564 0 LINE",
"564 190 LINE",
"112 190 LINE",
"112 0 LINE"
);
}
);
width = 574;
}
);
leftMetricsKey = "=H";
rightMetricsKey = "=+10";
unicode = 004C;
},
{
glyphname = M;
lastChange = "2025-06-11 14:04:01 +0000";
layers = (
{
layerId = "D8D2F0D2-8948-448B-99CD-378CDFD0E0AE";
paths = (
{
closed = 1;
nodes = (
"418 259 LINE",
"466 259 LINE",
"212 671 LINE SMOOTH",
"198 693 OFFCURVE",
"184 704 OFFCURVE",
"161 704 CURVE SMOOTH",
"132 704 OFFCURVE",
"114 686 OFFCURVE",
"114 644 CURVE SMOOTH",
"114 0 LINE",
"175 0 LINE",
"175 657 LINE",
"151 650 LINE",
"439 183 LINE",
"441 183 LINE",
"730 650 LINE",
"706 657 LINE",
"706 0 LINE",
"767 0 LINE",
"767 644 LINE SMOOTH",
"767 686 OFFCURVE",
"750 704 OFFCURVE",
"723 704 CURVE SMOOTH",
"701 704 OFFCURVE",
"686 692 OFFCURVE",
"673 671 CURVE SMOOTH"
);
}
);
width = 881;
},
{
layerId = "83B83716-1CD1-47ED-B715-8773FED73F88";
paths = (
{
closed = 1;
nodes = (
"428 387 LINE",
"478 387 LINE",
"338 599 LINE SMOOTH",
"290 672 OFFCURVE",
"251 712 OFFCURVE",
"172 712 CURVE SMOOTH",
"72 712 OFFCURVE",
"30 646 OFFCURVE",
"30 542 CURVE SMOOTH",
"30 0 LINE",
"256 0 LINE",
"256 401 LINE",
"205 404 LINE",
"452 30 LINE",
"454 30 LINE",
"701 404 LINE",
"650 401 LINE",
"650 0 LINE",
"876 0 LINE",
"876 542 LINE SMOOTH",
"876 641 OFFCURVE",
"837 712 OFFCURVE",
"738 712 CURVE SMOOTH",
"663 712 OFFCURVE",
"616 672 OFFCURVE",
"568 599 CURVE SMOOTH"
);
}
);
width = 906;
}
);
leftMetricsKey = "=H";
rightMetricsKey = "=H";
unicode = 004D;
},
{
glyphname = N;
lastChange = "2025-06-14 11:48:06 +0000";
layers = (
{
anchors = (
{
name = bottom;
position = "{384, 0}";
},
{
name = top;
position = "{384, 700}";
}
);
layerId = "D8D2F0D2-8948-448B-99CD-378CDFD0E0AE";
paths = (
{
closed = 1;
nodes = (
"172 0 LINE",
"172 647 LINE",
"151 641 LINE",
"591 0 LINE",
"654 0 LINE",
"654 700 LINE",
"596 700 LINE",
"596 53 LINE",
"626 59 LINE",
"207 668 LINE SMOOTH",
"190 693 OFFCURVE",
"176 706 OFFCURVE",
"154 706 CURVE SMOOTH",
"128 706 OFFCURVE",
"114 688 OFFCURVE",
"114 654 CURVE SMOOTH",
"114 0 LINE"
);
}
);
width = 768;
},
{
associatedMasterId = "83B83716-1CD1-47ED-B715-8773FED73F88";
layerId = "761FAA93-50F0-4A63-9565-8A06E3A7F0F2";
name = "Aug 25 21, 12:50";
paths = (
{
closed = 1;
nodes = (
"70 780 LINE",
"70 0 LINE",
"254 0 LINE",
"254 780 LINE"
);
},
{
closed = 1;
nodes = (
"532 780 LINE",
"532 0 LINE",
"716 0 LINE",
"716 780 LINE"
);
},
{
closed = 1;
nodes = (
"70 780 LINE",
"540 187 LINE",
"716 250 LINE",
"296 780 LINE"
);
}
);
width = 786;
},
{
anchors = (
{
name = bottom;
position = "{398, 0}";
},
{
name = top;
position = "{398, 700}";
}
);
layerId = "83B83716-1CD1-47ED-B715-8773FED73F88";
paths = (
{
closed = 1;
nodes = (
"256 0 LINE",
"256 454 LINE",
"173 448 LINE",
"515 0 LINE",
"756 0 LINE",
"756 700 LINE",
"530 700 LINE",
"530 248 LINE",
"623 254 LINE",
"352 601 LINE SMOOTH",
"299 668 OFFCURVE",
"254 712 OFFCURVE",
"178 712 CURVE SMOOTH",
"85 712 OFFCURVE",
"30 646 OFFCURVE",
"30 542 CURVE SMOOTH",
"30 0 LINE"
);
}
);
width = 796;
}
);
leftMetricsKey = "=H";
rightMetricsKey = "=H";
unicode = 004E;
},
{
glyphname = O;
lastChange = "2025-06-16 15:36:28 +0000";
layers = (
{
anchors = (
{
name = bottom;
position = "{383, 0}";
},
{
name = center;
position = "{383, 370}";
},
{
name = ogonek;
position = "{681, 10}";
},
{
name = top;
position = "{383, 740}";
},
{
name = topleft;
position = "{31, 740}";
},
{
name = topright;
position = "{735, 740}";
}
);
layerId = "D8D2F0D2-8948-448B-99CD-378CDFD0E0AE";
paths = (
{
closed = 1;
nodes = (
"56 124 OFFCURVE",
"183 -12 OFFCURVE",
"378 -12 CURVE SMOOTH",
"583 -12 OFFCURVE",
"710 146 OFFCURVE",
"710 363 CURVE SMOOTH",
"710 575 OFFCURVE",
"583 712 OFFCURVE",
"388 712 CURVE SMOOTH",
"183 712 OFFCURVE",
"56 553 OFFCURVE",
"56 336 CURVE SMOOTH"
);
},
{
closed = 1;
nodes = (
"124 525 OFFCURVE",
"223 655 OFFCURVE",
"385 655 CURVE SMOOTH",
"539 655 OFFCURVE",
"642 537 OFFCURVE",
"642 358 CURVE SMOOTH",
"642 175 OFFCURVE",
"543 44 OFFCURVE",
"381 44 CURVE SMOOTH",
"227 44 OFFCURVE",
"124 161 OFFCURVE",
"124 342 CURVE SMOOTH"
);
}
);
width = 766;
},
{
anchors = (
{
name = bottom;
position = "{371, 0}";
},
{
name = center;
position = "{371, 370}";
},
{
name = ogonek;
position = "{668, 10}";
},
{
name = top;
position = "{371, 700}";
},
{
name = topleft;
position = "{20, 700}";
},
{
name = topright;
position = "{722, 700}";
}
);
layerId = "83B83716-1CD1-47ED-B715-8773FED73F88";
paths = (
{
closed = 1;
nodes = (
"6 129 OFFCURVE",
"131 -12 OFFCURVE",
"366 -12 CURVE SMOOTH",
"603 -12 OFFCURVE",
"736 144 OFFCURVE",
"736 361 CURVE SMOOTH",
"736 571 OFFCURVE",
"611 712 OFFCURVE",
"376 712 CURVE SMOOTH",
"139 712 OFFCURVE",
"6 555 OFFCURVE",
"6 340 CURVE SMOOTH"
);
},
{
closed = 1;
nodes = (
"252 442 OFFCURVE",
"301 498 OFFCURVE",
"372 498 CURVE SMOOTH",
"442 498 OFFCURVE",
"490 445 OFFCURVE",
"490 353 CURVE SMOOTH",
"490 260 OFFCURVE",
"441 202 OFFCURVE",
"370 202 CURVE SMOOTH",
"300 202 OFFCURVE",
"252 256 OFFCURVE",
"252 349 CURVE SMOOTH"
);
}
);
width = 742;
}
);
rightMetricsKey = "=|";
unicode = 004F;
},
{
glyphname = P;
lastChange = "2025-06-11 15:35:58 +0000";
layers = (
{
layerId = "D8D2F0D2-8948-448B-99CD-378CDFD0E0AE";
paths = (
{
closed = 1;
nodes = (
"363 325 LINE SMOOTH",
"536 325 OFFCURVE",
"636 395 OFFCURVE",
"636 519 CURVE SMOOTH",
"636 641 OFFCURVE",
"539 700 OFFCURVE",
"363 700 CURVE SMOOTH",
"144 700 LINE",
"144 643 LINE",
"363 643 LINE SMOOTH",
"497 643 OFFCURVE",
"568 608 OFFCURVE",
"568 518 CURVE SMOOTH",
"568 427 OFFCURVE",
"497 382 OFFCURVE",
"363 382 CURVE SMOOTH",
"144 382 LINE",
"144 325 LINE"
);
},
{
closed = 1;
nodes = (
"177 0 LINE",
"177 700 LINE",
"114 700 LINE",
"114 0 LINE"
);
}
);
width = 678;
},
{
layerId = "83B83716-1CD1-47ED-B715-8773FED73F88";
paths = (
{
closed = 1;
nodes = (
"362 212 LINE SMOOTH",
"556 212 OFFCURVE",
"672 294 OFFCURVE",
"672 452 CURVE SMOOTH",
"672 605 OFFCURVE",
"564 700 OFFCURVE",
"362 700 CURVE SMOOTH",
"178 700 LINE",
"178 510 LINE",
"325 510 LINE SMOOTH",
"392 510 OFFCURVE",
"424 492 OFFCURVE",
"424 457 CURVE SMOOTH",
"424 419 OFFCURVE",
"388 402 OFFCURVE",
"325 402 CURVE SMOOTH",
"178 402 LINE",
"178 212 LINE"
);
},
{
closed = 1;
nodes = (
"266 0 LINE",
"266 700 LINE",
"30 700 LINE",
"30 0 LINE"
);
}
);
width = 678;
}
);
leftMetricsKey = "=H";
unicode = 0050;
},
{
glyphname = Q;
lastChange = "2025-06-10 16:19:17 +0000";
layers = (
{
components = (
{
name = O;
}
);
layerId = "D8D2F0D2-8948-448B-99CD-378CDFD0E0AE";
paths = (
{
closed = 1;
nodes = (
"663 -81 OFFCURVE",
"663 -64 OFFCURVE",
"648 -46 CURVE SMOOTH",
"543 83 LINE",
"499 48 LINE",
"605 -83 LINE SMOOTH",
"619 -101 OFFCURVE",
"635 -105 OFFCURVE",
"649 -93 CURVE SMOOTH"
);
}
);
width = 744;
},
{
components = (
{
name = O;
}
);
layerId = "83B83716-1CD1-47ED-B715-8773FED73F88";
paths = (
{
closed = 1;
nodes = (
"726 -40 OFFCURVE",
"730 18 OFFCURVE",
"678 81 CURVE SMOOTH",
"565 215 LINE",
"396 70 LINE",
"508 -63 LINE SMOOTH",
"560 -125 OFFCURVE",
"618 -132 OFFCURVE",
"672 -86 CURVE SMOOTH"
);
}
);
width = 742;
}
);
leftMetricsKey = "=O";
rightMetricsKey = "=O";
unicode = 0051;
},
{
glyphname = R;
lastChange = "2025-06-13 22:12:31 +0000";
layers = (
{
layerId = "D8D2F0D2-8948-448B-99CD-378CDFD0E0AE";
paths = (
{
closed = 1;
nodes = (
"644 0 LINE",
"465 362 LINE",
"399 361 LINE",
"575 0 LINE"
);
},
{
closed = 1;
nodes = (
"364 325 LINE SMOOTH",
"535 325 OFFCURVE",
"633 395 OFFCURVE",
"633 519 CURVE SMOOTH",
"633 641 OFFCURVE",
"538 700 OFFCURVE",
"364 700 CURVE SMOOTH",
"145 700 LINE",
"145 643 LINE",
"364 643 LINE SMOOTH",
"498 643 OFFCURVE",
"567 608 OFFCURVE",
"567 518 CURVE SMOOTH",
"567 427 OFFCURVE",
"498 382 OFFCURVE",
"364 382 CURVE SMOOTH",
"145 382 LINE",
"145 325 LINE"
);
},
{
closed = 1;
nodes = (
"178 0 LINE",
"178 700 LINE",
"114 700 LINE",
"114 0 LINE"
);
}
);
width = 694;
},
{
layerId = "83B83716-1CD1-47ED-B715-8773FED73F88";
paths = (
{
closed = 1;
nodes = (
"712 0 LINE",
"519 335 LINE",
"272 310 LINE",
"433 0 LINE"
);
},
{
closed = 1;
nodes = (
"362 212 LINE SMOOTH",
"556 212 OFFCURVE",
"672 294 OFFCURVE",
"672 452 CURVE SMOOTH",
"672 605 OFFCURVE",
"564 700 OFFCURVE",
"362 700 CURVE SMOOTH",
"178 700 LINE",
"178 510 LINE",
"325 510 LINE SMOOTH",
"392 510 OFFCURVE",
"424 492 OFFCURVE",
"424 457 CURVE SMOOTH",
"424 419 OFFCURVE",
"388 402 OFFCURVE",
"325 402 CURVE SMOOTH",
"178 402 LINE",
"178 212 LINE"
);
},
{
closed = 1;
nodes = (
"266 0 LINE",
"266 700 LINE",
"30 700 LINE",
"30 0 LINE"
);
}
);
width = 722;
},
{
associatedMasterId = "83B83716-1CD1-47ED-B715-8773FED73F88";
layerId = "26C53316-47A2-41AA-95D2-E88DA75F5DA6";
name = "13 juin 25 à 12:18";
paths = (
{
closed = 1;
nodes = (
"681 -16 OFFCURVE",
"708 92 OFFCURVE",
"652 179 CURVE SMOOTH",
"553 335 LINE",
"292 310 LINE",
"405 93 LINE SMOOTH",
"438 29 OFFCURVE",
"482 -16 OFFCURVE",
"558 -16 CURVE SMOOTH"
);
},
{
closed = 1;
nodes = (
"362 212 LINE SMOOTH",
"556 212 OFFCURVE",
"672 294 OFFCURVE",
"672 452 CURVE SMOOTH",
"672 605 OFFCURVE",
"564 700 OFFCURVE",
"362 700 CURVE SMOOTH",
"178 700 LINE",
"178 510 LINE",
"325 510 LINE SMOOTH",
"392 510 OFFCURVE",
"424 492 OFFCURVE",
"424 457 CURVE SMOOTH",
"424 419 OFFCURVE",
"388 402 OFFCURVE",
"325 402 CURVE SMOOTH",
"178 402 LINE",
"178 212 LINE"
);
},
{
closed = 1;
nodes = (
"266 0 LINE",
"266 700 LINE",
"30 700 LINE",
"30 0 LINE"
);
}
);
width = 696;
},
{
associatedMasterId = "D8D2F0D2-8948-448B-99CD-378CDFD0E0AE";
layerId = "F3DD9A56-9DCF-4FE3-A9DF-BA078B253229";
name = "14 juin 25 à 00:12";
paths = (
{
closed = 1;
nodes = (
"629 0 OFFCURVE",
"634 20 OFFCURVE",
"620 49 CURVE SMOOTH",
"465 362 LINE",
"399 361 LINE",
"562 26 LINE SMOOTH",
"570 9 OFFCURVE",
"582 0 OFFCURVE",
"601 0 CURVE SMOOTH"
);
},
{
closed = 1;
nodes = (
"363 325 LINE SMOOTH",
"534 325 OFFCURVE",
"632 395 OFFCURVE",
"632 519 CURVE SMOOTH",
"632 641 OFFCURVE",
"537 700 OFFCURVE",
"363 700 CURVE SMOOTH",
"144 700 LINE",
"144 643 LINE",
"363 643 LINE SMOOTH",
"497 643 OFFCURVE",
"566 608 OFFCURVE",
"566 518 CURVE SMOOTH",
"566 427 OFFCURVE",
"497 382 OFFCURVE",
"363 382 CURVE SMOOTH",
"144 382 LINE",
"144 325 LINE"
);
},
{
closed = 1;
nodes = (
"177 0 LINE",
"177 700 LINE",
"114 700 LINE",
"114 0 LINE"
);
}
);
width = 693;
}
);
leftMetricsKey = "=H";
unicode = 0052;
},
{
glyphname = S;
lastChange = "2025-06-16 15:27:52 +0000";
layers = (
{
layerId = "83B83716-1CD1-47ED-B715-8773FED73F88";
paths = (
{
closed = 1;
nodes = (
"502 -12 OFFCURVE",
"613 90 OFFCURVE",
"613 235 CURVE SMOOTH",
"613 493 OFFCURVE",
"268 434 OFFCURVE",
"268 516 CURVE SMOOTH",
"268 535 OFFCURVE",
"287 548 OFFCURVE",
"316 548 CURVE SMOOTH",
"392 548 OFFCURVE",
"420 462 OFFCURVE",
"508 462 CURVE SMOOTH",
"569 462 OFFCURVE",
"604 504 OFFCURVE",
"604 560 CURVE SMOOTH",
"604 676 OFFCURVE",
"458 712 OFFCURVE",
"340 712 CURVE SMOOTH",
"138 712 OFFCURVE",
"26 616 OFFCURVE",
"26 472 CURVE SMOOTH",
"26 214 OFFCURVE",
"371 273 OFFCURVE",
"371 191 CURVE SMOOTH",
"371 172 OFFCURVE",
"352 164 OFFCURVE",
"313 164 CURVE SMOOTH",
"225 164 OFFCURVE",
"105 206 OFFCURVE",
"20 273 CURVE",
"20 57 LINE",
"91 19 OFFCURVE",
"195 -12 OFFCURVE",
"304 -12 CURVE SMOOTH"
);
}
);
width = 650;
},
{
associatedMasterId = "D8D2F0D2-8948-448B-99CD-378CDFD0E0AE";
layerId = "9BF5987E-DBA8-4C28-99DD-D78EF1ED3B67";
name = "Aug 25 21, 21:55";
paths = (
{
closed = 1;
nodes = (
"99 55 OFFCURVE",
"190 -10 OFFCURVE",
"330 -10 CURVE SMOOTH",
"485 -10 OFFCURVE",
"588 71 OFFCURVE",
"588 197 CURVE SMOOTH",
"588 458 OFFCURVE",
"154 384 OFFCURVE",
"154 588 CURVE SMOOTH",
"154 659 OFFCURVE",
"206 734 OFFCURVE",
"331 734 CURVE SMOOTH",
"454 734 OFFCURVE",
"501 661 OFFCURVE",
"521 586 CURVE",
"583 606 LINE",
"549 723 OFFCURVE",
"463 790 OFFCURVE",
"331 790 CURVE SMOOTH",
"177 790 OFFCURVE",
"90 700 OFFCURVE",
"90 583 CURVE SMOOTH",
"90 322 OFFCURVE",
"524 396 OFFCURVE",
"524 192 CURVE SMOOTH",
"524 117 OFFCURVE",
"465 47 OFFCURVE",
"332 47 CURVE SMOOTH",
"222 47 OFFCURVE",
"156 97 OFFCURVE",
"123 194 CURVE",
"62 174 LINE"
);
}
);
width = 666;
},
{
associatedMasterId = "D8D2F0D2-8948-448B-99CD-378CDFD0E0AE";
guideLines = (
{
angle = 219.8056;
position = "{557, 855}";
}
);
layerId = "EB3AAA4A-06AE-4173-BE5A-F964DF34B32D";
name = "Sep 11 21, 16:51";
paths = (
{
closed = 1;
nodes = (
"133 31 OFFCURVE",
"221 -10 OFFCURVE",
"331 -10 CURVE SMOOTH",
"485 -10 OFFCURVE",
"588 71 OFFCURVE",
"588 197 CURVE SMOOTH",
"588 458 OFFCURVE",
"154 384 OFFCURVE",
"154 587 CURVE SMOOTH",
"154 657 OFFCURVE",
"206 732 OFFCURVE",
"331 732 CURVE SMOOTH",
"413 732 OFFCURVE",
"472 700 OFFCURVE",
"529 616 CURVE",
"581 658 LINE",
"519 750 OFFCURVE",
"434 790 OFFCURVE",
"331 790 CURVE SMOOTH",
"176 790 OFFCURVE",
"90 700 OFFCURVE",
"90 583 CURVE SMOOTH",
"90 322 OFFCURVE",
"524 396 OFFCURVE",
"524 193 CURVE SMOOTH",
"524 118 OFFCURVE",
"465 48 OFFCURVE",
"333 48 CURVE SMOOTH",
"245 48 OFFCURVE",
"182 79 OFFCURVE",
"116 163 CURVE",
"64 122 LINE"
);
}
);
width = 666;
},
{
guideLines = (
{
angle = 219.8056;
position = "{557, 855}";
}
);
layerId = "D8D2F0D2-8948-448B-99CD-378CDFD0E0AE";
paths = (
{
closed = 1;
nodes = (
"463 -12 OFFCURVE",
"534 74 OFFCURVE",
"534 177 CURVE SMOOTH",
"534 417 OFFCURVE",
"113 334 OFFCURVE",
"113 524 CURVE SMOOTH",
"113 597 OFFCURVE",
"176 656 OFFCURVE",
"294 656 CURVE SMOOTH",
"445 656 OFFCURVE",
"464 557 OFFCURVE",
"505 557 CURVE SMOOTH",
"517 557 OFFCURVE",
"525 565 OFFCURVE",
"525 584 CURVE SMOOTH",
"525 654 OFFCURVE",
"422 712 OFFCURVE",
"294 712 CURVE SMOOTH",
"135 712 OFFCURVE",
"51 626 OFFCURVE",
"51 517 CURVE SMOOTH",
"51 276 OFFCURVE",
"472 359 OFFCURVE",
"472 170 CURVE SMOOTH",
"472 94 OFFCURVE",
"404 44 OFFCURVE",
"280 44 CURVE SMOOTH",
"203 44 OFFCURVE",
"124 63 OFFCURVE",
"46 110 CURVE",
"46 50 LINE",
"104 11 OFFCURVE",
"190 -12 OFFCURVE",
"282 -12 CURVE SMOOTH"
);
}
);
width = 612;
},
{
associatedMasterId = "D8D2F0D2-8948-448B-99CD-378CDFD0E0AE";
guideLines = (
{
angle = 219.8056;
position = "{557, 855}";
}
);
layerId = "8BEF1A39-6AF8-4037-857F-BDD2B7F23ADE";
name = "12 juin 25 à 09:28";
paths = (
{
closed = 1;
nodes = (
"119 27 OFFCURVE",
"206 -11 OFFCURVE",
"320 -11 CURVE SMOOTH",
"466 -11 OFFCURVE",
"566 55 OFFCURVE",
"566 178 CURVE SMOOTH",
"566 432 OFFCURVE",
"140 336 OFFCURVE",
"140 529 CURVE SMOOTH",
"140 595 OFFCURVE",
"191 657 OFFCURVE",
"311 657 CURVE SMOOTH",
"395 657 OFFCURVE",
"454 626 OFFCURVE",
"510 547 CURVE",
"561 586 LINE",
"500 674 OFFCURVE",
"416 712 OFFCURVE",
"311 712 CURVE SMOOTH",
"161 712 OFFCURVE",
"79 636 OFFCURVE",
"79 525 CURVE SMOOTH",
"79 278 OFFCURVE",
"505 373 OFFCURVE",
"505 174 CURVE SMOOTH",
"505 100 OFFCURVE",
"447 44 OFFCURVE",
"322 44 CURVE SMOOTH",
"230 44 OFFCURVE",
"167 73 OFFCURVE",
"102 153 CURVE",
"51 114 LINE"
);
}
);
visible = 1;
width = 632;
}
);
unicode = 0053;
},
{
glyphname = T;
lastChange = "2025-06-13 22:10:38 +0000";
layers = (
{
layerId = "D8D2F0D2-8948-448B-99CD-378CDFD0E0AE";
paths = (
{
closed = 1;
nodes = (
"326 0 LINE",
"326 700 LINE",
"262 700 LINE",
"262 0 LINE"
);
},
{
closed = 1;
nodes = (
"588 643 LINE",
"588 700 LINE",
"0 700 LINE",
"0 643 LINE"
);
}
);
width = 588;
},
{
layerId = "83B83716-1CD1-47ED-B715-8773FED73F88";
paths = (
{
closed = 1;
nodes = (
"450 0 LINE",
"450 700 LINE",
"214 700 LINE",
"214 0 LINE"
);
},
{
closed = 1;
nodes = (
"654 510 LINE",
"654 700 LINE",
"10 700 LINE",
"10 510 LINE"
);
}
);
width = 664;
}
);
rightMetricsKey = "=|";
unicode = 0054;
},
{
glyphname = U;
lastChange = "2025-06-11 14:15:12 +0000";
layers = (
{
anchors = (
{
name = bottom;
position = "{379, 0}";
},
{
name = ogonek;
position = "{681, 10}";
},
{
name = top;
position = "{379, 700}";
},
{
name = topright;
position = "{737, 700}";
}
);
layerId = "D8D2F0D2-8948-448B-99CD-378CDFD0E0AE";
paths = (
{
closed = 1;
nodes = (
"104 94 OFFCURVE",
"209 -9 OFFCURVE",
"379 -9 CURVE SMOOTH",
"556 -9 OFFCURVE",
"653 103 OFFCURVE",
"653 292 CURVE SMOOTH",
"653 700 LINE",
"589 700 LINE",
"589 294 LINE SMOOTH",
"589 141 OFFCURVE",
"520 49 OFFCURVE",
"379 49 CURVE SMOOTH",
"245 49 OFFCURVE",
"168 133 OFFCURVE",
"168 294 CURVE SMOOTH",
"168 700 LINE",
"104 700 LINE",
"104 292 LINE SMOOTH"
);
}
);
width = 757;
},
{
anchors = (
{
name = bottom;
position = "{336, 0}";
},
{
name = ogonek;
position = "{605, 10}";
},
{
name = top;
position = "{336, 700}";
},
{
name = topright;
position = "{652, 700}";
}
);
layerId = "83B83716-1CD1-47ED-B715-8773FED73F88";
paths = (
{
closed = 1;
nodes = (
"20 84 OFFCURVE",
"142 -10 OFFCURVE",
"336 -10 CURVE SMOOTH",
"538 -10 OFFCURVE",
"652 94 OFFCURVE",
"652 295 CURVE SMOOTH",
"652 700 LINE",
"416 700 LINE",
"416 295 LINE SMOOTH",
"416 240 OFFCURVE",
"391 212 OFFCURVE",
"336 212 CURVE SMOOTH",
"283 212 OFFCURVE",
"256 237 OFFCURVE",
"256 295 CURVE SMOOTH",
"256 700 LINE",
"20 700 LINE",
"20 295 LINE SMOOTH"
);
}
);
width = 672;
}
);
leftMetricsKey = "=H-10";
rightMetricsKey = "=|";
unicode = 0055;
},
{
glyphname = V;
lastChange = "2025-06-14 11:29:51 +0000";
layers = (
{
layerId = "D8D2F0D2-8948-448B-99CD-378CDFD0E0AE";
paths = (
{
closed = 1;
nodes = (
"360 0 LINE",
"626 700 LINE",
"560 700 LINE",
"299 0 LINE"
);
},
{
closed = 1;
nodes = (
"355 0 LINE",
"95 700 LINE",
"28 700 LINE",
"294 0 LINE"
);
}
);
width = 655;
},
{
layerId = "83B83716-1CD1-47ED-B715-8773FED73F88";
paths = (
{
closed = 1;
nodes = (
"528 0 LINE",
"786 700 LINE",
"533 700 LINE",
"317 0 LINE"
);
},
{
closed = 1;
nodes = (
"472 0 LINE",
"266 700 LINE",
"10 700 LINE",
"268 0 LINE"
);
}
);
width = 796;
}
);
leftMetricsKey = "=A";
rightMetricsKey = "=A";
unicode = 0056;
},
{
glyphname = W;
lastChange = "2025-06-14 11:52:29 +0000";
layers = (
{
anchors = (
{
name = bottom;
position = "{502, 0}";
},
{
name = top;
position = "{502, 700}";
}
);
layerId = "D8D2F0D2-8948-448B-99CD-378CDFD0E0AE";
paths = (
{
closed = 1;
nodes = (
"312 0 LINE",
"502 417 LINE",
"692 0 LINE",
"753 0 LINE",
"746 22 LINE",
"555 444 LINE SMOOTH",
"530 500 OFFCURVE",
"474 500 OFFCURVE",
"449 444 CURVE SMOOTH",
"258 22 LINE",
"251 0 LINE"
);
},
{
closed = 1;
nodes = (
"306 0 LINE",
"160 700 LINE",
"94 700 LINE",
"246 0 LINE"
);
},
{
closed = 1;
nodes = (
"758 0 LINE",
"910 700 LINE",
"844 700 LINE",
"697 0 LINE"
);
}
);
width = 1004;
},
{
anchors = (
{
name = bottom;
position = "{496, 0}";
},
{
name = top;
position = "{496, 700}";
}
);
layerId = "83B83716-1CD1-47ED-B715-8773FED73F88";
paths = (
{
closed = 1;
nodes = (
"376 0 LINE",
"496 271 LINE",
"616 0 LINE",
"774 0 LINE",
"774 136 LINE",
"616 498 LINE SMOOTH",
"563 619 OFFCURVE",
"429 619 OFFCURVE",
"376 498 CURVE SMOOTH",
"218 136 LINE",
"218 0 LINE"
);
},
{
closed = 1;
nodes = (
"354 0 LINE",
"258 700 LINE",
"10 700 LINE",
"150 0 LINE"
);
},
{
closed = 1;
nodes = (
"842 0 LINE",
"982 700 LINE",
"734 700 LINE",
"638 0 LINE"
);
}
);
width = 992;
},
{
associatedMasterId = "D8D2F0D2-8948-448B-99CD-378CDFD0E0AE";
layerId = "4697C7CF-CB3F-4DA3-8F3E-379320C0A47F";
name = "Aug 15 21, 19:34";
paths = (
{
closed = 1;
nodes = (
"100 780 LINE",
"30 780 LINE",
"320 0 LINE",
"384 0 LINE"
);
},
{
closed = 1;
nodes = (
"390 0 LINE",
"680 780 LINE",
"612 780 LINE",
"328 0 LINE"
);
},
{
closed = 1;
nodes = (
"402 780 LINE",
"334 780 LINE",
"624 0 LINE",
"686 0 LINE"
);
},
{
closed = 1;
nodes = (
"694 0 LINE",
"984 780 LINE",
"914 780 LINE",
"630 0 LINE"
);
}
);
width = 1014;
}
);
leftMetricsKey = "=H-20";
rightMetricsKey = "=|";
unicode = 0057;
},
{
glyphname = X;
lastChange = "2025-06-11 14:04:57 +0000";
layers = (
{
layerId = "D8D2F0D2-8948-448B-99CD-378CDFD0E0AE";
paths = (
{
closed = 1;
nodes = (
"274 350 LINE",
"35 0 LINE",
"109 0 LINE",
"334 329 LINE",
"296 329 LINE",
"521 0 LINE",
"595 0 LINE",
"356 350 LINE",
"596 700 LINE",
"521 700 LINE",
"296 370 LINE",
"334 370 LINE",
"109 700 LINE",
"34 700 LINE"
);
}
);
width = 630;
},
{
layerId = "83B83716-1CD1-47ED-B715-8773FED73F88";
paths = (
{
closed = 1;
nodes = (
"227 350 LINE",
"7 0 LINE",
"275 0 LINE",
"452 316 LINE",
"312 316 LINE",
"489 0 LINE",
"757 0 LINE",
"537 350 LINE",
"758 700 LINE",
"489 700 LINE",
"312 383 LINE",
"452 383 LINE",
"275 700 LINE",
"6 700 LINE"
);
}
);
width = 764;
}
);
rightMetricsKey = "=|";
unicode = 0058;
},
{
glyphname = Y;
lastChange = "2025-06-14 11:47:47 +0000";
layers = (
{
anchors = (
{
name = bottom;
position = "{318, 0}";
},
{
name = top;
position = "{318, 700}";
},
{
name = topleft;
position = "{20, 700}";
}
);
layerId = "D8D2F0D2-8948-448B-99CD-378CDFD0E0AE";
paths = (
{
closed = 1;
nodes = (
"617 700 LINE",
"542 700 LINE",
"292 379 LINE",
"345 348 LINE"
);
},
{
closed = 1;
nodes = (
"349 0 LINE",
"349 369 LINE",
"287 369 LINE",
"287 0 LINE"
);
},
{
closed = 1;
nodes = (
"344 379 LINE",
"94 700 LINE",
"19 700 LINE",
"290 348 LINE"
);
}
);
width = 636;
},
{
anchors = (
{
name = bottom;
position = "{394, 0}";
},
{
name = top;
position = "{394, 700}";
},
{
name = topleft;
position = "{20, 700}";
}
);
layerId = "83B83716-1CD1-47ED-B715-8773FED73F88";
paths = (
{
closed = 1;
nodes = (
"778 700 LINE",
"510 700 LINE",
"320 350 LINE",
"490 248 LINE"
);
},
{
closed = 1;
nodes = (
"512 0 LINE",
"512 424 LINE",
"276 424 LINE",
"276 0 LINE"
);
},
{
closed = 1;
nodes = (
"468 350 LINE",
"278 700 LINE",
"10 700 LINE",
"298 248 LINE"
);
}
);
width = 788;
}
);
rightMetricsKey = "=|";
unicode = 0059;
},
{
glyphname = Z;
lastChange = "2025-06-13 22:22:35 +0000";
layers = (
{
layerId = "D8D2F0D2-8948-448B-99CD-378CDFD0E0AE";
paths = (
{
closed = 1;
nodes = (
"555 654 LINE",
"494 673 LINE",
"37 46 LINE",
"98 27 LINE"
);
},
{
closed = 1;
nodes = (
"566 0 LINE",
"566 56 LINE",
"99 56 LINE",
"37 46 LINE",
"36 0 LINE"
);
},
{
closed = 1;
nodes = (
"493 644 LINE",
"555 654 LINE",
"556 700 LINE",
"46 700 LINE",
"46 644 LINE"
);
}
);
width = 602;
},
{
associatedMasterId = "83B83716-1CD1-47ED-B715-8773FED73F88";
layerId = "7295FBCC-36EF-4BA0-91CC-1A53775B7FD3";
name = "13 juin 25 à 12:37";
paths = (
{
closed = 1;
nodes = (
"620 0 LINE",
"620 180 LINE",
"269 180 LINE",
"340 87 LINE",
"561 466 LINE SMOOTH",
"635 593 OFFCURVE",
"588 700 OFFCURVE",
"450 700 CURVE SMOOTH",
"42 700 LINE",
"42 520 LINE",
"404 520 LINE",
"357 568 LINE",
"22 0 LINE"
);
}
);
width = 642;
},
{
layerId = "83B83716-1CD1-47ED-B715-8773FED73F88";
name = Black;
paths = (
{
closed = 1;
nodes = (
"575 562 LINE",
"310 578 LINE",
"20 138 LINE",
"285 122 LINE"
);
},
{
closed = 1;
nodes = (
"575 0 LINE",
"575 180 LINE",
"110 180 LINE",
"20 138 LINE",
"20 0 LINE"
);
},
{
closed = 1;
nodes = (
"481 520 LINE",
"575 562 LINE",
"575 700 LINE",
"20 700 LINE",
"20 520 LINE"
);
}
);
width = 595;
},
{
associatedMasterId = "D8D2F0D2-8948-448B-99CD-378CDFD0E0AE";
layerId = "C56DC4C9-C929-48CB-B7AA-AF8358DA8E75";
name = "14 juin 25 à 00:06";
paths = (
{
closed = 1;
nodes = (
"566 0 LINE",
"566 56 LINE",
"99 56 LINE",
"119 18 LINE",
"529 642 LINE SMOOTH",
"549 673 OFFCURVE",
"533 700 OFFCURVE",
"494 700 CURVE SMOOTH",
"46 700 LINE",
"46 644 LINE",
"503 644 LINE",
"483 682 LINE",
"36 0 LINE"
);
}
);
width = 602;
}
);
rightMetricsKey = "=|";
unicode = 005A;
},
{
color = 3;
glyphname = G.alt;
lastChange = "2025-06-18 08:19:38 +0000";
layers = (
{
layerId = "D8D2F0D2-8948-448B-99CD-378CDFD0E0AE";
width = 600;
},
{
layerId = "83B83716-1CD1-47ED-B715-8773FED73F88";
paths = (
{
closed = 1;
nodes = (
"504 -12 OFFCURVE",
"596 13 OFFCURVE",
"668 54 CURVE",
"668 234 LINE",
"577 213 OFFCURVE",
"483 192 OFFCURVE",
"410 192 CURVE SMOOTH",
"302 192 OFFCURVE",
"252 238 OFFCURVE",
"252 343 CURVE SMOOTH",
"252 441 OFFCURVE",
"297 498 OFFCURVE",
"365 498 CURVE SMOOTH",
"440 498 OFFCURVE",
"464 428 OFFCURVE",
"554 427 CURVE SMOOTH",
"614 426 OFFCURVE",
"664 456 OFFCURVE",
"664 534 CURVE SMOOTH",
"664 659 OFFCURVE",
"513 712 OFFCURVE",
"379 712 CURVE SMOOTH",
"141 711 OFFCURVE",
"6 545 OFFCURVE",
"6 340 CURVE SMOOTH",
"6 131 OFFCURVE",
"145 -12 OFFCURVE",
"393 -12 CURVE SMOOTH"
);
},
{
closed = 1;
nodes = (
"363 406 LINE",
"363 236 LINE",
"438 236 LINE",
"438 44 LINE",
"668 54 LINE",
"668 406 LINE"
);
}
);
width = 696;
}
);
leftMetricsKey = "=O";
rightMetricsKey = "=u";
},
{
color = 3;
glyphname = M.ss05;
lastChange = "2025-06-18 08:19:38 +0000";
layers = (
{
layerId = "D8D2F0D2-8948-448B-99CD-378CDFD0E0AE";
width = 600;
},
{
associatedMasterId = "83B83716-1CD1-47ED-B715-8773FED73F88";
layerId = "8E34BEC1-F89E-4A90-BB21-37AA1D1F3CB3";
name = "17 juin 25 à 13:35";
paths = (
{
closed = 1;
nodes = (
"910 606 OFFCURVE",
"806 700 OFFCURVE",
"635 700 CURVE SMOOTH",
"559 700 OFFCURVE",
"499 678 OFFCURVE",
"450 576 CURVE",
"489 576 LINE",
"441 678 OFFCURVE",
"381 700 OFFCURVE",
"304 700 CURVE SMOOTH",
"134 700 OFFCURVE",
"30 606 OFFCURVE",
"30 335 CURVE SMOOTH",
"30 240 OFFCURVE",
"48 125 OFFCURVE",
"105 -10 CURVE",
"328 -10 LINE",
"288 125 OFFCURVE",
"272 240 OFFCURVE",
"272 345 CURVE SMOOTH",
"272 453 OFFCURVE",
"289 478 OFFCURVE",
"320 478 CURVE SMOOTH",
"366 478 OFFCURVE",
"360 419 OFFCURVE",
"360 140 CURVE",
"580 140 LINE",
"580 419 OFFCURVE",
"574 478 OFFCURVE",
"621 478 CURVE SMOOTH",
"651 478 OFFCURVE",
"668 453 OFFCURVE",
"668 345 CURVE SMOOTH",
"668 240 OFFCURVE",
"653 125 OFFCURVE",
"612 -10 CURVE",
"835 -10 LINE",
"891 125 OFFCURVE",
"910 240 OFFCURVE",
"910 335 CURVE SMOOTH"
);
}
);
width = 940;
},
{
associatedMasterId = "83B83716-1CD1-47ED-B715-8773FED73F88";
layerId = "076BEF1D-8258-4460-BDAC-72C95781E0A1";
name = "18 juin 25 à 09:52";
paths = (
{
closed = 1;
nodes = (
"566 118 LINE",
"566 368 OFFCURVE",
"585 437 OFFCURVE",
"626 437 CURVE SMOOTH",
"658 437 OFFCURVE",
"668 395 OFFCURVE",
"668 319 CURVE SMOOTH",
"668 227 OFFCURVE",
"653 107 OFFCURVE",
"630 0 CURVE",
"846 0 LINE",
"878 111 OFFCURVE",
"900 233 OFFCURVE",
"900 356 CURVE SMOOTH",
"900 622 OFFCURVE",
"799 712 OFFCURVE",
"659 712 CURVE SMOOTH",
"557 712 OFFCURVE",
"471 664 OFFCURVE",
"427 493 CURVE",
"481 493 LINE",
"436 665 OFFCURVE",
"351 712 OFFCURVE",
"249 712 CURVE SMOOTH",
"109 712 OFFCURVE",
"8 622 OFFCURVE",
"8 356 CURVE SMOOTH",
"8 233 OFFCURVE",
"30 111 OFFCURVE",
"62 0 CURVE",
"278 0 LINE",
"255 107 OFFCURVE",
"240 227 OFFCURVE",
"240 319 CURVE SMOOTH",
"240 395 OFFCURVE",
"250 437 OFFCURVE",
"282 437 CURVE SMOOTH",
"323 437 OFFCURVE",
"342 368 OFFCURVE",
"342 118 CURVE"
);
}
);
width = 908;
},
{
layerId = "83B83716-1CD1-47ED-B715-8773FED73F88";
name = Black;
paths = (
{
closed = 1;
nodes = (
"908 616 OFFCURVE",
"804 710 OFFCURVE",
"633 710 CURVE SMOOTH",
"557 710 OFFCURVE",
"487 688 OFFCURVE",
"438 586 CURVE",
"487 586 LINE",
"439 688 OFFCURVE",
"369 710 OFFCURVE",
"292 710 CURVE SMOOTH",
"122 710 OFFCURVE",
"18 616 OFFCURVE",
"18 345 CURVE SMOOTH",
"18 250 OFFCURVE",
"36 125 OFFCURVE",
"103 0 CURVE",
"326 0 LINE",
"276 135 OFFCURVE",
"260 250 OFFCURVE",
"260 355 CURVE SMOOTH",
"260 453 OFFCURVE",
"277 478 OFFCURVE",
"308 478 CURVE SMOOTH",
"354 478 OFFCURVE",
"348 419 OFFCURVE",
"348 200 CURVE",
"578 200 LINE",
"578 419 OFFCURVE",
"572 478 OFFCURVE",
"619 478 CURVE SMOOTH",
"649 478 OFFCURVE",
"666 453 OFFCURVE",
"666 355 CURVE SMOOTH",
"666 250 OFFCURVE",
"651 135 OFFCURVE",
"600 0 CURVE",
"823 0 LINE",
"889 125 OFFCURVE",
"908 250 OFFCURVE",
"908 345 CURVE SMOOTH"
);
}
);
width = 926;
}
);
rightMetricsKey = "=|";
},
{
color = 3;
glyphname = W.ss05;
lastChange = "2025-06-18 08:19:38 +0000";
layers = (
{
layerId = "D8D2F0D2-8948-448B-99CD-378CDFD0E0AE";
width = 600;
},
{
layerId = "83B83716-1CD1-47ED-B715-8773FED73F88";
paths = (
{
closed = 1;
nodes = (
"18 84 OFFCURVE",
"122 -10 OFFCURVE",
"293 -10 CURVE SMOOTH",
"369 -10 OFFCURVE",
"439 12 OFFCURVE",
"488 114 CURVE",
"439 114 LINE",
"487 12 OFFCURVE",
"557 -10 OFFCURVE",
"634 -10 CURVE SMOOTH",
"804 -10 OFFCURVE",
"908 84 OFFCURVE",
"908 355 CURVE SMOOTH",
"908 450 OFFCURVE",
"890 565 OFFCURVE",
"833 700 CURVE",
"610 700 LINE",
"650 565 OFFCURVE",
"666 450 OFFCURVE",
"666 345 CURVE SMOOTH",
"666 247 OFFCURVE",
"649 222 OFFCURVE",
"618 222 CURVE SMOOTH",
"572 222 OFFCURVE",
"578 281 OFFCURVE",
"578 500 CURVE",
"348 500 LINE",
"348 281 OFFCURVE",
"354 222 OFFCURVE",
"307 222 CURVE SMOOTH",
"277 222 OFFCURVE",
"260 247 OFFCURVE",
"260 345 CURVE SMOOTH",
"260 450 OFFCURVE",
"275 565 OFFCURVE",
"316 700 CURVE",
"93 700 LINE",
"37 565 OFFCURVE",
"18 450 OFFCURVE",
"18 355 CURVE SMOOTH"
);
}
);
width = 926;
}
);
rightMetricsKey = "=|";
},
{
color = 3;
glyphname = E.ss06;
lastChange = "2025-06-18 08:19:38 +0000";
layers = (
{
layerId = "D8D2F0D2-8948-448B-99CD-378CDFD0E0AE";
width = 600;
},
{
layerId = "83B83716-1CD1-47ED-B715-8773FED73F88";
paths = (
{
closed = 1;
nodes = (
"491 304 LINE",
"491 438 LINE",
"343 434 OFFCURVE",
"284 445 OFFCURVE",
"284 481 CURVE SMOOTH",
"284 502 OFFCURVE",
"304 518 OFFCURVE",
"347 518 CURVE",
"354 712 LINE",
"150 712 OFFCURVE",
"24 626 OFFCURVE",
"24 497 CURVE SMOOTH",
"24 366 OFFCURVE",
"154 304 OFFCURVE",
"364 304 CURVE SMOOTH"
);
},
{
closed = 1;
nodes = (
"164 390 OFFCURVE",
"24 324 OFFCURVE",
"24 186 CURVE SMOOTH",
"24 64 OFFCURVE",
"134 -12 OFFCURVE",
"334 -12 CURVE SMOOTH",
"464 -12 OFFCURVE",
"569 20 OFFCURVE",
"621 54 CURVE",
"621 240 LINE",
"531 200 OFFCURVE",
"448 182 OFFCURVE",
"374 182 CURVE SMOOTH",
"304 182 OFFCURVE",
"284 198 OFFCURVE",
"284 217 CURVE SMOOTH",
"284 249 OFFCURVE",
"341 260 OFFCURVE",
"491 256 CURVE",
"491 390 LINE",
"364 390 LINE SMOOTH"
);
},
{
closed = 1;
nodes = (
"347 518 LINE",
"433 518 OFFCURVE",
"464 458 OFFCURVE",
"541 458 CURVE SMOOTH",
"594 458 OFFCURVE",
"644 485 OFFCURVE",
"644 557 CURVE SMOOTH",
"644 675 OFFCURVE",
"488 712 OFFCURVE",
"354 712 CURVE"
);
}
);
width = 654;
},
{
associatedMasterId = "83B83716-1CD1-47ED-B715-8773FED73F88";
layerId = "FF91B9C3-5B47-4C6F-A445-6EBD73942599";
name = "17 juin 25 à 13:40";
paths = (
{
closed = 1;
nodes = (
"414 300 LINE",
"414 440 LINE",
"294 440 LINE SMOOTH",
"229 440 OFFCURVE",
"217 461 OFFCURVE",
"217 479 CURVE SMOOTH",
"217 500 OFFCURVE",
"233 514 OFFCURVE",
"291 514 CURVE SMOOTH",
"347 514 OFFCURVE",
"434 500 OFFCURVE",
"524 460 CURVE",
"524 640 LINE",
"482 680 OFFCURVE",
"399 712 OFFCURVE",
"287 712 CURVE SMOOTH",
"103 712 OFFCURVE",
"-3 626 OFFCURVE",
"-3 484 CURVE SMOOTH",
"-3 346 OFFCURVE",
"77 300 OFFCURVE",
"287 300 CURVE SMOOTH"
);
},
{
closed = 1;
nodes = (
"77 400 OFFCURVE",
"-3 354 OFFCURVE",
"-3 216 CURVE SMOOTH",
"-3 74 OFFCURVE",
"103 -12 OFFCURVE",
"287 -12 CURVE SMOOTH",
"399 -12 OFFCURVE",
"482 20 OFFCURVE",
"524 60 CURVE",
"524 240 LINE",
"434 200 OFFCURVE",
"347 186 OFFCURVE",
"291 186 CURVE SMOOTH",
"233 186 OFFCURVE",
"217 200 OFFCURVE",
"217 221 CURVE SMOOTH",
"217 239 OFFCURVE",
"229 260 OFFCURVE",
"294 260 CURVE SMOOTH",
"414 260 LINE",
"414 400 LINE",
"287 400 LINE SMOOTH"
);
}
);
width = 600;
}
);
},
{
glyphname = a;
lastChange = "2025-06-17 11:14:25 +0000";
layers = (
{
associatedMasterId = "D8D2F0D2-8948-448B-99CD-378CDFD0E0AE";
layerId = "CC5E7E17-F272-4A35-B6AF-AB9C011C52E0";
name = "Sep 10 21, 23:42";
paths = (
{
closed = 1;
nodes = (
"158 437 OFFCURVE",
"213 456 OFFCURVE",
"271 456 CURVE SMOOTH",
"331 456 OFFCURVE",
"368 435 OFFCURVE",
"368 365 CURVE SMOOTH",
"368 125 LINE",
"376 121 LINE",
"372 41 OFFCURVE",
"417 0 OFFCURVE",
"472 -8 CURVE",
"487 44 LINE",
"441 53 OFFCURVE",
"428 77 OFFCURVE",
"428 131 CURVE SMOOTH",
"428 366 LINE SMOOTH",
"428 472 OFFCURVE",
"372 510 OFFCURVE",
"276 510 CURVE SMOOTH",
"201 510 OFFCURVE",
"140 487 OFFCURVE",
"100 465 CURVE",
"115 411 LINE"
);
},
{
closed = 1;
nodes = (
"72 48 OFFCURVE",
"125 -10 OFFCURVE",
"215 -10 CURVE SMOOTH",
"288 -10 OFFCURVE",
"354 28 OFFCURVE",
"392 106 CURVE",
"368 167 LINE",
"368 96 OFFCURVE",
"297 44 OFFCURVE",
"224 44 CURVE SMOOTH",
"159 44 OFFCURVE",
"132 85 OFFCURVE",
"132 136 CURVE SMOOTH",
"132 216 OFFCURVE",
"200 257 OFFCURVE",
"389 310 CURVE",
"382 359 LINE",
"152 300 OFFCURVE",
"72 236 OFFCURVE",
"72 132 CURVE SMOOTH"
);
}
);
width = 534;
},
{
anchors = (
{
name = bottom;
position = "{283, 0}";
},
{
name = ogonek;
position = "{497, 10}";
},
{
name = top;
position = "{273, 500}";
}
);
layerId = "D8D2F0D2-8948-448B-99CD-378CDFD0E0AE";
paths = (
{
closed = 1;
nodes = (
"457 28 OFFCURVE",
"445 80 OFFCURVE",
"445 138 CURVE SMOOTH",
"445 346 LINE SMOOTH",
"445 472 OFFCURVE",
"380 510 OFFCURVE",
"276 510 CURVE SMOOTH",
"166 510 OFFCURVE",
"82 468 OFFCURVE",
"82 421 CURVE SMOOTH",
"82 406 OFFCURVE",
"92 400 OFFCURVE",
"104 400 CURVE SMOOTH",
"140 400 OFFCURVE",
"157 456 OFFCURVE",
"271 456 CURVE SMOOTH",
"342 456 OFFCURVE",
"385 435 OFFCURVE",
"385 345 CURVE SMOOTH",
"385 127 LINE",
"392 108 LINE",
"392 67 OFFCURVE",
"401 21 OFFCURVE",
"410 0 CURVE",
"470 -1 LINE"
);
},
{
closed = 1;
nodes = (
"290 -10 OFFCURVE",
"372 25 OFFCURVE",
"400 119 CURVE",
"385 185 LINE",
"385 96 OFFCURVE",
"304 42 OFFCURVE",
"225 42 CURVE SMOOTH",
"156 42 OFFCURVE",
"130 83 OFFCURVE",
"130 129 CURVE SMOOTH",
"130 204 OFFCURVE",
"199 237 OFFCURVE",
"397 278 CURVE",
"396 331 LINE",
"164 288 OFFCURVE",
"66 230 OFFCURVE",
"66 124 CURVE SMOOTH",
"66 44 OFFCURVE",
"122 -10 OFFCURVE",
"215 -10 CURVE SMOOTH"
);
}
);
width = 544;
},
{
anchors = (
{
name = bottom;
position = "{291, 0}";
},
{
name = ogonek;
position = "{524, 10}";
},
{
name = top;
position = "{291, 500}";
}
);
layerId = "83B83716-1CD1-47ED-B715-8773FED73F88";
name = Black;
paths = (
{
closed = 1;
nodes = (
"564 40 OFFCURVE",
"554 97 OFFCURVE",
"554 181 CURVE SMOOTH",
"554 326 LINE SMOOTH",
"554 472 OFFCURVE",
"426 510 OFFCURVE",
"288 510 CURVE SMOOTH",
"167 510 OFFCURVE",
"4 493 OFFCURVE",
"4 382 CURVE SMOOTH",
"4 330 OFFCURVE",
"40 305 OFFCURVE",
"90 305 CURVE SMOOTH",
"162 305 OFFCURVE",
"219 356 OFFCURVE",
"295 356 CURVE SMOOTH",
"330 356 OFFCURVE",
"338 345 OFFCURVE",
"338 331 CURVE SMOOTH",
"338 143 LINE",
"342 101 LINE",
"343 47 OFFCURVE",
"344 15 OFFCURVE",
"353 -2 CURVE",
"582 0 LINE"
);
},
{
closed = 1;
nodes = (
"258 -10 OFFCURVE",
"326 28 OFFCURVE",
"358 96 CURVE",
"338 213 LINE",
"338 171 OFFCURVE",
"316 142 OFFCURVE",
"278 142 CURVE SMOOTH",
"257 142 OFFCURVE",
"246 151 OFFCURVE",
"246 167 CURVE SMOOTH",
"246 186 OFFCURVE",
"262 195 OFFCURVE",
"349 217 CURVE",
"351 331 LINE",
"114 300 OFFCURVE",
"10 253 OFFCURVE",
"10 134 CURVE SMOOTH",
"10 45 OFFCURVE",
"68 -10 OFFCURVE",
"174 -10 CURVE SMOOTH"
);
}
);
width = 582;
},
{
anchors = (
{
name = bottom;
position = "{283, 0}";
},
{
name = ogonek;
position = "{497, 10}";
},
{
name = top;
position = "{283, 500}";
}
);
associatedMasterId = "D8D2F0D2-8948-448B-99CD-378CDFD0E0AE";
layerId = "177EFA5E-0B73-4A5D-89FF-252970CF8757";
name = "13 juin 25 à 16:09";
paths = (
{
closed = 1;
nodes = (
"457 28 OFFCURVE",
"445 80 OFFCURVE",
"445 138 CURVE SMOOTH",
"445 346 LINE SMOOTH",
"445 472 OFFCURVE",
"380 510 OFFCURVE",
"276 510 CURVE SMOOTH",
"166 510 OFFCURVE",
"82 468 OFFCURVE",
"82 421 CURVE SMOOTH",
"82 406 OFFCURVE",
"92 400 OFFCURVE",
"104 400 CURVE SMOOTH",
"140 400 OFFCURVE",
"157 456 OFFCURVE",
"271 456 CURVE SMOOTH",
"342 456 OFFCURVE",
"385 435 OFFCURVE",
"385 345 CURVE SMOOTH",
"385 127 LINE",
"392 108 LINE",
"392 67 OFFCURVE",
"401 21 OFFCURVE",
"410 0 CURVE",
"470 -1 LINE"
);
},
{
closed = 1;
nodes = (
"290 -10 OFFCURVE",
"372 25 OFFCURVE",
"400 119 CURVE",
"385 185 LINE",
"385 96 OFFCURVE",
"304 42 OFFCURVE",
"225 42 CURVE SMOOTH",
"156 42 OFFCURVE",
"130 83 OFFCURVE",
"130 129 CURVE SMOOTH",
"130 204 OFFCURVE",
"199 247 OFFCURVE",
"397 258 CURVE",
"396 311 LINE",
"164 298 OFFCURVE",
"66 230 OFFCURVE",
"66 124 CURVE SMOOTH",
"66 44 OFFCURVE",
"122 -10 OFFCURVE",
"215 -10 CURVE SMOOTH"
);
}
);
width = 544;
},
{
anchors = (
{
name = bottom;
position = "{291, 0}";
},
{
name = ogonek;
position = "{524, 10}";
},
{
name = top;
position = "{291, 500}";
}
);
associatedMasterId = "83B83716-1CD1-47ED-B715-8773FED73F88";
layerId = "42E47233-3DFD-4EDD-878F-67CE829DBC6B";
name = "13 juin 25 à 16:10";
paths = (
{
closed = 1;
nodes = (
"564 40 OFFCURVE",
"554 97 OFFCURVE",
"554 181 CURVE SMOOTH",
"554 326 LINE SMOOTH",
"554 472 OFFCURVE",
"426 510 OFFCURVE",
"288 510 CURVE SMOOTH",
"167 510 OFFCURVE",
"8 493 OFFCURVE",
"8 382 CURVE SMOOTH",
"8 328 OFFCURVE",
"43 307 OFFCURVE",
"86 307 CURVE SMOOTH",
"150 306 OFFCURVE",
"214 350 OFFCURVE",
"298 350 CURVE SMOOTH",
"326 350 OFFCURVE",
"338 345 OFFCURVE",
"338 331 CURVE SMOOTH",
"338 143 LINE",
"342 101 LINE",
"343 47 OFFCURVE",
"344 15 OFFCURVE",
"353 -2 CURVE",
"582 0 LINE"
);
},
{
closed = 1;
nodes = (
"258 -10 OFFCURVE",
"326 28 OFFCURVE",
"358 96 CURVE",
"338 213 LINE",
"338 171 OFFCURVE",
"316 142 OFFCURVE",
"278 142 CURVE SMOOTH",
"257 142 OFFCURVE",
"246 151 OFFCURVE",
"246 167 CURVE SMOOTH",
"246 192 OFFCURVE",
"274 210 OFFCURVE",
"349 209 CURVE",
"351 323 LINE",
"114 312 OFFCURVE",
"10 253 OFFCURVE",
"10 134 CURVE SMOOTH",
"10 45 OFFCURVE",
"68 -10 OFFCURVE",
"174 -10 CURVE SMOOTH"
);
}
);
width = 582;
},
{
anchors = (
{
name = bottom;
position = "{291, 0}";
},
{
name = ogonek;
position = "{524, 10}";
},
{
name = top;
position = "{291, 500}";
}
);
associatedMasterId = "83B83716-1CD1-47ED-B715-8773FED73F88";
layerId = "14742696-60DF-422A-892B-509B8AAEDF66";
name = "17 juin 25 à 11:41";
paths = (
{
closed = 1;
nodes = (
"558 150 OFFCURVE",
"554 167 OFFCURVE",
"554 211 CURVE SMOOTH",
"554 326 LINE SMOOTH",
"554 472 OFFCURVE",
"426 510 OFFCURVE",
"288 510 CURVE SMOOTH",
"167 510 OFFCURVE",
"4 493 OFFCURVE",
"4 382 CURVE SMOOTH",
"4 330 OFFCURVE",
"40 305 OFFCURVE",
"90 305 CURVE SMOOTH",
"157 305 OFFCURVE",
"218 352 OFFCURVE",
"299 352 CURVE SMOOTH",
"330 352 OFFCURVE",
"338 345 OFFCURVE",
"338 331 CURVE SMOOTH",
"338 143 LINE",
"342 101 LINE",
"361 0 OFFCURVE",
"448 -34 OFFCURVE",
"598 0 CURVE",
"598 160 LINE"
);
},
{
closed = 1;
nodes = (
"258 -10 OFFCURVE",
"326 28 OFFCURVE",
"358 96 CURVE",
"338 213 LINE",
"338 171 OFFCURVE",
"316 142 OFFCURVE",
"278 142 CURVE SMOOTH",
"257 142 OFFCURVE",
"246 151 OFFCURVE",
"246 167 CURVE SMOOTH",
"246 186 OFFCURVE",
"262 197 OFFCURVE",
"349 219 CURVE",
"351 333 LINE",
"114 302 OFFCURVE",
"10 253 OFFCURVE",
"10 134 CURVE SMOOTH",
"10 45 OFFCURVE",
"68 -10 OFFCURVE",
"174 -10 CURVE SMOOTH"
);
}
);
width = 598;
}
);
unicode = 0061;
},
{
glyphname = b;
lastChange = "2025-06-17 09:29:16 +0000";
layers = (
{
components = (
{
name = _panse;
}
);
layerId = "D8D2F0D2-8948-448B-99CD-378CDFD0E0AE";
paths = (
{
closed = 1;
nodes = (
"160 0 LINE",
"160 720 LINE",
"100 720 LINE",
"100 0 LINE"
);
}
);
width = 628;
},
{
components = (
{
name = _panse;
transform = "{1, 0, 0, 1, 88, 0}";
}
);
layerId = "83B83716-1CD1-47ED-B715-8773FED73F88";
paths = (
{
closed = 1;
nodes = (
"244 0 LINE",
"244 720 LINE",
"28 720 LINE",
"28 0 LINE"
);
}
);
width = 598;
},
{
associatedMasterId = "83B83716-1CD1-47ED-B715-8773FED73F88";
layerId = "DACD604C-917F-4D52-9F54-389FDE2B09F7";
name = "17 juin 25 à 11:25";
paths = (
{
closed = 1;
nodes = (
"244 190 LINE",
"244 720 LINE",
"28 720 LINE",
"28 230 LINE"
);
},
{
closed = 1;
nodes = (
"244 264 LINE",
"244 306 OFFCURVE",
"271 323 OFFCURVE",
"297 323 CURVE SMOOTH",
"322 323 OFFCURVE",
"354 307 OFFCURVE",
"354 246 CURVE SMOOTH",
"354 189 OFFCURVE",
"326 167 OFFCURVE",
"296 167 CURVE SMOOTH",
"267 167 OFFCURVE",
"244 188 OFFCURVE",
"244 224 CURVE",
"28 230 LINE",
"28 86 OFFCURVE",
"106 -12 OFFCURVE",
"296 -12 CURVE SMOOTH",
"488 -12 OFFCURVE",
"582 89 OFFCURVE",
"582 250 CURVE SMOOTH",
"582 416 OFFCURVE",
"485 508 OFFCURVE",
"378 508 CURVE SMOOTH",
"310 508 OFFCURVE",
"252 472 OFFCURVE",
"224 394 CURVE"
);
}
);
width = 598;
},
{
associatedMasterId = "D8D2F0D2-8948-448B-99CD-378CDFD0E0AE";
layerId = "0650345C-DE5B-4670-877A-749626198E95";
name = "17 juin 25 à 11:27";
paths = (
{
closed = 1;
nodes = (
"160 170 LINE",
"160 720 LINE",
"100 720 LINE",
"100 205 LINE"
);
},
{
closed = 1;
nodes = (
"160 315 LINE",
"160 406 OFFCURVE",
"239 454 OFFCURVE",
"316 454 CURVE SMOOTH",
"392 454 OFFCURVE",
"498 407 OFFCURVE",
"498 247 CURVE SMOOTH",
"498 107 OFFCURVE",
"418 44 OFFCURVE",
"323 44 CURVE SMOOTH",
"247 44 OFFCURVE",
"160 84 OFFCURVE",
"160 205 CURVE",
"100 205 LINE",
"100 68 OFFCURVE",
"184 -12 OFFCURVE",
"323 -12 CURVE SMOOTH",
"482 -12 OFFCURVE",
"562 92 OFFCURVE",
"562 247 CURVE SMOOTH",
"562 438 OFFCURVE",
"438 510 OFFCURVE",
"333 510 CURVE SMOOTH",
"255 510 OFFCURVE",
"174 472 OFFCURVE",
"136 374 CURVE"
);
}
);
width = 628;
}
);
leftMetricsKey = "=n";
rightMetricsKey = "=o";
unicode = 0062;
},
{
glyphname = c;
lastChange = "2025-06-16 15:17:32 +0000";
layers = (
{
anchors = (
{
name = bottom;
position = "{324, 0}";
},
{
name = top;
position = "{264, 500}";
}
);
layerId = "D8D2F0D2-8948-448B-99CD-378CDFD0E0AE";
paths = (
{
closed = 1;
nodes = (
"472 458 OFFCURVE",
"404 510 OFFCURVE",
"305 510 CURVE SMOOTH",
"164 510 OFFCURVE",
"66 404 OFFCURVE",
"66 240 CURVE SMOOTH",
"66 83 OFFCURVE",
"157 -10 OFFCURVE",
"308 -10 CURVE SMOOTH",
"378 -10 OFFCURVE",
"430 11 OFFCURVE",
"466 35 CURVE",
"466 89 LINE",
"409 56 OFFCURVE",
"361 42 OFFCURVE",
"311 42 CURVE SMOOTH",
"194 42 OFFCURVE",
"126 114 OFFCURVE",
"126 242 CURVE SMOOTH",
"126 376 OFFCURVE",
"196 458 OFFCURVE",
"306 458 CURVE SMOOTH",
"414 458 OFFCURVE",
"410 376 OFFCURVE",
"451 376 CURVE SMOOTH",
"462 376 OFFCURVE",
"472 382 OFFCURVE",
"472 403 CURVE SMOOTH"
);
}
);
width = 508;
},
{
anchors = (
{
name = bottom;
position = "{270, 0}";
},
{
name = top;
position = "{270, 520}";
}
);
layerId = "83B83716-1CD1-47ED-B715-8773FED73F88";
paths = (
{
closed = 1;
nodes = (
"534 470 OFFCURVE",
"417 512 OFFCURVE",
"304 512 CURVE SMOOTH",
"127 512 OFFCURVE",
"16 408 OFFCURVE",
"16 239 CURVE SMOOTH",
"16 79 OFFCURVE",
"117 -12 OFFCURVE",
"303 -12 CURVE SMOOTH",
"392 -12 OFFCURVE",
"463 9 OFFCURVE",
"508 37 CURVE",
"508 205 LINE",
"453 185 OFFCURVE",
"398 176 OFFCURVE",
"356 176 CURVE SMOOTH",
"267 176 OFFCURVE",
"252 219 OFFCURVE",
"252 263 CURVE SMOOTH",
"252 308 OFFCURVE",
"268 334 OFFCURVE",
"293 334 CURVE SMOOTH",
"335 334 OFFCURVE",
"349 260 OFFCURVE",
"430 260 CURVE SMOOTH",
"484 260 OFFCURVE",
"534 293 OFFCURVE",
"534 364 CURVE SMOOTH"
);
}
);
width = 540;
},
{
associatedMasterId = "D8D2F0D2-8948-448B-99CD-378CDFD0E0AE";
layerId = "4F3882DD-CD2B-4CE6-8882-E1F2A09F659C";
name = "Sep 11 21, 15:52";
paths = (
{
closed = 1;
nodes = (
"428 463 OFFCURVE",
"363 510 OFFCURVE",
"270 510 CURVE SMOOTH",
"121 510 OFFCURVE",
"46 388 OFFCURVE",
"46 237 CURVE SMOOTH",
"46 52 OFFCURVE",
"154 -10 OFFCURVE",
"265 -10 CURVE SMOOTH",
"376 -10 OFFCURVE",
"436 52 OFFCURVE",
"458 122 CURVE",
"407 139 LINE",
"388 89 OFFCURVE",
"347 42 OFFCURVE",
"266 42 CURVE SMOOTH",
"188 42 OFFCURVE",
"106 85 OFFCURVE",
"106 243 CURVE SMOOTH",
"106 387 OFFCURVE",
"175 458 OFFCURVE",
"268 458 CURVE SMOOTH",
"322 458 OFFCURVE",
"380 433 OFFCURVE",
"399 349 CURVE",
"454 368 LINE"
);
}
);
width = 518;
},
{
associatedMasterId = "83B83716-1CD1-47ED-B715-8773FED73F88";
layerId = "2CBB3263-9784-4C48-AE01-DCE386C751C9";
name = "5 juin 25 à 12:35";
paths = (
{
closed = 1;
nodes = (
"550 470 OFFCURVE",
"433 510 OFFCURVE",
"314 510 CURVE SMOOTH",
"133 510 OFFCURVE",
"22 408 OFFCURVE",
"22 239 CURVE SMOOTH",
"22 79 OFFCURVE",
"123 -10 OFFCURVE",
"306 -10 CURVE SMOOTH",
"446 -10 OFFCURVE",
"552 38 OFFCURVE",
"552 129 CURVE SMOOTH",
"552 240 OFFCURVE",
"394 247 OFFCURVE",
"356 207 CURVE SMOOTH",
"338 188 OFFCURVE",
"326 176 OFFCURVE",
"304 176 CURVE SMOOTH",
"273 176 OFFCURVE",
"258 199 OFFCURVE",
"258 248 CURVE SMOOTH",
"258 298 OFFCURVE",
"274 324 OFFCURVE",
"305 324 CURVE SMOOTH",
"321 324 OFFCURVE",
"333 317 OFFCURVE",
"343 301 CURVE SMOOTH",
"391 224 OFFCURVE",
"550 246 OFFCURVE",
"550 368 CURVE SMOOTH"
);
}
);
width = 556;
},
{
associatedMasterId = "D8D2F0D2-8948-448B-99CD-378CDFD0E0AE";
layerId = "13DA5124-1501-4532-BF0D-AFA655CB172B";
name = "5 juin 25 à 12:40";
paths = (
{
closed = 1;
nodes = (
"452 448 OFFCURVE",
"384 510 OFFCURVE",
"280 510 CURVE SMOOTH",
"144 510 OFFCURVE",
"56 404 OFFCURVE",
"56 240 CURVE SMOOTH",
"56 83 OFFCURVE",
"137 -10 OFFCURVE",
"273 -10 CURVE SMOOTH",
"391 -10 OFFCURVE",
"455 53 OFFCURVE",
"455 99 CURVE SMOOTH",
"455 128 OFFCURVE",
"429 133 OFFCURVE",
"405 100 CURVE SMOOTH",
"376 61 OFFCURVE",
"328 42 OFFCURVE",
"274 42 CURVE SMOOTH",
"174 42 OFFCURVE",
"116 114 OFFCURVE",
"116 242 CURVE SMOOTH",
"116 376 OFFCURVE",
"180 458 OFFCURVE",
"280 458 CURVE SMOOTH",
"331 458 OFFCURVE",
"377 436 OFFCURVE",
"402 384 CURVE SMOOTH",
"418 349 OFFCURVE",
"452 354 OFFCURVE",
"452 393 CURVE SMOOTH"
);
}
);
width = 528;
}
);
leftMetricsKey = "=o";
unicode = 0063;
},
{
glyphname = d;
lastChange = "2025-06-13 10:56:40 +0000";
layers = (
{
components = (
{
name = _panse;
transform = "{-1, 0, 0, -1, 628, 500}";
}
);
layerId = "D8D2F0D2-8948-448B-99CD-378CDFD0E0AE";
paths = (
{
closed = 1;
nodes = (
"468 720 LINE",
"468 0 LINE",
"528 0 LINE",
"528 720 LINE"
);
}
);
width = 628;
},
{
components = (
{
name = _panse;
transform = "{-1, 0, 0, -1, 510, 500}";
}
);
layerId = "83B83716-1CD1-47ED-B715-8773FED73F88";
paths = (
{
closed = 1;
nodes = (
"354 720 LINE",
"354 0 LINE",
"570 0 LINE",
"570 720 LINE"
);
}
);
width = 598;
}
);
leftMetricsKey = "=o";
rightMetricsKey = "=|n";
unicode = 0064;
},
{
glyphname = e;
lastChange = "2025-06-17 13:16:31 +0000";
layers = (
{
anchors = (
{
name = bottom;
position = "{285, 0}";
},
{
name = ogonek;
position = "{497, 10}";
},
{
name = top;
position = "{285, 500}";
}
);
layerId = "D8D2F0D2-8948-448B-99CD-378CDFD0E0AE";
paths = (
{
closed = 1;
nodes = (
"382 -10 OFFCURVE",
"442 11 OFFCURVE",
"478 35 CURVE",
"478 89 LINE",
"421 56 OFFCURVE",
"365 42 OFFCURVE",
"313 42 CURVE SMOOTH",
"194 42 OFFCURVE",
"126 114 OFFCURVE",
"126 245 CURVE SMOOTH",
"126 376 OFFCURVE",
"198 458 OFFCURVE",
"300 458 CURVE SMOOTH",
"388 458 OFFCURVE",
"442 397 OFFCURVE",
"442 302 CURVE",
"99 302 LINE",
"99 252 LINE",
"445 252 LINE SMOOTH",
"491 252 OFFCURVE",
"500 261 OFFCURVE",
"500 304 CURVE SMOOTH",
"500 422 OFFCURVE",
"429 510 OFFCURVE",
"303 510 CURVE SMOOTH",
"164 510 OFFCURVE",
"66 404 OFFCURVE",
"66 240 CURVE SMOOTH",
"66 83 OFFCURVE",
"157 -10 OFFCURVE",
"310 -10 CURVE SMOOTH"
);
}
);
width = 550;
},
{
associatedMasterId = "D8D2F0D2-8948-448B-99CD-378CDFD0E0AE";
layerId = "55CBF1DD-922D-4222-B261-0AAB4C75428E";
name = "Sep 11 21, 15:53";
paths = (
{
closed = 1;
nodes = (
"384 89 OFFCURVE",
"343 42 OFFCURVE",
"262 42 CURVE SMOOTH",
"184 42 OFFCURVE",
"102 85 OFFCURVE",
"102 243 CURVE SMOOTH",
"102 387 OFFCURVE",
"171 458 OFFCURVE",
"264 458 CURVE SMOOTH",
"330 458 OFFCURVE",
"400 421 OFFCURVE",
"400 292 CURVE",
"461 242 LINE",
"469 421 OFFCURVE",
"394 510 OFFCURVE",
"266 510 CURVE SMOOTH",
"117 510 OFFCURVE",
"42 388 OFFCURVE",
"42 237 CURVE SMOOTH",
"42 52 OFFCURVE",
"150 -10 OFFCURVE",
"261 -10 CURVE SMOOTH",
"372 -10 OFFCURVE",
"432 52 OFFCURVE",
"454 122 CURVE",
"403 139 LINE"
);
},
{
closed = 1;
nodes = (
"75 242 LINE",
"461 242 LINE",
"421 292 LINE",
"75 292 LINE"
);
}
);
width = 516;
},
{
associatedMasterId = "D8D2F0D2-8948-448B-99CD-378CDFD0E0AE";
layerId = "1DD948A4-6013-4B0D-A909-9A51D4833915";
name = "5 juin 25 à 12:40";
paths = (
{
closed = 1;
nodes = (
"398 -10 OFFCURVE",
"457 40 OFFCURVE",
"457 75 CURVE SMOOTH",
"457 97 OFFCURVE",
"434 101 OFFCURVE",
"413 83 CURVE SMOOTH",
"383 57 OFFCURVE",
"341 42 OFFCURVE",
"290 42 CURVE SMOOTH",
"180 42 OFFCURVE",
"116 114 OFFCURVE",
"116 245 CURVE SMOOTH",
"116 376 OFFCURVE",
"178 458 OFFCURVE",
"278 458 CURVE SMOOTH",
"364 458 OFFCURVE",
"414 397 OFFCURVE",
"414 302 CURVE",
"475 252 LINE",
"483 414 OFFCURVE",
"412 510 OFFCURVE",
"281 510 CURVE SMOOTH",
"144 510 OFFCURVE",
"56 404 OFFCURVE",
"56 240 CURVE SMOOTH",
"56 83 OFFCURVE",
"140 -10 OFFCURVE",
"288 -10 CURVE SMOOTH"
);
},
{
closed = 1;
nodes = (
"475 252 LINE",
"435 302 LINE",
"89 302 LINE",
"89 252 LINE"
);
}
);
width = 530;
},
{
associatedMasterId = "83B83716-1CD1-47ED-B715-8773FED73F88";
layerId = "49AD3F3A-8E21-4B81-9D66-388C5530FD1E";
name = "5 juin 25 à 12:43";
paths = (
{
closed = 1;
nodes = (
"448 -10 OFFCURVE",
"548 34 OFFCURVE",
"548 116 CURVE SMOOTH",
"548 171 OFFCURVE",
"503 194 OFFCURVE",
"430 169 CURVE SMOOTH",
"404 160 OFFCURVE",
"373 152 OFFCURVE",
"336 152 CURVE SMOOTH",
"258 152 OFFCURVE",
"242 186 OFFCURVE",
"242 260 CURVE SMOOTH",
"242 334 OFFCURVE",
"257 369 OFFCURVE",
"300 369 CURVE SMOOTH",
"327 369 OFFCURVE",
"343 355 OFFCURVE",
"349 324 CURVE",
"95 324 LINE",
"95 198 LINE",
"563 198 LINE",
"584 379 OFFCURVE",
"497 510 OFFCURVE",
"296 510 CURVE SMOOTH",
"118 510 OFFCURVE",
"16 408 OFFCURVE",
"16 249 CURVE SMOOTH",
"16 79 OFFCURVE",
"130 -10 OFFCURVE",
"306 -10 CURVE SMOOTH"
);
}
);
width = 574;
},
{
anchors = (
{
name = bottom;
position = "{287, 0}";
},
{
name = ogonek;
position = "{517, 10}";
},
{
name = top;
position = "{287, 500}";
}
);
layerId = "83B83716-1CD1-47ED-B715-8773FED73F88";
name = Black;
paths = (
{
closed = 1;
nodes = (
"405 -12 OFFCURVE",
"484 7 OFFCURVE",
"537 41 CURVE",
"537 189 LINE",
"474 160 OFFCURVE",
"413 152 OFFCURVE",
"361 152 CURVE SMOOTH",
"258 152 OFFCURVE",
"242 186 OFFCURVE",
"242 260 CURVE SMOOTH",
"242 334 OFFCURVE",
"257 369 OFFCURVE",
"300 369 CURVE SMOOTH",
"327 369 OFFCURVE",
"343 355 OFFCURVE",
"349 324 CURVE",
"95 324 LINE",
"95 198 LINE",
"373 198 LINE SMOOTH",
"499 198 OFFCURVE",
"566 227 OFFCURVE",
"566 315 CURVE SMOOTH",
"566 416 OFFCURVE",
"478 512 OFFCURVE",
"302 512 CURVE SMOOTH",
"118 512 OFFCURVE",
"16 408 OFFCURVE",
"16 249 CURVE SMOOTH",
"16 79 OFFCURVE",
"130 -12 OFFCURVE",
"321 -12 CURVE SMOOTH"
);
}
);
width = 574;
},
{
associatedMasterId = "D8D2F0D2-8948-448B-99CD-378CDFD0E0AE";
layerId = "67D4B5DC-9AC5-4997-B9C7-8B15912EDE9E";
name = "6 juin 25 à 17:29";
paths = (
{
closed = 1;
nodes = (
"366 -10 OFFCURVE",
"415 11 OFFCURVE",
"446 35 CURVE",
"446 89 LINE",
"394 56 OFFCURVE",
"349 42 OFFCURVE",
"297 42 CURVE SMOOTH",
"180 42 OFFCURVE",
"116 114 OFFCURVE",
"116 245 CURVE SMOOTH",
"116 376 OFFCURVE",
"178 458 OFFCURVE",
"276 458 CURVE SMOOTH",
"335 458 OFFCURVE",
"374 429 OFFCURVE",
"374 384 CURVE SMOOTH",
"374 324 OFFCURVE",
"303 283 OFFCURVE",
"89 216 CURVE",
"89 166 LINE",
"344 246 OFFCURVE",
"432 295 OFFCURVE",
"432 384 CURVE SMOOTH",
"432 455 OFFCURVE",
"376 510 OFFCURVE",
"279 510 CURVE SMOOTH",
"144 510 OFFCURVE",
"56 404 OFFCURVE",
"56 240 CURVE SMOOTH",
"56 83 OFFCURVE",
"140 -10 OFFCURVE",
"293 -10 CURVE SMOOTH"
);
}
);
width = 530;
},
{
associatedMasterId = "83B83716-1CD1-47ED-B715-8773FED73F88";
layerId = "6DBB2F8F-F205-421F-A736-5F2D25AE29CC";
name = "6 juin 25 à 17:32";
paths = (
{
closed = 1;
nodes = (
"405 -10 OFFCURVE",
"484 7 OFFCURVE",
"537 41 CURVE",
"537 189 LINE",
"474 160 OFFCURVE",
"413 152 OFFCURVE",
"361 152 CURVE SMOOTH",
"258 152 OFFCURVE",
"242 186 OFFCURVE",
"242 260 CURVE SMOOTH",
"242 334 OFFCURVE",
"264 369 OFFCURVE",
"310 369 CURVE SMOOTH",
"332 369 OFFCURVE",
"345 361 OFFCURVE",
"345 347 CURVE SMOOTH",
"345 311 OFFCURVE",
"257 305 OFFCURVE",
"95 286 CURVE",
"95 158 LINE",
"242 168 OFFCURVE",
"566 172 OFFCURVE",
"566 340 CURVE SMOOTH",
"566 426 OFFCURVE",
"478 510 OFFCURVE",
"302 510 CURVE SMOOTH",
"118 510 OFFCURVE",
"16 408 OFFCURVE",
"16 249 CURVE SMOOTH",
"16 79 OFFCURVE",
"130 -10 OFFCURVE",
"321 -10 CURVE SMOOTH"
);
}
);
width = 574;
}
);
leftMetricsKey = "=o";
unicode = 0065;
},
{
glyphname = f;
lastChange = "2025-06-16 15:30:27 +0000";
layers = (
{
associatedMasterId = "83B83716-1CD1-47ED-B715-8773FED73F88";
layerId = "C93238E8-BFC3-43BE-BC26-8CE0D935A520";
name = "5 juin 25 à 12:51";
paths = (
{
closed = 1;
nodes = (
"10 330 LINE",
"327 330 LINE SMOOTH",
"414 330 OFFCURVE",
"414 500 OFFCURVE",
"327 500 CURVE SMOOTH",
"10 500 LINE"
);
},
{
closed = 1;
nodes = (
"278 0 LINE",
"278 516 LINE SMOOTH",
"278 548 OFFCURVE",
"290 561 OFFCURVE",
"321 561 CURVE SMOOTH",
"375 561 OFFCURVE",
"392 587 OFFCURVE",
"392 632 CURVE SMOOTH",
"392 711 OFFCURVE",
"338 749 OFFCURVE",
"259 749 CURVE SMOOTH",
"153 749 OFFCURVE",
"62 679 OFFCURVE",
"62 520 CURVE SMOOTH",
"62 0 LINE"
);
}
);
width = 376;
},
{
associatedMasterId = "83B83716-1CD1-47ED-B715-8773FED73F88";
layerId = "CE1D1A3F-38DD-452B-B19F-4F4C40C3E7E5";
name = "10 juin 25 à 10:14";
paths = (
{
closed = 1;
nodes = (
"10 330 LINE",
"376 330 LINE",
"376 500 LINE",
"10 500 LINE"
);
},
{
closed = 1;
nodes = (
"278 0 LINE",
"278 516 LINE SMOOTH",
"278 548 OFFCURVE",
"290 561 OFFCURVE",
"321 561 CURVE SMOOTH",
"375 561 OFFCURVE",
"392 587 OFFCURVE",
"392 632 CURVE SMOOTH",
"392 711 OFFCURVE",
"338 749 OFFCURVE",
"259 749 CURVE SMOOTH",
"153 749 OFFCURVE",
"62 679 OFFCURVE",
"62 520 CURVE SMOOTH",
"62 0 LINE"
);
}
);
width = 386;
},
{
associatedMasterId = "D8D2F0D2-8948-448B-99CD-378CDFD0E0AE";
layerId = "F21B4E4C-ABEE-47C6-A5F7-38048B1CC6B5";
name = "13 juin 25 à 12:22";
paths = (
{
closed = 1;
nodes = (
"180 0 LINE",
"180 600 LINE SMOOTH",
"180 666 OFFCURVE",
"214 691 OFFCURVE",
"263 691 CURVE SMOOTH",
"289 691 OFFCURVE",
"312 684 OFFCURVE",
"327 684 CURVE SMOOTH",
"342 684 OFFCURVE",
"350 691 OFFCURVE",
"350 705 CURVE SMOOTH",
"350 731 OFFCURVE",
"321 746 OFFCURVE",
"272 746 CURVE SMOOTH",
"179 746 OFFCURVE",
"120 693 OFFCURVE",
"120 600 CURVE SMOOTH",
"120 0 LINE"
);
},
{
closed = 1;
nodes = (
"340 446 LINE",
"340 500 LINE",
"30 500 LINE",
"30 446 LINE"
);
}
);
width = 360;
},
{
layerId = "D8D2F0D2-8948-448B-99CD-378CDFD0E0AE";
name = Thin;
paths = (
{
closed = 1;
nodes = (
"170 0 LINE",
"170 586 LINE SMOOTH",
"170 652 OFFCURVE",
"204 677 OFFCURVE",
"253 677 CURVE SMOOTH",
"279 677 OFFCURVE",
"302 670 OFFCURVE",
"317 670 CURVE SMOOTH",
"332 670 OFFCURVE",
"340 677 OFFCURVE",
"340 691 CURVE SMOOTH",
"340 717 OFFCURVE",
"311 732 OFFCURVE",
"262 732 CURVE SMOOTH",
"169 732 OFFCURVE",
"110 679 OFFCURVE",
"110 586 CURVE SMOOTH",
"110 0 LINE"
);
},
{
closed = 1;
nodes = (
"330 446 LINE",
"330 500 LINE",
"120 500 LINE",
"120 446 LINE"
);
},
{
closed = 1;
nodes = (
"110 507 LINE",
"61 496 LINE SMOOTH",
"35 490 OFFCURVE",
"30 478 OFFCURVE",
"30 469 CURVE SMOOTH",
"30 457 OFFCURVE",
"38 446 OFFCURVE",
"61 446 CURVE SMOOTH",
"110 446 LINE"
);
}
);
width = 352;
},
{
associatedMasterId = "83B83716-1CD1-47ED-B715-8773FED73F88";
layerId = "84E5B337-EF0C-4F8E-90AD-558E0DB4A194";
name = "13 juin 25 à 12:22";
paths = (
{
closed = 1;
nodes = (
"294 0 LINE",
"294 522 LINE SMOOTH",
"294 548 OFFCURVE",
"300 557 OFFCURVE",
"320 557 CURVE SMOOTH",
"325 557 OFFCURVE",
"330 557 OFFCURVE",
"335 557 CURVE SMOOTH",
"384 557 OFFCURVE",
"414 587 OFFCURVE",
"414 638 CURVE SMOOTH",
"414 711 OFFCURVE",
"354 752 OFFCURVE",
"276 752 CURVE SMOOTH",
"169 752 OFFCURVE",
"78 679 OFFCURVE",
"78 520 CURVE SMOOTH",
"78 0 LINE"
);
},
{
closed = 1;
nodes = (
"404 330 LINE",
"404 500 LINE",
"18 500 LINE",
"18 330 LINE"
);
}
);
width = 402;
},
{
layerId = "83B83716-1CD1-47ED-B715-8773FED73F88";
name = Black;
paths = (
{
closed = 1;
nodes = (
"304 0 LINE",
"304 514 LINE SMOOTH",
"304 534 OFFCURVE",
"311 543 OFFCURVE",
"327 543 CURVE SMOOTH",
"338 543 OFFCURVE",
"346 539 OFFCURVE",
"362 539 CURVE SMOOTH",
"406 539 OFFCURVE",
"430 569 OFFCURVE",
"430 616 CURVE SMOOTH",
"430 693 OFFCURVE",
"364 732 OFFCURVE",
"286 732 CURVE SMOOTH",
"179 732 OFFCURVE",
"88 659 OFFCURVE",
"88 512 CURVE SMOOTH",
"88 0 LINE"
);
},
{
closed = 1;
nodes = (
"414 330 LINE",
"414 500 LINE",
"128 500 LINE",
"128 330 LINE"
);
},
{
closed = 1;
nodes = (
"88 509 LINE",
"69 501 LINE SMOOTH",
"28 484 OFFCURVE",
"6 457 OFFCURVE",
"6 414 CURVE SMOOTH",
"6 359 OFFCURVE",
"42 330 OFFCURVE",
"86 330 CURVE SMOOTH",
"88 330 LINE"
);
}
);
width = 434;
}
);
unicode = 0066;
},
{
glyphname = g;
lastChange = "2025-06-13 12:15:48 +0000";
layers = (
{
background = {
components = (
{
name = _panse;
transform = "{-1, 0, 0, -1, 510, 500}";
}
);
paths = (
{
closed = 1;
nodes = (
"354 500 LINE",
"354 -200 LINE",
"570 -200 LINE",
"570 500 LINE"
);
}
);
};
components = (
{
name = _panse;
transform = "{-1, 0, 0, -1, 510, 500}";
}
);
layerId = "83B83716-1CD1-47ED-B715-8773FED73F88";
paths = (
{
closed = 1;
nodes = (
"172 -40 OFFCURVE",
"150 -21 OFFCURVE",
"113 -21 CURVE SMOOTH",
"67 -21 OFFCURVE",
"39 -52 OFFCURVE",
"39 -99 CURVE SMOOTH",
"39 -170 OFFCURVE",
"104 -210 OFFCURVE",
"266 -210 CURVE SMOOTH",
"457 -210 OFFCURVE",
"570 -154 OFFCURVE",
"570 41 CURVE SMOOTH",
"570 500 LINE",
"354 500 LINE",
"354 51 LINE SMOOTH",
"354 -11 OFFCURVE",
"315 -40 OFFCURVE",
"236 -40 CURVE SMOOTH"
);
}
);
width = 598;
},
{
components = (
{
name = _panse;
transform = "{-1, 0, 0, -1, 628, 500}";
}
);
layerId = "D8D2F0D2-8948-448B-99CD-378CDFD0E0AE";
paths = (
{
closed = 1;
nodes = (
"190 -156 OFFCURVE",
"165 -114 OFFCURVE",
"128 -114 CURVE SMOOTH",
"109 -114 OFFCURVE",
"102 -126 OFFCURVE",
"102 -138 CURVE SMOOTH",
"102 -176 OFFCURVE",
"176 -212 OFFCURVE",
"295 -212 CURVE SMOOTH",
"449 -212 OFFCURVE",
"528 -150 OFFCURVE",
"528 -3 CURVE SMOOTH",
"528 500 LINE",
"468 500 LINE",
"468 -5 LINE SMOOTH",
"468 -125 OFFCURVE",
"388 -156 OFFCURVE",
"295 -156 CURVE SMOOTH"
);
}
);
width = 628;
},
{
associatedMasterId = "83B83716-1CD1-47ED-B715-8773FED73F88";
background = {
components = (
{
name = _panse;
transform = "{-1, 0, 0, -1, 508, 500}";
}
);
paths = (
{
closed = 1;
nodes = (
"352 500 LINE",
"352 -200 LINE",
"568 -200 LINE",
"568 500 LINE"
);
}
);
};
layerId = "5B84672D-9521-4257-AB08-A6C31E28F3A9";
name = "13 juin 25 à 12:49";
paths = (
{
closed = 1;
nodes = (
"148 -21 OFFCURVE",
"111 -21 CURVE SMOOTH",
"65 -21 OFFCURVE",
"37 -52 OFFCURVE",
"37 -99 CURVE SMOOTH",
"37 -170 OFFCURVE",
"102 -210 OFFCURVE",
"250 -210 CURVE SMOOTH",
"415 -210 OFFCURVE",
"568 -154 OFFCURVE",
"568 41 CURVE SMOOTH",
"568 480 LINE",
"352 500 LINE",
"352 51 LINE SMOOTH",
"352 -11 OFFCURVE",
"313 -40 OFFCURVE",
"234 -40 CURVE SMOOTH",
"170 -40 OFFCURVE"
);
},
{
closed = 1;
nodes = (
"352 237 LINE",
"352 196 OFFCURVE",
"327 177 OFFCURVE",
"299 177 CURVE SMOOTH",
"267 177 OFFCURVE",
"244 201 OFFCURVE",
"244 243 CURVE SMOOTH",
"244 298 OFFCURVE",
"285 325 OFFCURVE",
"328 325 CURVE SMOOTH",
"354 325 OFFCURVE",
"382 316 OFFCURVE",
"410 297 CURVE",
"568 480 LINE",
"490 498 OFFCURVE",
"409 508 OFFCURVE",
"338 508 CURVE SMOOTH",
"108 508 OFFCURVE",
"16 401 OFFCURVE",
"16 234 CURVE SMOOTH",
"16 64 OFFCURVE",
"123 -8 OFFCURVE",
"224 -8 CURVE SMOOTH",
"296 -8 OFFCURVE",
"344 28 OFFCURVE",
"372 106 CURVE"
);
}
);
width = 592;
},
{
associatedMasterId = "D8D2F0D2-8948-448B-99CD-378CDFD0E0AE";
layerId = "910B8762-DF4F-41E2-B2FC-9F357CAFE1B9";
name = "13 juin 25 à 12:50";
paths = (
{
closed = 1;
nodes = (
"155 -116 OFFCURVE",
"120 -116 CURVE SMOOTH",
"101 -116 OFFCURVE",
"95 -129 OFFCURVE",
"95 -140 CURVE SMOOTH",
"95 -176 OFFCURVE",
"160 -210 OFFCURVE",
"277 -210 CURVE SMOOTH",
"433 -210 OFFCURVE",
"520 -150 OFFCURVE",
"520 -5 CURVE SMOOTH",
"520 478 LINE",
"460 490 LINE",
"460 -5 LINE SMOOTH",
"460 -125 OFFCURVE",
"370 -156 OFFCURVE",
"282 -156 CURVE SMOOTH",
"182 -156 OFFCURVE"
);
},
{
closed = 1;
nodes = (
"460 185 LINE",
"460 94 OFFCURVE",
"381 46 OFFCURVE",
"304 46 CURVE SMOOTH",
"228 46 OFFCURVE",
"130 93 OFFCURVE",
"130 240 CURVE SMOOTH",
"130 393 OFFCURVE",
"232 452 OFFCURVE",
"354 452 CURVE SMOOTH",
"393 452 OFFCURVE",
"454 445 OFFCURVE",
"504 424 CURVE",
"520 478 LINE",
"455 500 OFFCURVE",
"386 504 OFFCURVE",
"353 504 CURVE SMOOTH",
"174 504 OFFCURVE",
"66 398 OFFCURVE",
"66 237 CURVE SMOOTH",
"66 62 OFFCURVE",
"182 -10 OFFCURVE",
"288 -10 CURVE SMOOTH",
"365 -10 OFFCURVE",
"446 28 OFFCURVE",
"484 136 CURVE"
);
}
);
width = 620;
}
);
leftMetricsKey = "=o";
rightMetricsKey = "=|n";
unicode = 0067;
},
{
glyphname = h;
lastChange = "2025-06-17 10:09:14 +0000";
layers = (
{
layerId = "D8D2F0D2-8948-448B-99CD-378CDFD0E0AE";
paths = (
{
closed = 1;
nodes = (
"512 0 LINE",
"512 310 LINE SMOOTH",
"512 451 OFFCURVE",
"428 510 OFFCURVE",
"334 510 CURVE SMOOTH",
"259 510 OFFCURVE",
"174 472 OFFCURVE",
"136 374 CURVE",
"160 315 LINE",
"160 406 OFFCURVE",
"237 454 OFFCURVE",
"315 454 CURVE SMOOTH",
"387 454 OFFCURVE",
"452 413 OFFCURVE",
"452 303 CURVE SMOOTH",
"452 0 LINE"
);
},
{
closed = 1;
nodes = (
"160 0 LINE",
"160 720 LINE",
"100 720 LINE",
"100 0 LINE"
);
}
);
width = 602;
},
{
layerId = "83B83716-1CD1-47ED-B715-8773FED73F88";
paths = (
{
closed = 1;
nodes = (
"244 0 LINE",
"244 720 LINE",
"28 720 LINE",
"28 0 LINE"
);
},
{
closed = 1;
nodes = (
"554 0 LINE",
"554 288 LINE SMOOTH",
"554 453 OFFCURVE",
"472 510 OFFCURVE",
"377 510 CURVE SMOOTH",
"299 510 OFFCURVE",
"252 472 OFFCURVE",
"224 394 CURVE",
"244 241 LINE",
"244 284 OFFCURVE",
"270 308 OFFCURVE",
"296 308 CURVE SMOOTH",
"318 308 OFFCURVE",
"338 291 OFFCURVE",
"338 253 CURVE SMOOTH",
"338 0 LINE"
);
}
);
width = 576;
}
);
leftMetricsKey = "=n";
rightMetricsKey = "=n";
unicode = 0068;
},
{
glyphname = idotless;
lastChange = "2025-06-05 08:43:36 +0000";
layers = (
{
anchors = (
{
name = bottom;
position = "{130, 0}";
},
{
name = ogonek;
position = "{234, 10}";
},
{
name = top;
position = "{130, 500}";
}
);
layerId = "D8D2F0D2-8948-448B-99CD-378CDFD0E0AE";
paths = (
{
closed = 1;
nodes = (
"160 0 LINE",
"160 500 LINE",
"140 500 OFFCURVE",
"120 500 OFFCURVE",
"100 500 CURVE",
"100 0 LINE"
);
}
);
width = 260;
},
{
anchors = (
{
name = bottom;
position = "{148, 0}";
},
{
name = ogonek;
position = "{148, 0}";
},
{
name = top;
position = "{148, 500}";
}
);
layerId = "83B83716-1CD1-47ED-B715-8773FED73F88";
paths = (
{
closed = 1;
nodes = (
"256 0 LINE",
"256 506 LINE",
"184 482 OFFCURVE",
"112 482 OFFCURVE",
"40 506 CURVE",
"40 0 LINE"
);
}
);
width = 286;
}
);
leftMetricsKey = "=n";
rightMetricsKey = "=|";
unicode = 0131;
},
{
glyphname = jdotless;
lastChange = "2025-06-05 09:39:06 +0000";
layers = (
{
anchors = (
{
name = top;
position = "{130, 500}";
}
);
layerId = "D8D2F0D2-8948-448B-99CD-378CDFD0E0AE";
paths = (
{
closed = 1;
nodes = (
"140 500 OFFCURVE",
"120 500 OFFCURVE",
"100 500 CURVE",
"100 -54 LINE SMOOTH",
"100 -120 OFFCURVE",
"69 -145 OFFCURVE",
"20 -145 CURVE SMOOTH",
"-13 -145 OFFCURVE",
"-48 -131 OFFCURVE",
"-48 -159 CURVE SMOOTH",
"-48 -185 OFFCURVE",
"-19 -200 OFFCURVE",
"25 -200 CURVE SMOOTH",
"107 -200 OFFCURVE",
"160 -147 OFFCURVE",
"160 -54 CURVE SMOOTH",
"160 500 LINE"
);
}
);
width = 260;
},
{
anchors = (
{
name = top;
position = "{132, 500}";
}
);
layerId = "83B83716-1CD1-47ED-B715-8773FED73F88";
paths = (
{
closed = 1;
nodes = (
"168 482 OFFCURVE",
"96 482 OFFCURVE",
"24 506 CURVE",
"24 23 LINE SMOOTH",
"24 -9 OFFCURVE",
"12 -22 OFFCURVE",
"-19 -22 CURVE SMOOTH",
"-73 -22 OFFCURVE",
"-90 -48 OFFCURVE",
"-90 -93 CURVE SMOOTH",
"-90 -172 OFFCURVE",
"-36 -210 OFFCURVE",
"43 -210 CURVE SMOOTH",
"149 -210 OFFCURVE",
"240 -140 OFFCURVE",
"240 19 CURVE SMOOTH",
"240 506 LINE"
);
}
);
width = 264;
}
);
rightMetricsKey = "=|n";
unicode = 0237;
},
{
glyphname = k;
lastChange = "2025-06-18 08:02:47 +0000";
layers = (
{
layerId = "D8D2F0D2-8948-448B-99CD-378CDFD0E0AE";
paths = (
{
closed = 1;
nodes = (
"160 0 LINE",
"160 720 LINE",
"100 720 LINE",
"100 0 LINE"
);
},
{
closed = 1;
nodes = (
"486 500 LINE",
"410 500 LINE",
"117 208 LINE",
"160 176 LINE"
);
},
{
closed = 1;
nodes = (
"202 272 LINE",
"431 0 LINE",
"510 0 LINE",
"254 304 LINE"
);
}
);
width = 522;
},
{
layerId = "83B83716-1CD1-47ED-B715-8773FED73F88";
paths = (
{
closed = 1;
nodes = (
"244 0 LINE",
"244 720 LINE",
"28 720 LINE",
"28 0 LINE"
);
},
{
closed = 1;
nodes = (
"590 500 LINE",
"338 500 LINE",
"111 208 LINE",
"233 86 LINE"
);
},
{
closed = 1;
nodes = (
"201 262 LINE",
"340 0 LINE",
"604 0 LINE",
"381 344 LINE"
);
}
);
width = 604;
},
{
associatedMasterId = "83B83716-1CD1-47ED-B715-8773FED73F88";
layerId = "F9955363-F8D9-47DB-A8A5-6FDD80476128";
name = "13 juin 25 à 12:10";
paths = (
{
closed = 1;
nodes = (
"240 0 LINE",
"240 740 LINE",
"24 740 LINE",
"24 0 LINE"
);
},
{
closed = 1;
nodes = (
"586 500 LINE",
"334 500 LINE",
"107 208 LINE",
"229 86 LINE"
);
},
{
closed = 1;
nodes = (
"197 262 LINE",
"329 80 LINE SMOOTH",
"381 8 OFFCURVE",
"418 -14 OFFCURVE",
"468 -14 CURVE SMOOTH",
"573 -14 OFFCURVE",
"604 86 OFFCURVE",
"532 177 CURVE SMOOTH",
"399 344 LINE"
);
}
);
width = 590;
},
{
associatedMasterId = "D8D2F0D2-8948-448B-99CD-378CDFD0E0AE";
layerId = "F414CA67-C7A4-4130-ADBE-AF8DB7DEFE88";
name = "13 juin 25 à 12:41";
paths = (
{
closed = 1;
nodes = (
"160 0 LINE",
"160 740 LINE",
"100 740 LINE",
"100 0 LINE"
);
},
{
closed = 1;
nodes = (
"486 500 LINE",
"410 500 LINE",
"117 208 LINE",
"160 176 LINE"
);
},
{
closed = 1;
nodes = (
"201 272 LINE",
"425 17 LINE SMOOTH",
"444 -4 OFFCURVE",
"456 -11 OFFCURVE",
"470 -11 CURVE SMOOTH",
"500 -11 OFFCURVE",
"498 24 OFFCURVE",
"475 51 CURVE SMOOTH",
"254 304 LINE"
);
}
);
width = 522;
},
{
associatedMasterId = "83B83716-1CD1-47ED-B715-8773FED73F88";
layerId = "4193ED1E-EB43-4E56-8372-5D62B9E8AA92";
name = "18 juin 25 à 09:58";
paths = (
{
closed = 1;
nodes = (
"244 0 LINE",
"244 720 LINE",
"28 720 LINE",
"28 0 LINE"
);
},
{
closed = 1;
nodes = (
"390 280 OFFCURVE",
"438 302 OFFCURVE",
"547 288 CURVE",
"547 500 LINE",
"390 527 OFFCURVE",
"312 477 OFFCURVE",
"101 208 CURVE",
"223 86 LINE"
);
},
{
closed = 1;
nodes = (
"201 262 LINE",
"340 0 LINE",
"604 0 LINE",
"381 344 LINE"
);
}
);
width = 604;
},
{
associatedMasterId = "83B83716-1CD1-47ED-B715-8773FED73F88";
layerId = "FF16FA36-EE8A-4B5E-99FB-438EEE3C3AD4";
name = "18 juin 25 à 10:00";
paths = (
{
closed = 1;
nodes = (
"244 0 LINE",
"244 720 LINE",
"28 720 LINE",
"28 0 LINE"
);
},
{
closed = 1;
nodes = (
"498 312 LINE SMOOTH",
"569 373 OFFCURVE",
"560 512 OFFCURVE",
"443 512 CURVE SMOOTH",
"387 512 OFFCURVE",
"347 481 OFFCURVE",
"312 440 CURVE SMOOTH",
"111 208 LINE",
"233 86 LINE"
);
},
{
closed = 1;
nodes = (
"191 262 LINE",
"330 0 LINE",
"594 0 LINE",
"381 344 LINE"
);
}
);
width = 594;
}
);
leftMetricsKey = "=n";
unicode = 006B;
},
{
glyphname = l;
lastChange = "2025-06-13 10:57:33 +0000";
layers = (
{
layerId = "D8D2F0D2-8948-448B-99CD-378CDFD0E0AE";
paths = (
{
closed = 1;
nodes = (
"160 0 LINE",
"160 720 LINE",
"100 720 LINE",
"100 0 LINE"
);
}
);
width = 260;
},
{
layerId = "83B83716-1CD1-47ED-B715-8773FED73F88";
paths = (
{
closed = 1;
nodes = (
"244 0 LINE",
"244 720 LINE",
"28 720 LINE",
"28 0 LINE"
);
}
);
width = 272;
},
{
associatedMasterId = "83B83716-1CD1-47ED-B715-8773FED73F88";
layerId = "6D3F560B-3F5A-40CB-8D8B-DE4C5B09AF18";
name = "5 juin 25 à 12:30";
paths = (
{
closed = 1;
nodes = (
"240 310 LINE",
"240 740 LINE",
"24 740 LINE",
"24 310 LINE"
);
},
{
closed = 1;
nodes = (
"24 180 LINE SMOOTH",
"24 58 OFFCURVE",
"82 -9 OFFCURVE",
"184 -9 CURVE SMOOTH",
"249 -9 OFFCURVE",
"320 19 OFFCURVE",
"320 107 CURVE SMOOTH",
"320 140 OFFCURVE",
"310 176 OFFCURVE",
"270 176 CURVE SMOOTH",
"254 176 OFFCURVE",
"240 182 OFFCURVE",
"240 222 CURVE SMOOTH",
"240 590 LINE",
"24 590 LINE"
);
}
);
width = 320;
}
);
leftMetricsKey = "=n";
rightMetricsKey = "=|";
unicode = 006C;
},
{
glyphname = m;
lastChange = "2025-06-17 10:08:25 +0000";
layers = (
{
layerId = "D8D2F0D2-8948-448B-99CD-378CDFD0E0AE";
paths = (
{
closed = 1;
nodes = (
"844 0 LINE",
"844 310 LINE SMOOTH",
"844 451 OFFCURVE",
"770 510 OFFCURVE",
"676 510 CURVE SMOOTH",
"601 510 OFFCURVE",
"510 472 OFFCURVE",
"468 374 CURVE",
"502 315 LINE",
"502 406 OFFCURVE",
"579 454 OFFCURVE",
"657 454 CURVE SMOOTH",
"729 454 OFFCURVE",
"784 413 OFFCURVE",
"784 303 CURVE SMOOTH",
"784 0 LINE"
);
},
{
closed = 1;
nodes = (
"160 0 LINE",
"160 500 LINE",
"100 500 LINE",
"100 0 LINE"
);
},
{
closed = 1;
nodes = (
"502 0 LINE",
"502 320 LINE SMOOTH",
"502 451 OFFCURVE",
"428 510 OFFCURVE",
"334 510 CURVE SMOOTH",
"259 510 OFFCURVE",
"174 472 OFFCURVE",
"136 374 CURVE",
"160 315 LINE",
"160 406 OFFCURVE",
"237 454 OFFCURVE",
"315 454 CURVE SMOOTH",
"387 454 OFFCURVE",
"442 413 OFFCURVE",
"442 303 CURVE SMOOTH",
"442 0 LINE"
);
}
);
width = 934;
},
{
layerId = "83B83716-1CD1-47ED-B715-8773FED73F88";
paths = (
{
closed = 1;
nodes = (
"852 0 LINE",
"852 308 LINE SMOOTH",
"852 453 OFFCURVE",
"782 510 OFFCURVE",
"687 510 CURVE SMOOTH",
"609 510 OFFCURVE",
"536 472 OFFCURVE",
"498 394 CURVE",
"548 241 LINE",
"548 284 OFFCURVE",
"571 308 OFFCURVE",
"596 308 CURVE SMOOTH",
"617 308 OFFCURVE",
"636 291 OFFCURVE",
"636 253 CURVE SMOOTH",
"636 0 LINE"
);
},
{
closed = 1;
nodes = (
"244 0 LINE",
"244 500 LINE",
"28 500 LINE",
"28 0 LINE"
);
},
{
closed = 1;
nodes = (
"548 0 LINE",
"548 308 LINE SMOOTH",
"548 453 OFFCURVE",
"478 510 OFFCURVE",
"383 510 CURVE SMOOTH",
"305 510 OFFCURVE",
"252 472 OFFCURVE",
"224 394 CURVE",
"244 241 LINE",
"244 284 OFFCURVE",
"267 308 OFFCURVE",
"292 308 CURVE SMOOTH",
"313 308 OFFCURVE",
"332 291 OFFCURVE",
"332 253 CURVE SMOOTH",
"332 0 LINE"
);
}
);
width = 874;
},
{
associatedMasterId = "D8D2F0D2-8948-448B-99CD-378CDFD0E0AE";
layerId = "B58A1CFB-56A1-4CF5-8CAB-A58ADA8443C7";
name = "11 juin 25 à 15:21";
paths = (
{
closed = 1;
nodes = (
"482 0 LINE",
"482 338 LINE SMOOTH",
"482 453 OFFCURVE",
"412 510 OFFCURVE",
"325 510 CURVE SMOOTH",
"254 510 OFFCURVE",
"174 472 OFFCURVE",
"136 384 CURVE",
"160 335 LINE",
"160 406 OFFCURVE",
"240 454 OFFCURVE",
"312 454 CURVE SMOOTH",
"377 454 OFFCURVE",
"422 415 OFFCURVE",
"422 325 CURVE SMOOTH",
"422 0 LINE"
);
},
{
closed = 1;
nodes = (
"160 0 LINE",
"160 500 LINE",
"100 500 LINE",
"100 0 LINE"
);
},
{
closed = 1;
nodes = (
"804 0 LINE",
"804 338 LINE SMOOTH",
"804 453 OFFCURVE",
"734 510 OFFCURVE",
"647 510 CURVE SMOOTH",
"576 510 OFFCURVE",
"494 472 OFFCURVE",
"456 384 CURVE",
"482 335 LINE",
"482 406 OFFCURVE",
"562 454 OFFCURVE",
"634 454 CURVE SMOOTH",
"699 454 OFFCURVE",
"744 415 OFFCURVE",
"744 325 CURVE SMOOTH",
"744 0 LINE"
);
}
);
visible = 1;
width = 894;
}
);
leftMetricsKey = "=n";
rightMetricsKey = "=n";
unicode = 006D;
},
{
glyphname = n;
lastChange = "2025-06-17 10:09:11 +0000";
layers = (
{
anchors = (
{
name = bottom;
position = "{301, 0}";
},
{
name = top;
position = "{321, 500}";
}
);
layerId = "D8D2F0D2-8948-448B-99CD-378CDFD0E0AE";
paths = (
{
closed = 1;
nodes = (
"512 0 LINE",
"512 310 LINE SMOOTH",
"512 451 OFFCURVE",
"428 510 OFFCURVE",
"334 510 CURVE SMOOTH",
"259 510 OFFCURVE",
"174 472 OFFCURVE",
"136 374 CURVE",
"160 315 LINE",
"160 406 OFFCURVE",
"237 454 OFFCURVE",
"315 454 CURVE SMOOTH",
"387 454 OFFCURVE",
"452 413 OFFCURVE",
"452 303 CURVE SMOOTH",
"452 0 LINE"
);
},
{
closed = 1;
nodes = (
"160 0 LINE",
"160 500 LINE",
"100 500 LINE",
"100 0 LINE"
);
}
);
width = 602;
},
{
associatedMasterId = "D8D2F0D2-8948-448B-99CD-378CDFD0E0AE";
layerId = "30D0AD92-E07E-4A8A-AFE4-26D7A8370F62";
name = "Aug 11 21, 17:18";
paths = (
{
closed = 1;
nodes = (
"472 0 LINE",
"472 348 LINE SMOOTH",
"472 453 OFFCURVE",
"416 510 OFFCURVE",
"324 510 CURVE SMOOTH",
"249 510 OFFCURVE",
"180 472 OFFCURVE",
"132 394 CURVE",
"160 374 LINE",
"201 428 OFFCURVE",
"257 454 OFFCURVE",
"312 454 CURVE SMOOTH",
"379 454 OFFCURVE",
"412 415 OFFCURVE",
"412 335 CURVE SMOOTH",
"412 0 LINE"
);
},
{
closed = 1;
nodes = (
"160 0 LINE",
"160 500 LINE",
"100 500 LINE",
"100 0 LINE"
);
}
);
width = 562;
},
{
anchors = (
{
name = bottom;
position = "{283, 0}";
},
{
name = top;
position = "{283, 500}";
}
);
layerId = "83B83716-1CD1-47ED-B715-8773FED73F88";
paths = (
{
closed = 1;
nodes = (
"554 0 LINE",
"554 288 LINE SMOOTH",
"554 453 OFFCURVE",
"472 510 OFFCURVE",
"377 510 CURVE SMOOTH",
"299 510 OFFCURVE",
"252 472 OFFCURVE",
"224 394 CURVE",
"244 241 LINE",
"244 284 OFFCURVE",
"270 308 OFFCURVE",
"296 308 CURVE SMOOTH",
"318 308 OFFCURVE",
"338 291 OFFCURVE",
"338 253 CURVE SMOOTH",
"338 0 LINE"
);
},
{
closed = 1;
nodes = (
"244 0 LINE",
"244 500 LINE",
"28 500 LINE",
"28 0 LINE"
);
}
);
width = 576;
}
);
unicode = 006E;
},
{
glyphname = o;
lastChange = "2025-06-17 08:43:58 +0000";
layers = (
{
anchors = (
{
name = bottom;
position = "{306, 0}";
},
{
name = center;
position = "{306, 250}";
},
{
name = ogonek;
position = "{527, 10}";
},
{
name = top;
position = "{306, 500}";
},
{
name = topright;
position = "{562, 500}";
}
);
layerId = "D8D2F0D2-8948-448B-99CD-378CDFD0E0AE";
paths = (
{
closed = 1;
nodes = (
"66 87 OFFCURVE",
"165 -10 OFFCURVE",
"301 -10 CURVE SMOOTH",
"442 -10 OFFCURVE",
"546 95 OFFCURVE",
"546 256 CURVE SMOOTH",
"546 413 OFFCURVE",
"447 510 OFFCURVE",
"311 510 CURVE SMOOTH",
"170 510 OFFCURVE",
"66 405 OFFCURVE",
"66 244 CURVE SMOOTH"
);
},
{
closed = 1;
nodes = (
"128 378 OFFCURVE",
"205 458 OFFCURVE",
"309 458 CURVE SMOOTH",
"410 458 OFFCURVE",
"484 381 OFFCURVE",
"484 253 CURVE SMOOTH",
"484 122 OFFCURVE",
"407 42 OFFCURVE",
"303 42 CURVE SMOOTH",
"202 42 OFFCURVE",
"128 119 OFFCURVE",
"128 247 CURVE SMOOTH"
);
}
);
width = 612;
},
{
anchors = (
{
name = bottom;
position = "{305, 0}";
},
{
name = center;
position = "{305, 250}";
},
{
name = ogonek;
position = "{541, 10}";
},
{
name = top;
position = "{305, 500}";
},
{
name = topright;
position = "{580, 500}";
}
);
layerId = "83B83716-1CD1-47ED-B715-8773FED73F88";
paths = (
{
closed = 1;
nodes = (
"16 86 OFFCURVE",
"121 -12 OFFCURVE",
"296 -12 CURVE SMOOTH",
"480 -12 OFFCURVE",
"594 94 OFFCURVE",
"594 258 CURVE SMOOTH",
"594 414 OFFCURVE",
"490 512 OFFCURVE",
"315 512 CURVE SMOOTH",
"131 512 OFFCURVE",
"16 406 OFFCURVE",
"16 241 CURVE SMOOTH"
);
},
{
closed = 1;
nodes = (
"244 299 OFFCURVE",
"270 326 OFFCURVE",
"306 326 CURVE SMOOTH",
"341 326 OFFCURVE",
"366 300 OFFCURVE",
"366 251 CURVE SMOOTH",
"366 201 OFFCURVE",
"340 174 OFFCURVE",
"304 174 CURVE SMOOTH",
"269 174 OFFCURVE",
"244 200 OFFCURVE",
"244 249 CURVE SMOOTH"
);
}
);
width = 610;
},
{
associatedMasterId = "D8D2F0D2-8948-448B-99CD-378CDFD0E0AE";
layerId = "0DCA402F-CCFE-40A6-8C45-36FD42F23271";
name = "Sep 11 21, 15:54";
paths = (
{
closed = 1;
nodes = (
"46 83 OFFCURVE",
"133 -10 OFFCURVE",
"262 -10 CURVE SMOOTH",
"396 -10 OFFCURVE",
"486 92 OFFCURVE",
"486 257 CURVE SMOOTH",
"486 417 OFFCURVE",
"399 510 OFFCURVE",
"270 510 CURVE SMOOTH",
"136 510 OFFCURVE",
"46 408 OFFCURVE",
"46 243 CURVE SMOOTH"
);
},
{
closed = 1;
nodes = (
"108 381 OFFCURVE",
"172 458 OFFCURVE",
"269 458 CURVE SMOOTH",
"365 458 OFFCURVE",
"424 382 OFFCURVE",
"424 253 CURVE SMOOTH",
"424 119 OFFCURVE",
"360 42 OFFCURVE",
"263 42 CURVE SMOOTH",
"167 42 OFFCURVE",
"108 118 OFFCURVE",
"108 247 CURVE SMOOTH"
);
}
);
width = 532;
}
);
rightMetricsKey = "=|";
unicode = 006F;
},
{
glyphname = p;
lastChange = "2025-06-13 10:57:41 +0000";
layers = (
{
background = {
paths = (
{
closed = 1;
nodes = (
"84 -224 LINE",
"159 -224 LINE",
"159 99 LINE",
"203 24 OFFCURVE",
"274 -11 OFFCURVE",
"357 -11 CURVE SMOOTH",
"508 -11 OFFCURVE",
"605 106 OFFCURVE",
"605 249 CURVE SMOOTH",
"605 392 OFFCURVE",
"508 509 OFFCURVE",
"357 509 CURVE SMOOTH",
"274 509 OFFCURVE",
"203 474 OFFCURVE",
"159 399 CURVE",
"159 498 LINE",
"84 498 LINE"
);
},
{
closed = 1;
nodes = (
"530 142 OFFCURVE",
"463 56 OFFCURVE",
"350 56 CURVE SMOOTH",
"244 56 OFFCURVE",
"158 133 OFFCURVE",
"158 249 CURVE SMOOTH",
"158 365 OFFCURVE",
"244 442 OFFCURVE",
"350 442 CURVE SMOOTH",
"463 442 OFFCURVE",
"530 354 OFFCURVE",
"530 249 CURVE SMOOTH"
);
}
);
};
components = (
{
name = _panse;
}
);
layerId = "D8D2F0D2-8948-448B-99CD-378CDFD0E0AE";
paths = (
{
closed = 1;
nodes = (
"160 -200 LINE",
"160 500 LINE",
"100 500 LINE",
"100 -200 LINE"
);
}
);
width = 628;
},
{
components = (
{
name = _panse;
transform = "{1, 0, 0, 1, 88, 0}";
}
);
layerId = "83B83716-1CD1-47ED-B715-8773FED73F88";
paths = (
{
closed = 1;
nodes = (
"244 -200 LINE",
"244 500 LINE",
"28 500 LINE",
"28 -200 LINE"
);
}
);
width = 598;
},
{
associatedMasterId = "D8D2F0D2-8948-448B-99CD-378CDFD0E0AE";
layerId = "B4172C5F-8A79-465F-B86A-A08CD5C862AE";
name = "11 juin 25 à 15:12";
paths = (
{
closed = 1;
nodes = (
"81 -224 LINE",
"156 -224 LINE",
"156 99 LINE",
"200 24 OFFCURVE",
"271 -11 OFFCURVE",
"354 -11 CURVE SMOOTH",
"505 -11 OFFCURVE",
"602 106 OFFCURVE",
"602 249 CURVE SMOOTH",
"602 392 OFFCURVE",
"505 509 OFFCURVE",
"354 509 CURVE SMOOTH",
"271 509 OFFCURVE",
"200 474 OFFCURVE",
"156 399 CURVE",
"156 498 LINE",
"81 498 LINE"
);
},
{
closed = 1;
nodes = (
"527 142 OFFCURVE",
"460 56 OFFCURVE",
"347 56 CURVE SMOOTH",
"241 56 OFFCURVE",
"155 133 OFFCURVE",
"155 249 CURVE SMOOTH",
"155 365 OFFCURVE",
"241 442 OFFCURVE",
"347 442 CURVE SMOOTH",
"460 442 OFFCURVE",
"527 354 OFFCURVE",
"527 249 CURVE SMOOTH"
);
}
);
width = 610;
}
);
leftMetricsKey = "=n";
rightMetricsKey = "=o";
unicode = 0070;
},
{
glyphname = q;
lastChange = "2025-06-11 17:24:35 +0000";
layers = (
{
components = (
{
name = _panse;
transform = "{-1, 0, 0, -1, 628, 500}";
}
);
layerId = "D8D2F0D2-8948-448B-99CD-378CDFD0E0AE";
paths = (
{
closed = 1;
nodes = (
"468 500 LINE",
"468 -200 LINE",
"528 -200 LINE",
"528 500 LINE"
);
}
);
width = 628;
},
{
components = (
{
name = _panse;
transform = "{-1, 0, 0, -1, 510, 500}";
}
);
layerId = "83B83716-1CD1-47ED-B715-8773FED73F88";
paths = (
{
closed = 1;
nodes = (
"354 500 LINE",
"354 -200 LINE",
"570 -200 LINE",
"570 500 LINE"
);
}
);
width = 594;
}
);
leftMetricsKey = "=o";
rightMetricsKey = "=|n";
unicode = 0071;
},
{
glyphname = r;
lastChange = "2025-06-17 09:38:35 +0000";
layers = (
{
layerId = "D8D2F0D2-8948-448B-99CD-378CDFD0E0AE";
paths = (
{
closed = 1;
nodes = (
"160 0 LINE",
"160 500 LINE",
"100 500 LINE",
"100 0 LINE"
);
},
{
closed = 1;
nodes = (
"160 393 OFFCURVE",
"213 460 OFFCURVE",
"296 437 CURVE SMOOTH",
"332 427 OFFCURVE",
"345 445 OFFCURVE",
"345 465 CURVE SMOOTH",
"345 495 OFFCURVE",
"317 508 OFFCURVE",
"285 508 CURVE SMOOTH",
"231 508 OFFCURVE",
"174 472 OFFCURVE",
"136 374 CURVE",
"160 315 LINE"
);
}
);
width = 370;
},
{
layerId = "83B83716-1CD1-47ED-B715-8773FED73F88";
paths = (
{
closed = 1;
nodes = (
"244 0 LINE",
"244 500 LINE",
"28 500 LINE",
"28 0 LINE"
);
},
{
closed = 1;
nodes = (
"244 279 OFFCURVE",
"278 297 OFFCURVE",
"336 275 CURVE SMOOTH",
"405 249 OFFCURVE",
"452 292 OFFCURVE",
"452 384 CURVE SMOOTH",
"452 475 OFFCURVE",
"403 510 OFFCURVE",
"357 510 CURVE SMOOTH",
"302 510 OFFCURVE",
"248 461 OFFCURVE",
"234 394 CURVE",
"244 185 LINE"
);
}
);
width = 468;
},
{
associatedMasterId = "83B83716-1CD1-47ED-B715-8773FED73F88";
layerId = "043E60FE-68E1-4F2D-8105-14838EA22F61";
name = "17 juin 25 à 11:33";
paths = (
{
closed = 1;
nodes = (
"244 0 LINE",
"244 500 LINE",
"28 500 LINE",
"28 0 LINE"
);
},
{
closed = 1;
nodes = (
"244 279 OFFCURVE",
"280 285 OFFCURVE",
"326 285 CURVE SMOOTH",
"374 285 OFFCURVE",
"432 292 OFFCURVE",
"432 395 CURVE SMOOTH",
"432 475 OFFCURVE",
"383 510 OFFCURVE",
"337 510 CURVE SMOOTH",
"282 510 OFFCURVE",
"248 461 OFFCURVE",
"234 394 CURVE",
"244 185 LINE"
);
}
);
width = 448;
},
{
associatedMasterId = "D8D2F0D2-8948-448B-99CD-378CDFD0E0AE";
layerId = "973305A6-CB09-4D92-8EB1-B39FAB9D1BE7";
name = "17 juin 25 à 11:33";
paths = (
{
closed = 1;
nodes = (
"160 0 LINE",
"160 500 LINE",
"100 500 LINE",
"100 0 LINE"
);
},
{
closed = 1;
nodes = (
"160 393 OFFCURVE",
"217 443 OFFCURVE",
"303 443 CURVE SMOOTH",
"340 443 OFFCURVE",
"352 455 OFFCURVE",
"352 474 CURVE SMOOTH",
"352 495 OFFCURVE",
"337 510 OFFCURVE",
"303 510 CURVE SMOOTH",
"249 510 OFFCURVE",
"174 472 OFFCURVE",
"136 374 CURVE",
"160 315 LINE"
);
}
);
width = 370;
}
);
leftMetricsKey = "=n";
unicode = 0072;
},
{
glyphname = s;
lastChange = "2025-06-16 15:20:15 +0000";
layers = (
{
guideLines = (
{
angle = 220.9144;
position = "{264, 375}";
}
);
layerId = "D8D2F0D2-8948-448B-99CD-378CDFD0E0AE";
paths = (
{
closed = 1;
nodes = (
"363 -10 OFFCURVE",
"416 50 OFFCURVE",
"416 125 CURVE SMOOTH",
"416 304 OFFCURVE",
"126 246 OFFCURVE",
"126 376 CURVE SMOOTH",
"126 419 OFFCURVE",
"158 460 OFFCURVE",
"237 460 CURVE SMOOTH",
"327 460 OFFCURVE",
"352 410 OFFCURVE",
"380 410 CURVE SMOOTH",
"391 410 OFFCURVE",
"400 418 OFFCURVE",
"400 433 CURVE SMOOTH",
"400 467 OFFCURVE",
"342 510 OFFCURVE",
"246 510 CURVE SMOOTH",
"128 510 OFFCURVE",
"68 448 OFFCURVE",
"68 370 CURVE SMOOTH",
"68 196 OFFCURVE",
"358 254 OFFCURVE",
"358 124 CURVE SMOOTH",
"358 78 OFFCURVE",
"322 40 OFFCURVE",
"238 40 CURVE SMOOTH",
"177 40 OFFCURVE",
"119 58 OFFCURVE",
"64 101 CURVE",
"64 40 LINE",
"97 12 OFFCURVE",
"152 -10 OFFCURVE",
"237 -10 CURVE SMOOTH"
);
}
);
width = 468;
},
{
associatedMasterId = "D8D2F0D2-8948-448B-99CD-378CDFD0E0AE";
layerId = "C761C3B0-11A6-42B5-A1D5-C1338B683BD5";
name = "Aug 25 21, 16:11";
paths = (
{
closed = 1;
nodes = (
"65 34 OFFCURVE",
"123 -10 OFFCURVE",
"215 -10 CURVE SMOOTH",
"323 -10 OFFCURVE",
"386 50 OFFCURVE",
"386 129 CURVE SMOOTH",
"386 294 OFFCURVE",
"116 256 OFFCURVE",
"116 377 CURVE SMOOTH",
"116 419 OFFCURVE",
"148 460 OFFCURVE",
"217 460 CURVE SMOOTH",
"281 460 OFFCURVE",
"310 425 OFFCURVE",
"327 373 CURVE",
"382 392 LINE",
"357 466 OFFCURVE",
"302 510 OFFCURVE",
"218 510 CURVE SMOOTH",
"118 510 OFFCURVE",
"58 448 OFFCURVE",
"58 371 CURVE SMOOTH",
"58 206 OFFCURVE",
"328 244 OFFCURVE",
"328 123 CURVE SMOOTH",
"328 78 OFFCURVE",
"292 40 OFFCURVE",
"217 40 CURVE SMOOTH",
"145 40 OFFCURVE",
"112 75 OFFCURVE",
"95 127 CURVE",
"40 108 LINE"
);
}
);
width = 426;
},
{
associatedMasterId = "83B83716-1CD1-47ED-B715-8773FED73F88";
guideLines = (
{
angle = 220.9144;
position = "{463, 389}";
}
);
layerId = "11B09AE7-D3D8-49B7-BBD7-E88E6F8FA016";
name = "5 juin 25 à 12:52";
paths = (
{
closed = 1;
nodes = (
"401 -10 OFFCURVE",
"494 60 OFFCURVE",
"494 164 CURVE SMOOTH",
"494 336 OFFCURVE",
"237 318 OFFCURVE",
"237 365 CURVE SMOOTH",
"237 375 OFFCURVE",
"248 382 OFFCURVE",
"267 382 CURVE SMOOTH",
"322 382 OFFCURVE",
"365 328 OFFCURVE",
"422 328 CURVE SMOOTH",
"460 328 OFFCURVE",
"487 351 OFFCURVE",
"487 392 CURVE SMOOTH",
"487 465 OFFCURVE",
"405 510 OFFCURVE",
"273 510 CURVE SMOOTH",
"105 510 OFFCURVE",
"9 438 OFFCURVE",
"9 333 CURVE SMOOTH",
"9 164 OFFCURVE",
"266 182 OFFCURVE",
"266 134 CURVE SMOOTH",
"266 124 OFFCURVE",
"255 118 OFFCURVE",
"235 118 CURVE SMOOTH",
"173 118 OFFCURVE",
"130 172 OFFCURVE",
"73 172 CURVE SMOOTH",
"35 172 OFFCURVE",
"8 149 OFFCURVE",
"8 108 CURVE SMOOTH",
"8 35 OFFCURVE",
"90 -10 OFFCURVE",
"228 -10 CURVE SMOOTH"
);
}
);
width = 500;
},
{
associatedMasterId = "83B83716-1CD1-47ED-B715-8773FED73F88";
guideLines = (
{
angle = 220.9144;
position = "{463, 389}";
}
);
layerId = "88938173-060D-4E2F-B5C0-039E3FC8004A";
name = "16 juin 25 à 17:20";
paths = (
{
closed = 1;
nodes = (
"411 -10 OFFCURVE",
"494 60 OFFCURVE",
"494 160 CURVE SMOOTH",
"494 336 OFFCURVE",
"237 318 OFFCURVE",
"237 365 CURVE SMOOTH",
"237 375 OFFCURVE",
"248 382 OFFCURVE",
"267 382 CURVE SMOOTH",
"322 382 OFFCURVE",
"365 328 OFFCURVE",
"422 328 CURVE SMOOTH",
"460 328 OFFCURVE",
"487 351 OFFCURVE",
"487 392 CURVE SMOOTH",
"487 465 OFFCURVE",
"405 510 OFFCURVE",
"271 510 CURVE SMOOTH",
"95 510 OFFCURVE",
"9 438 OFFCURVE",
"9 337 CURVE SMOOTH",
"9 164 OFFCURVE",
"266 182 OFFCURVE",
"266 134 CURVE SMOOTH",
"266 124 OFFCURVE",
"255 118 OFFCURVE",
"231 118 CURVE SMOOTH",
"183 118 OFFCURVE",
"120 142 OFFCURVE",
"23 202 CURVE",
"23 34 LINE",
"81 2 OFFCURVE",
"157 -10 OFFCURVE",
"231 -10 CURVE SMOOTH"
);
}
);
width = 500;
},
{
guideLines = (
{
angle = 220.9144;
position = "{463, 389}";
}
);
layerId = "83B83716-1CD1-47ED-B715-8773FED73F88";
name = Black;
paths = (
{
closed = 1;
nodes = (
"401 -12 OFFCURVE",
"494 50 OFFCURVE",
"494 157 CURVE SMOOTH",
"494 333 OFFCURVE",
"237 315 OFFCURVE",
"237 363 CURVE SMOOTH",
"237 373 OFFCURVE",
"248 382 OFFCURVE",
"269 382 CURVE SMOOTH",
"325 382 OFFCURVE",
"363 318 OFFCURVE",
"424 318 CURVE SMOOTH",
"468 318 OFFCURVE",
"497 351 OFFCURVE",
"497 392 CURVE SMOOTH",
"497 465 OFFCURVE",
"415 512 OFFCURVE",
"273 512 CURVE SMOOTH",
"105 512 OFFCURVE",
"9 448 OFFCURVE",
"9 340 CURVE SMOOTH",
"9 164 OFFCURVE",
"266 182 OFFCURVE",
"266 134 CURVE SMOOTH",
"266 124 OFFCURVE",
"255 118 OFFCURVE",
"234 118 CURVE SMOOTH",
"193 118 OFFCURVE",
"120 142 OFFCURVE",
"23 202 CURVE",
"23 28 LINE",
"91 2 OFFCURVE",
"157 -12 OFFCURVE",
"232 -12 CURVE SMOOTH"
);
}
);
width = 500;
}
);
unicode = 0073;
},
{
glyphname = t;
lastChange = "2025-06-17 13:16:26 +0000";
layers = (
{
associatedMasterId = "D8D2F0D2-8948-448B-99CD-378CDFD0E0AE";
layerId = "C4D97CF4-8414-424B-A938-E08ED0A07615";
name = "10 juin 25 à 19:15";
paths = (
{
closed = 1;
nodes = (
"50 446 LINE",
"320 446 LINE",
"320 500 LINE",
"50 500 LINE"
);
},
{
closed = 1;
nodes = (
"130 130 LINE SMOOTH",
"130 37 OFFCURVE",
"174 -6 OFFCURVE",
"245 -6 CURVE SMOOTH",
"288 -6 OFFCURVE",
"320 8 OFFCURVE",
"320 34 CURVE SMOOTH",
"320 60 OFFCURVE",
"289 48 OFFCURVE",
"254 48 CURVE SMOOTH",
"208 48 OFFCURVE",
"190 78 OFFCURVE",
"190 152 CURVE SMOOTH",
"190 600 LINE",
"130 600 LINE"
);
}
);
width = 352;
},
{
associatedMasterId = "83B83716-1CD1-47ED-B715-8773FED73F88";
layerId = "6762EB0D-5A66-4F4C-A710-F0A4C601C8D3";
name = "10 juin 25 à 19:15";
paths = (
{
closed = 1;
nodes = (
"10 330 LINE",
"374 330 LINE",
"374 500 LINE",
"10 500 LINE"
);
},
{
closed = 1;
nodes = (
"68 180 LINE SMOOTH",
"68 58 OFFCURVE",
"136 -9 OFFCURVE",
"234 -9 CURVE SMOOTH",
"303 -9 OFFCURVE",
"374 24 OFFCURVE",
"374 103 CURVE SMOOTH",
"374 145 OFFCURVE",
"354 176 OFFCURVE",
"314 176 CURVE SMOOTH",
"298 176 OFFCURVE",
"284 182 OFFCURVE",
"284 222 CURVE SMOOTH",
"284 590 LINE",
"68 590 LINE"
);
}
);
width = 384;
},
{
associatedMasterId = "83B83716-1CD1-47ED-B715-8773FED73F88";
layerId = "B115177B-F7FA-4CF3-9E1C-AF66368EBD56";
name = "13 juin 25 à 12:11";
paths = (
{
closed = 1;
nodes = (
"394 186 LINE",
"318 176 OFFCURVE",
"294 192 OFFCURVE",
"294 232 CURVE SMOOTH",
"294 520 LINE SMOOTH",
"294 662 OFFCURVE",
"78 662 OFFCURVE",
"78 520 CURVE SMOOTH",
"78 180 LINE SMOOTH",
"78 38 OFFCURVE",
"166 -29 OFFCURVE",
"394 11 CURVE"
);
},
{
closed = 1;
nodes = (
"394 330 LINE",
"394 500 LINE",
"18 500 LINE",
"18 330 LINE"
);
}
);
width = 404;
},
{
layerId = "83B83716-1CD1-47ED-B715-8773FED73F88";
name = Black;
paths = (
{
closed = 1;
nodes = (
"404 186 LINE",
"318 176 OFFCURVE",
"304 192 OFFCURVE",
"304 232 CURVE SMOOTH",
"304 330 LINE",
"414 330 LINE",
"414 500 LINE",
"304 500 LINE",
"304 582 LINE",
"88 508 LINE SMOOTH",
"35 490 OFFCURVE",
"6 462 OFFCURVE",
"6 414 CURVE SMOOTH",
"6 359 OFFCURVE",
"42 330 OFFCURVE",
"86 330 CURVE SMOOTH",
"88 330 LINE",
"88 180 LINE SMOOTH",
"88 38 OFFCURVE",
"166 -29 OFFCURVE",
"404 11 CURVE"
);
}
);
width = 444;
},
{
associatedMasterId = "D8D2F0D2-8948-448B-99CD-378CDFD0E0AE";
layerId = "116341B4-761B-4FAD-ACAF-BCCD19EFCF22";
name = "13 juin 25 à 12:11";
paths = (
{
closed = 1;
nodes = (
"340 50 LINE",
"213 32 OFFCURVE",
"180 60 OFFCURVE",
"180 155 CURVE SMOOTH",
"180 564 LINE SMOOTH",
"180 614 OFFCURVE",
"120 614 OFFCURVE",
"120 564 CURVE SMOOTH",
"120 150 LINE SMOOTH",
"120 36 OFFCURVE",
"167 -26 OFFCURVE",
"340 0 CURVE"
);
},
{
closed = 1;
nodes = (
"340 446 LINE",
"340 500 LINE",
"30 500 LINE",
"30 446 LINE"
);
}
);
width = 360;
},
{
layerId = "D8D2F0D2-8948-448B-99CD-378CDFD0E0AE";
name = Thin;
paths = (
{
closed = 1;
nodes = (
"330 50 LINE",
"203 32 OFFCURVE",
"170 60 OFFCURVE",
"170 155 CURVE SMOOTH",
"170 446 LINE",
"330 446 LINE",
"330 500 LINE",
"170 500 LINE",
"170 568 LINE",
"60 504 LINE SMOOTH",
"39 492 OFFCURVE",
"30 482 OFFCURVE",
"30 469 CURVE SMOOTH",
"30 457 OFFCURVE",
"38 446 OFFCURVE",
"61 446 CURVE SMOOTH",
"110 446 LINE",
"110 150 LINE SMOOTH",
"110 36 OFFCURVE",
"157 -26 OFFCURVE",
"330 0 CURVE"
);
}
);
width = 392;
},
{
associatedMasterId = "83B83716-1CD1-47ED-B715-8773FED73F88";
layerId = "3E45FD6F-3379-4E67-BEBD-F22775ECED28";
name = "13 juin 25 à 12:13";
paths = (
{
closed = 1;
nodes = (
"394 186 LINE",
"318 176 OFFCURVE",
"294 192 OFFCURVE",
"294 232 CURVE SMOOTH",
"294 507 LINE SMOOTH",
"294 585 OFFCURVE",
"245 615 OFFCURVE",
"176 580 CURVE SMOOTH",
"18 500 LINE",
"78 472 LINE",
"78 180 LINE SMOOTH",
"78 38 OFFCURVE",
"166 -29 OFFCURVE",
"394 11 CURVE"
);
},
{
closed = 1;
nodes = (
"394 330 LINE",
"394 500 LINE",
"18 500 LINE",
"18 330 LINE"
);
}
);
width = 404;
},
{
associatedMasterId = "83B83716-1CD1-47ED-B715-8773FED73F88";
layerId = "3F37ED42-620A-439D-874B-7AD5C737837F";
name = "13 juin 25 à 16:12";
paths = (
{
closed = 1;
nodes = (
"404 186 LINE",
"318 176 OFFCURVE",
"304 192 OFFCURVE",
"304 232 CURVE SMOOTH",
"304 330 LINE",
"414 330 LINE",
"414 500 LINE",
"304 500 LINE",
"304 582 LINE",
"127 579 OFFCURVE",
"23 490 OFFCURVE",
"6 330 CURVE",
"88 330 LINE",
"88 180 LINE SMOOTH",
"88 38 OFFCURVE",
"166 -29 OFFCURVE",
"404 11 CURVE"
);
}
);
width = 444;
},
{
associatedMasterId = "83B83716-1CD1-47ED-B715-8773FED73F88";
layerId = "37D03C44-F7C2-4C66-A343-15756FFBAB4D";
name = "13 juin 25 à 16:12";
paths = (
{
closed = 1;
nodes = (
"404 186 LINE",
"318 176 OFFCURVE",
"304 192 OFFCURVE",
"304 232 CURVE SMOOTH",
"304 330 LINE",
"414 330 LINE",
"414 500 LINE",
"304 500 LINE",
"304 582 LINE",
"134 530 LINE SMOOTH",
"35 500 OFFCURVE",
"6 472 OFFCURVE",
"6 384 CURVE SMOOTH",
"6 330 LINE",
"88 330 LINE",
"88 180 LINE SMOOTH",
"88 38 OFFCURVE",
"166 -29 OFFCURVE",
"404 11 CURVE"
);
}
);
width = 444;
}
);
leftMetricsKey = "=f";
unicode = 0074;
},
{
glyphname = u;
lastChange = "2025-06-17 10:09:16 +0000";
layers = (
{
anchors = (
{
name = bottom;
position = "{258, 0}";
},
{
name = ogonek;
position = "{480, 10}";
},
{
name = top;
position = "{298, 500}";
},
{
name = topright;
position = "{516, 500}";
}
);
layerId = "D8D2F0D2-8948-448B-99CD-378CDFD0E0AE";
paths = (
{
closed = 1;
nodes = (
"90 500 LINE",
"90 190 LINE SMOOTH",
"90 49 OFFCURVE",
"174 -10 OFFCURVE",
"268 -10 CURVE SMOOTH",
"343 -10 OFFCURVE",
"428 28 OFFCURVE",
"466 126 CURVE",
"442 185 LINE",
"442 94 OFFCURVE",
"365 46 OFFCURVE",
"287 46 CURVE SMOOTH",
"215 46 OFFCURVE",
"150 87 OFFCURVE",
"150 197 CURVE SMOOTH",
"150 500 LINE"
);
},
{
closed = 1;
nodes = (
"442 500 LINE",
"442 0 LINE",
"502 0 LINE",
"502 500 LINE"
);
}
);
width = 602;
},
{
anchors = (
{
name = bottom;
position = "{292, 0}";
},
{
name = ogonek;
position = "{513, 10}";
},
{
name = top;
position = "{292, 500}";
},
{
name = topright;
position = "{548, 500}";
}
);
layerId = "83B83716-1CD1-47ED-B715-8773FED73F88";
paths = (
{
closed = 1;
nodes = (
"328 500 LINE",
"328 0 LINE",
"544 0 LINE",
"544 500 LINE"
);
},
{
closed = 1;
nodes = (
"22 500 LINE",
"22 212 LINE SMOOTH",
"22 47 OFFCURVE",
"100 -10 OFFCURVE",
"195 -10 CURVE SMOOTH",
"273 -10 OFFCURVE",
"320 28 OFFCURVE",
"348 106 CURVE",
"328 259 LINE",
"328 216 OFFCURVE",
"303 192 OFFCURVE",
"277 192 CURVE SMOOTH",
"255 192 OFFCURVE",
"238 209 OFFCURVE",
"238 247 CURVE SMOOTH",
"238 500 LINE"
);
}
);
width = 572;
}
);
leftMetricsKey = "=|n";
rightMetricsKey = "=|n";
unicode = 0075;
},
{
glyphname = v;
lastChange = "2025-06-11 17:37:11 +0000";
layers = (
{
layerId = "D8D2F0D2-8948-448B-99CD-378CDFD0E0AE";
paths = (
{
closed = 1;
nodes = (
"298 0 LINE",
"95 500 LINE",
"30 500 LINE",
"240 0 LINE"
);
},
{
closed = 1;
nodes = (
"510 500 LINE",
"445 500 LINE",
"242 0 LINE",
"300 0 LINE"
);
}
);
width = 540;
},
{
layerId = "83B83716-1CD1-47ED-B715-8773FED73F88";
paths = (
{
closed = 1;
nodes = (
"348 0 LINE",
"246 500 LINE",
"2 500 LINE",
"182 0 LINE"
);
},
{
closed = 1;
nodes = (
"596 500 LINE",
"352 500 LINE",
"250 0 LINE",
"416 0 LINE"
);
}
);
width = 598;
}
);
rightMetricsKey = "=|";
unicode = 0076;
},
{
glyphname = w;
lastChange = "2025-06-11 12:11:27 +0000";
layers = (
{
anchors = (
{
name = bottom;
position = "{403, 0}";
},
{
name = top;
position = "{403, 500}";
}
);
layerId = "D8D2F0D2-8948-448B-99CD-378CDFD0E0AE";
paths = (
{
closed = 1;
nodes = (
"251 0 LINE",
"80 500 LINE",
"15 500 LINE",
"195 0 LINE"
);
},
{
closed = 1;
nodes = (
"433 500 LINE",
"371 500 LINE",
"199 0 LINE",
"255 0 LINE"
);
},
{
closed = 1;
nodes = (
"607 0 LINE",
"435 500 LINE",
"373 500 LINE",
"551 0 LINE"
);
},
{
closed = 1;
nodes = (
"791 500 LINE",
"726 500 LINE",
"555 0 LINE",
"611 0 LINE"
);
}
);
width = 806;
},
{
anchors = (
{
name = bottom;
position = "{450, 0}";
},
{
name = top;
position = "{450, 500}";
}
);
layerId = "83B83716-1CD1-47ED-B715-8773FED73F88";
paths = (
{
closed = 1;
nodes = (
"319 0 LINE",
"239 500 LINE",
"5 500 LINE",
"151 0 LINE"
);
},
{
closed = 1;
nodes = (
"544 500 LINE",
"357 500 LINE",
"217 0 LINE",
"383 0 LINE"
);
},
{
closed = 1;
nodes = (
"683 0 LINE",
"543 500 LINE",
"356 500 LINE",
"517 0 LINE"
);
},
{
closed = 1;
nodes = (
"895 500 LINE",
"661 500 LINE",
"581 0 LINE",
"749 0 LINE"
);
}
);
width = 900;
},
{
associatedMasterId = "83B83716-1CD1-47ED-B715-8773FED73F88";
layerId = "4D1645BF-BEDF-4181-8641-6FB18604B64F";
name = "Aug 25 21, 12:44";
paths = (
{
closed = 1;
nodes = (
"264 0 LINE",
"214 500 LINE",
"30 500 LINE",
"126 0 LINE"
);
},
{
closed = 1;
nodes = (
"449 250 LINE",
"395 450 LINE",
"162 0 LINE",
"318 0 LINE"
);
},
{
closed = 1;
nodes = (
"628 0 LINE",
"395 450 LINE",
"341 250 LINE",
"472 0 LINE"
);
},
{
closed = 1;
nodes = (
"760 500 LINE",
"576 500 LINE",
"526 0 LINE",
"664 0 LINE"
);
}
);
width = 790;
}
);
rightMetricsKey = "=|";
unicode = 0077;
},
{
glyphname = x;
lastChange = "2025-06-13 22:22:44 +0000";
layers = (
{
layerId = "D8D2F0D2-8948-448B-99CD-378CDFD0E0AE";
paths = (
{
closed = 1;
nodes = (
"230 212 LINE",
"230 284 LINE",
"25 0 LINE",
"93 0 LINE",
"255 224 LINE",
"233 224 LINE",
"395 0 LINE",
"463 0 LINE",
"259 285 LINE",
"259 211 LINE",
"466 500 LINE",
"398 500 LINE",
"233 271 LINE",
"255 271 LINE",
"90 500 LINE",
"22 500 LINE"
);
}
);
width = 488;
},
{
layerId = "83B83716-1CD1-47ED-B715-8773FED73F88";
paths = (
{
closed = 1;
nodes = (
"163 209 LINE",
"163 287 LINE",
"3 0 LINE",
"229 0 LINE",
"308 155 LINE",
"258 155 LINE",
"337 0 LINE",
"573 0 LINE",
"414 287 LINE",
"414 209 LINE",
"576 500 LINE",
"350 500 LINE",
"268 341 LINE",
"318 341 LINE",
"236 500 LINE",
"0 500 LINE"
);
}
);
width = 576;
}
);
rightMetricsKey = "=|";
unicode = 0078;
},
{
glyphname = y;
lastChange = "2025-06-12 07:52:56 +0000";
layers = (
{
anchors = (
{
name = bottom;
position = "{299, 0}";
},
{
name = top;
position = "{299, 500}";
}
);
components = (
{
name = v;
}
);
layerId = "83B83716-1CD1-47ED-B715-8773FED73F88";
paths = (
{
closed = 1;
nodes = (
"289 -212 OFFCURVE",
"359 -160 OFFCURVE",
"410 -18 CURVE SMOOTH",
"596 500 LINE",
"182 0 LINE",
"176 -22 OFFCURVE",
"159 -36 OFFCURVE",
"123 -36 CURVE SMOOTH",
"85 -36 OFFCURVE",
"39 -54 OFFCURVE",
"39 -114 CURVE SMOOTH",
"39 -182 OFFCURVE",
"96 -212 OFFCURVE",
"180 -212 CURVE SMOOTH"
);
}
);
width = 598;
},
{
associatedMasterId = "D8D2F0D2-8948-448B-99CD-378CDFD0E0AE";
components = (
{
name = v;
}
);
layerId = "A968634C-B40A-4952-AF67-6C361F76089D";
name = "5 juin 25 à 12:15";
paths = (
{
closed = 1;
nodes = (
"45 -185 OFFCURVE",
"71 -206 OFFCURVE",
"113 -206 CURVE SMOOTH",
"175 -206 OFFCURVE",
"218 -161 OFFCURVE",
"259 -54 CURVE SMOOTH",
"470 500 LINE",
"220 0 LINE",
"165 -135 OFFCURVE",
"144 -175 OFFCURVE",
"38 -145 CURVE"
);
}
);
width = 500;
},
{
anchors = (
{
name = bottom;
position = "{250, 0}";
},
{
name = top;
position = "{250, 500}";
}
);
components = (
{
name = v;
}
);
layerId = "D8D2F0D2-8948-448B-99CD-378CDFD0E0AE";
name = Thin;
paths = (
{
closed = 1;
nodes = (
"181 -206 OFFCURVE",
"236 -153 OFFCURVE",
"292 -19 CURVE SMOOTH",
"510 500 LINE",
"240 0 LINE",
"216 -58 OFFCURVE",
"168 -150 OFFCURVE",
"96 -150 CURVE SMOOTH",
"71 -150 OFFCURVE",
"57 -158 OFFCURVE",
"57 -177 CURVE SMOOTH",
"57 -195 OFFCURVE",
"70 -206 OFFCURVE",
"105 -206 CURVE SMOOTH"
);
}
);
width = 540;
}
);
leftMetricsKey = "=v";
rightMetricsKey = "=v";
unicode = 0079;
},
{
glyphname = z;
lastChange = "2025-06-17 10:10:05 +0000";
layers = (
{
layerId = "D8D2F0D2-8948-448B-99CD-378CDFD0E0AE";
paths = (
{
closed = 1;
nodes = (
"60 446 LINE",
"420 446 LINE",
"460 466 LINE",
"460 500 LINE",
"60 500 LINE"
);
},
{
closed = 1;
nodes = (
"60 0 LINE",
"460 0 LINE",
"460 54 LINE",
"97 54 LINE",
"60 34 LINE"
);
},
{
closed = 1;
nodes = (
"133 34 LINE",
"460 466 LINE",
"387 466 LINE",
"60 34 LINE"
);
}
);
width = 520;
},
{
layerId = "83B83716-1CD1-47ED-B715-8773FED73F88";
paths = (
{
closed = 1;
nodes = (
"20 330 LINE",
"404 330 LINE",
"464 376 LINE",
"464 500 LINE",
"20 500 LINE"
);
},
{
closed = 1;
nodes = (
"20 0 LINE",
"464 0 LINE",
"464 170 LINE",
"77 170 LINE",
"20 124 LINE"
);
},
{
closed = 1;
nodes = (
"238 114 LINE",
"464 376 LINE",
"216 376 LINE",
"20 124 LINE"
);
}
);
width = 484;
}
);
unicode = 007A;
},
{
color = 0;
glyphname = f.alt;
lastChange = "2025-06-18 08:19:24 +0000";
layers = (
{
layerId = "D8D2F0D2-8948-448B-99CD-378CDFD0E0AE";
width = 600;
},
{
layerId = "83B83716-1CD1-47ED-B715-8773FED73F88";
paths = (
{
closed = 1;
nodes = (
"279 500 LINE",
"242 500 OFFCURVE",
"232 509 OFFCURVE",
"232 523 CURVE SMOOTH",
"232 536 OFFCURVE",
"241 543 OFFCURVE",
"267 543 CURVE SMOOTH",
"287 543 OFFCURVE",
"320 539 OFFCURVE",
"336 539 CURVE SMOOTH",
"380 539 OFFCURVE",
"404 569 OFFCURVE",
"404 616 CURVE SMOOTH",
"404 693 OFFCURVE",
"338 732 OFFCURVE",
"244 732 CURVE SMOOTH",
"138 732 OFFCURVE",
"22 684 OFFCURVE",
"22 503 CURVE SMOOTH",
"22 412 OFFCURVE",
"48 349 OFFCURVE",
"48 239 CURVE"
);
},
{
closed = 1;
nodes = (
"374 330 LINE",
"374 500 LINE",
"98 500 LINE",
"98 330 LINE"
);
},
{
closed = 1;
nodes = (
"48 415 LINE",
"48 0 LINE",
"264 0 LINE",
"264 415 LINE"
);
}
);
width = 404;
}
);
},
{
color = 0;
glyphname = a.alt2;
lastChange = "2025-06-17 10:06:03 +0000";
layers = (
{
layerId = "D8D2F0D2-8948-448B-99CD-378CDFD0E0AE";
paths = (
{
closed = 1;
nodes = (
"500 0 LINE",
"500 478 LINE",
"440 490 LINE",
"440 0 LINE"
);
},
{
closed = 1;
nodes = (
"440 185 LINE",
"440 94 OFFCURVE",
"361 46 OFFCURVE",
"284 46 CURVE SMOOTH",
"208 46 OFFCURVE",
"110 93 OFFCURVE",
"110 240 CURVE SMOOTH",
"110 393 OFFCURVE",
"212 452 OFFCURVE",
"334 452 CURVE SMOOTH",
"373 452 OFFCURVE",
"434 445 OFFCURVE",
"484 424 CURVE",
"500 478 LINE",
"435 500 OFFCURVE",
"366 504 OFFCURVE",
"333 504 CURVE SMOOTH",
"154 504 OFFCURVE",
"46 398 OFFCURVE",
"46 237 CURVE SMOOTH",
"46 62 OFFCURVE",
"162 -10 OFFCURVE",
"268 -10 CURVE SMOOTH",
"345 -10 OFFCURVE",
"426 28 OFFCURVE",
"464 136 CURVE"
);
}
);
width = 600;
},
{
layerId = "83B83716-1CD1-47ED-B715-8773FED73F88";
paths = (
{
closed = 1;
nodes = (
"568 0 LINE",
"568 480 LINE",
"352 500 LINE",
"352 0 LINE"
);
},
{
closed = 1;
nodes = (
"352 237 LINE",
"352 196 OFFCURVE",
"327 177 OFFCURVE",
"299 177 CURVE SMOOTH",
"267 177 OFFCURVE",
"244 201 OFFCURVE",
"244 243 CURVE SMOOTH",
"244 298 OFFCURVE",
"285 325 OFFCURVE",
"328 325 CURVE SMOOTH",
"354 325 OFFCURVE",
"382 316 OFFCURVE",
"410 297 CURVE",
"568 480 LINE",
"490 498 OFFCURVE",
"409 508 OFFCURVE",
"338 508 CURVE SMOOTH",
"108 508 OFFCURVE",
"16 401 OFFCURVE",
"16 234 CURVE SMOOTH",
"16 64 OFFCURVE",
"123 -8 OFFCURVE",
"224 -8 CURVE SMOOTH",
"296 -8 OFFCURVE",
"344 28 OFFCURVE",
"372 106 CURVE"
);
}
);
width = 592;
}
);
leftMetricsKey = "=|p";
rightMetricsKey = "=|n";
},
{
color = 0;
glyphname = g.alt2;
lastChange = "2025-06-17 10:06:03 +0000";
layers = (
{
components = (
{
name = _panse;
transform = "{-1, 0, 0, -1, 628, 500}";
}
);
layerId = "D8D2F0D2-8948-448B-99CD-378CDFD0E0AE";
paths = (
{
closed = 1;
nodes = (
"190 -156 OFFCURVE",
"165 -114 OFFCURVE",
"128 -114 CURVE SMOOTH",
"109 -114 OFFCURVE",
"102 -126 OFFCURVE",
"102 -138 CURVE SMOOTH",
"102 -176 OFFCURVE",
"176 -212 OFFCURVE",
"295 -212 CURVE SMOOTH",
"449 -212 OFFCURVE",
"528 -150 OFFCURVE",
"528 -3 CURVE SMOOTH",
"528 500 LINE",
"468 500 LINE",
"468 -5 LINE SMOOTH",
"468 -125 OFFCURVE",
"388 -156 OFFCURVE",
"295 -156 CURVE SMOOTH"
);
}
);
width = 628;
},
{
associatedMasterId = "D8D2F0D2-8948-448B-99CD-378CDFD0E0AE";
layerId = "910B8762-DF4F-41E2-B2FC-9F357CAFE1B9";
name = "13 juin 25 à 12:50";
paths = (
{
closed = 1;
nodes = (
"155 -116 OFFCURVE",
"120 -116 CURVE SMOOTH",
"101 -116 OFFCURVE",
"95 -129 OFFCURVE",
"95 -140 CURVE SMOOTH",
"95 -176 OFFCURVE",
"160 -210 OFFCURVE",
"277 -210 CURVE SMOOTH",
"433 -210 OFFCURVE",
"520 -150 OFFCURVE",
"520 -5 CURVE SMOOTH",
"520 478 LINE",
"460 490 LINE",
"460 -5 LINE SMOOTH",
"460 -125 OFFCURVE",
"370 -156 OFFCURVE",
"282 -156 CURVE SMOOTH",
"182 -156 OFFCURVE"
);
},
{
closed = 1;
nodes = (
"460 185 LINE",
"460 94 OFFCURVE",
"381 46 OFFCURVE",
"304 46 CURVE SMOOTH",
"228 46 OFFCURVE",
"130 93 OFFCURVE",
"130 240 CURVE SMOOTH",
"130 393 OFFCURVE",
"232 452 OFFCURVE",
"354 452 CURVE SMOOTH",
"393 452 OFFCURVE",
"454 445 OFFCURVE",
"504 424 CURVE",
"520 478 LINE",
"455 500 OFFCURVE",
"386 504 OFFCURVE",
"353 504 CURVE SMOOTH",
"174 504 OFFCURVE",
"66 398 OFFCURVE",
"66 237 CURVE SMOOTH",
"66 62 OFFCURVE",
"182 -10 OFFCURVE",
"288 -10 CURVE SMOOTH",
"365 -10 OFFCURVE",
"446 28 OFFCURVE",
"484 136 CURVE"
);
}
);
width = 620;
},
{
associatedMasterId = "83B83716-1CD1-47ED-B715-8773FED73F88";
background = {
components = (
{
name = _panse;
transform = "{-1, 0, 0, -1, 510, 500}";
}
);
paths = (
{
closed = 1;
nodes = (
"354 500 LINE",
"354 -200 LINE",
"570 -200 LINE",
"570 500 LINE"
);
}
);
};
components = (
{
name = _panse;
transform = "{-1, 0, 0, -1, 510, 500}";
}
);
layerId = "3FCFE262-F012-4715-A3B8-0798C12C324E";
name = "17 juin 25 à 11:24";
paths = (
{
closed = 1;
nodes = (
"172 -40 OFFCURVE",
"150 -21 OFFCURVE",
"113 -21 CURVE SMOOTH",
"67 -21 OFFCURVE",
"39 -52 OFFCURVE",
"39 -99 CURVE SMOOTH",
"39 -170 OFFCURVE",
"104 -210 OFFCURVE",
"266 -210 CURVE SMOOTH",
"457 -210 OFFCURVE",
"570 -154 OFFCURVE",
"570 41 CURVE SMOOTH",
"570 500 LINE",
"354 500 LINE",
"354 51 LINE SMOOTH",
"354 -11 OFFCURVE",
"315 -40 OFFCURVE",
"236 -40 CURVE SMOOTH"
);
}
);
width = 598;
},
{
background = {
components = (
{
name = _panse;
transform = "{-1, 0, 0, -1, 508, 500}";
}
);
paths = (
{
closed = 1;
nodes = (
"352 500 LINE",
"352 -200 LINE",
"568 -200 LINE",
"568 500 LINE"
);
}
);
};
layerId = "83B83716-1CD1-47ED-B715-8773FED73F88";
name = Black;
paths = (
{
closed = 1;
nodes = (
"148 -21 OFFCURVE",
"111 -21 CURVE SMOOTH",
"65 -21 OFFCURVE",
"37 -52 OFFCURVE",
"37 -99 CURVE SMOOTH",
"37 -170 OFFCURVE",
"102 -210 OFFCURVE",
"250 -210 CURVE SMOOTH",
"415 -210 OFFCURVE",
"568 -154 OFFCURVE",
"568 41 CURVE SMOOTH",
"568 480 LINE",
"352 500 LINE",
"352 51 LINE SMOOTH",
"352 -11 OFFCURVE",
"313 -40 OFFCURVE",
"234 -40 CURVE SMOOTH",
"170 -40 OFFCURVE"
);
},
{
closed = 1;
nodes = (
"352 237 LINE",
"352 196 OFFCURVE",
"327 177 OFFCURVE",
"299 177 CURVE SMOOTH",
"267 177 OFFCURVE",
"244 201 OFFCURVE",
"244 243 CURVE SMOOTH",
"244 298 OFFCURVE",
"285 325 OFFCURVE",
"328 325 CURVE SMOOTH",
"354 325 OFFCURVE",
"382 316 OFFCURVE",
"410 297 CURVE",
"568 480 LINE",
"490 498 OFFCURVE",
"409 508 OFFCURVE",
"338 508 CURVE SMOOTH",
"108 508 OFFCURVE",
"16 401 OFFCURVE",
"16 234 CURVE SMOOTH",
"16 64 OFFCURVE",
"123 -8 OFFCURVE",
"224 -8 CURVE SMOOTH",
"296 -8 OFFCURVE",
"344 28 OFFCURVE",
"372 106 CURVE"
);
}
);
width = 592;
}
);
leftMetricsKey = "=o";
rightMetricsKey = "=|n";
},
{
glyphname = a.ss01;
lastChange = "2025-06-17 09:33:07 +0000";
layers = (
{
components = (
{
name = _panse;
transform = "{-1, 0, 0, -1, 600, 500}";
}
);
layerId = "D8D2F0D2-8948-448B-99CD-378CDFD0E0AE";
paths = (
{
closed = 1;
nodes = (
"440 500 LINE",
"440 0 LINE",
"500 0 LINE",
"500 500 LINE"
);
}
);
width = 600;
},
{
components = (
{
name = _panse;
transform = "{-1, 0, 0, -1, 496, 500}";
}
);
layerId = "83B83716-1CD1-47ED-B715-8773FED73F88";
paths = (
{
closed = 1;
nodes = (
"340 500 LINE",
"340 0 LINE",
"556 0 LINE",
"556 500 LINE"
);
}
);
width = 600;
},
{
associatedMasterId = "83B83716-1CD1-47ED-B715-8773FED73F88";
layerId = "5B2458D9-239B-4F76-8740-6AF0D5FFC736";
name = "17 juin 25 à 11:30";
paths = (
{
closed = 1;
nodes = (
"366 310 LINE",
"366 0 LINE",
"582 0 LINE",
"582 270 LINE"
);
},
{
closed = 1;
nodes = (
"366 246 LINE",
"366 194 OFFCURVE",
"339 177 OFFCURVE",
"313 177 CURVE SMOOTH",
"288 177 OFFCURVE",
"256 193 OFFCURVE",
"256 254 CURVE SMOOTH",
"256 311 OFFCURVE",
"284 333 OFFCURVE",
"314 333 CURVE SMOOTH",
"343 333 OFFCURVE",
"366 312 OFFCURVE",
"366 266 CURVE",
"582 270 LINE",
"582 414 OFFCURVE",
"504 512 OFFCURVE",
"314 512 CURVE SMOOTH",
"122 512 OFFCURVE",
"28 411 OFFCURVE",
"28 250 CURVE SMOOTH",
"28 84 OFFCURVE",
"125 -8 OFFCURVE",
"232 -8 CURVE SMOOTH",
"300 -8 OFFCURVE",
"358 28 OFFCURVE",
"386 106 CURVE"
);
}
);
width = 600;
}
);
},
{
color = 4;
glyphname = b.ss02;
lastChange = "2025-06-18 08:19:07 +0000";
layers = (
{
associatedMasterId = "83B83716-1CD1-47ED-B715-8773FED73F88";
components = (
{
name = _panse;
transform = "{1, 0, 0, 1, 88, 0}";
}
);
layerId = "4F22905C-C640-4667-B8B2-386EE82FBB6A";
name = "17 juin 25 à 11:29";
paths = (
{
closed = 1;
nodes = (
"244 0 LINE",
"244 720 LINE",
"28 720 LINE",
"28 0 LINE"
);
}
);
width = 598;
},
{
layerId = "83B83716-1CD1-47ED-B715-8773FED73F88";
name = Black;
paths = (
{
closed = 1;
nodes = (
"244 190 LINE",
"244 720 LINE",
"28 720 LINE",
"28 230 LINE"
);
},
{
closed = 1;
nodes = (
"244 254 LINE",
"244 306 OFFCURVE",
"271 323 OFFCURVE",
"297 323 CURVE SMOOTH",
"322 323 OFFCURVE",
"354 307 OFFCURVE",
"354 246 CURVE SMOOTH",
"354 189 OFFCURVE",
"326 167 OFFCURVE",
"296 167 CURVE SMOOTH",
"267 167 OFFCURVE",
"244 188 OFFCURVE",
"244 234 CURVE",
"28 230 LINE",
"28 66 OFFCURVE",
"110 -12 OFFCURVE",
"291 -12 CURVE SMOOTH",
"492 -12 OFFCURVE",
"582 89 OFFCURVE",
"582 250 CURVE SMOOTH",
"582 416 OFFCURVE",
"485 508 OFFCURVE",
"378 508 CURVE SMOOTH",
"310 508 OFFCURVE",
"252 472 OFFCURVE",
"224 394 CURVE"
);
}
);
width = 598;
},
{
associatedMasterId = "D8D2F0D2-8948-448B-99CD-378CDFD0E0AE";
components = (
{
name = _panse;
}
);
layerId = "A59CCDF6-AE2D-4FEC-BB69-39AA253E0776";
name = "17 juin 25 à 11:29";
paths = (
{
closed = 1;
nodes = (
"160 0 LINE",
"160 720 LINE",
"100 720 LINE",
"100 0 LINE"
);
}
);
width = 628;
},
{
layerId = "D8D2F0D2-8948-448B-99CD-378CDFD0E0AE";
name = Thin;
paths = (
{
closed = 1;
nodes = (
"160 170 LINE",
"160 720 LINE",
"100 720 LINE",
"100 205 LINE"
);
},
{
closed = 1;
nodes = (
"160 315 LINE",
"160 406 OFFCURVE",
"239 454 OFFCURVE",
"316 454 CURVE SMOOTH",
"392 454 OFFCURVE",
"498 407 OFFCURVE",
"498 247 CURVE SMOOTH",
"498 107 OFFCURVE",
"418 44 OFFCURVE",
"323 44 CURVE SMOOTH",
"247 44 OFFCURVE",
"160 84 OFFCURVE",
"160 205 CURVE",
"100 205 LINE",
"100 68 OFFCURVE",
"184 -12 OFFCURVE",
"323 -12 CURVE SMOOTH",
"482 -12 OFFCURVE",
"562 92 OFFCURVE",
"562 247 CURVE SMOOTH",
"562 438 OFFCURVE",
"438 510 OFFCURVE",
"333 510 CURVE SMOOTH",
"255 510 OFFCURVE",
"174 472 OFFCURVE",
"136 374 CURVE"
);
}
);
width = 628;
}
);
leftMetricsKey = "=n";
rightMetricsKey = "=o";
},
{
color = 6;
glyphname = g.ss03;
lastChange = "2025-06-18 08:19:11 +0000";
layers = (
{
layerId = "D8D2F0D2-8948-448B-99CD-378CDFD0E0AE";
width = 600;
},
{
layerId = "83B83716-1CD1-47ED-B715-8773FED73F88";
paths = (
{
closed = 1;
nodes = (
"16 249 OFFCURVE",
"111 212 OFFCURVE",
"296 212 CURVE SMOOTH",
"490 212 OFFCURVE",
"594 253 OFFCURVE",
"594 367 CURVE SMOOTH",
"594 477 OFFCURVE",
"500 512 OFFCURVE",
"315 512 CURVE SMOOTH",
"121 512 OFFCURVE",
"16 472 OFFCURVE",
"16 358 CURVE SMOOTH"
);
},
{
closed = 1;
nodes = (
"266 395 OFFCURVE",
"280 412 OFFCURVE",
"306 412 CURVE SMOOTH",
"332 412 OFFCURVE",
"344 396 OFFCURVE",
"344 363 CURVE SMOOTH",
"344 329 OFFCURVE",
"329 312 OFFCURVE",
"304 312 CURVE SMOOTH",
"279 312 OFFCURVE",
"266 328 OFFCURVE",
"266 362 CURVE SMOOTH"
);
},
{
closed = 1;
nodes = (
"480 439 LINE",
"480 494 OFFCURVE",
"482 528 OFFCURVE",
"505 528 CURVE SMOOTH",
"520 528 OFFCURVE",
"543 514 OFFCURVE",
"572 514 CURVE SMOOTH",
"605 514 OFFCURVE",
"638 532 OFFCURVE",
"638 586 CURVE SMOOTH",
"638 651 OFFCURVE",
"589 688 OFFCURVE",
"524 688 CURVE SMOOTH",
"438 688 OFFCURVE",
"349 624 OFFCURVE",
"359 456 CURVE"
);
},
{
closed = 1;
nodes = (
"73 226 OFFCURVE",
"18 190 OFFCURVE",
"18 115 CURVE SMOOTH",
"18 41 OFFCURVE",
"70 -10 OFFCURVE",
"205 -10 CURVE SMOOTH",
"341 -10 LINE SMOOTH",
"375 -10 OFFCURVE",
"384 -23 OFFCURVE",
"384 -34 CURVE SMOOTH",
"384 -48 OFFCURVE",
"369 -59 OFFCURVE",
"329 -59 CURVE SMOOTH",
"262 -59 OFFCURVE",
"203 -27 OFFCURVE",
"139 -27 CURVE SMOOTH",
"72 -27 OFFCURVE",
"43 -62 OFFCURVE",
"43 -102 CURVE SMOOTH",
"43 -192 OFFCURVE",
"164 -212 OFFCURVE",
"286 -212 CURVE SMOOTH",
"518 -212 OFFCURVE",
"616 -138 OFFCURVE",
"616 6 CURVE SMOOTH",
"616 106 OFFCURVE",
"569 182 OFFCURVE",
"375 182 CURVE SMOOTH",
"265 182 LINE SMOOTH",
"225 182 OFFCURVE",
"209 194 OFFCURVE",
"235 233 CURVE",
"134 240 LINE"
);
}
);
width = 616;
},
{
associatedMasterId = "83B83716-1CD1-47ED-B715-8773FED73F88";
layerId = "A28FBD9C-2A69-4563-ABDE-2E2E8E43C805";
name = "17 juin 25 à 12:27";
paths = (
{
closed = 1;
nodes = (
"16 249 OFFCURVE",
"111 212 OFFCURVE",
"296 212 CURVE SMOOTH",
"490 212 OFFCURVE",
"594 253 OFFCURVE",
"594 367 CURVE SMOOTH",
"594 477 OFFCURVE",
"500 512 OFFCURVE",
"315 512 CURVE SMOOTH",
"121 512 OFFCURVE",
"16 472 OFFCURVE",
"16 358 CURVE SMOOTH"
);
},
{
closed = 1;
nodes = (
"266 395 OFFCURVE",
"280 412 OFFCURVE",
"306 412 CURVE SMOOTH",
"332 412 OFFCURVE",
"344 396 OFFCURVE",
"344 363 CURVE SMOOTH",
"344 329 OFFCURVE",
"329 312 OFFCURVE",
"304 312 CURVE SMOOTH",
"279 312 OFFCURVE",
"266 328 OFFCURVE",
"266 362 CURVE SMOOTH"
);
},
{
closed = 1;
nodes = (
"565 431 OFFCURVE",
"629 470 OFFCURVE",
"629 556 CURVE SMOOTH",
"629 621 OFFCURVE",
"592 670 OFFCURVE",
"522 670 CURVE SMOOTH",
"473 670 OFFCURVE",
"445 645 OFFCURVE",
"445 604 CURVE SMOOTH",
"445 575 OFFCURVE",
"455 552 OFFCURVE",
"455 537 CURVE SMOOTH",
"455 514 OFFCURVE",
"435 512 OFFCURVE",
"340 512 CURVE",
"397 441 LINE"
);
},
{
closed = 1;
nodes = (
"73 226 OFFCURVE",
"18 190 OFFCURVE",
"18 115 CURVE SMOOTH",
"18 41 OFFCURVE",
"70 -10 OFFCURVE",
"205 -10 CURVE SMOOTH",
"341 -10 LINE SMOOTH",
"375 -10 OFFCURVE",
"384 -23 OFFCURVE",
"384 -34 CURVE SMOOTH",
"384 -48 OFFCURVE",
"369 -59 OFFCURVE",
"329 -59 CURVE SMOOTH",
"262 -59 OFFCURVE",
"203 -27 OFFCURVE",
"139 -27 CURVE SMOOTH",
"72 -27 OFFCURVE",
"43 -62 OFFCURVE",
"43 -102 CURVE SMOOTH",
"43 -192 OFFCURVE",
"164 -212 OFFCURVE",
"286 -212 CURVE SMOOTH",
"518 -212 OFFCURVE",
"616 -138 OFFCURVE",
"616 6 CURVE SMOOTH",
"616 106 OFFCURVE",
"569 182 OFFCURVE",
"375 182 CURVE SMOOTH",
"265 182 LINE SMOOTH",
"225 182 OFFCURVE",
"209 194 OFFCURVE",
"235 233 CURVE",
"134 240 LINE"
);
}
);
width = 616;
}
);
},
{
glyphname = a.ss04;
lastChange = "2025-06-17 11:20:58 +0000";
layers = (
{
layerId = "D8D2F0D2-8948-448B-99CD-378CDFD0E0AE";
paths = (
{
closed = 1;
nodes = (
"453 47 OFFCURVE",
"445 61 OFFCURVE",
"445 138 CURVE SMOOTH",
"445 346 LINE SMOOTH",
"445 472 OFFCURVE",
"380 510 OFFCURVE",
"276 510 CURVE SMOOTH",
"166 510 OFFCURVE",
"82 468 OFFCURVE",
"82 421 CURVE SMOOTH",
"82 406 OFFCURVE",
"92 400 OFFCURVE",
"104 400 CURVE SMOOTH",
"140 400 OFFCURVE",
"157 456 OFFCURVE",
"271 456 CURVE SMOOTH",
"342 456 OFFCURVE",
"385 435 OFFCURVE",
"385 345 CURVE SMOOTH",
"385 127 LINE",
"392 108 LINE",
"392 25 OFFCURVE",
"421 -16 OFFCURVE",
"516 0 CURVE",
"516 52 LINE"
);
},
{
closed = 1;
nodes = (
"290 -10 OFFCURVE",
"372 25 OFFCURVE",
"400 119 CURVE",
"385 185 LINE",
"385 96 OFFCURVE",
"304 42 OFFCURVE",
"225 42 CURVE SMOOTH",
"156 42 OFFCURVE",
"130 83 OFFCURVE",
"130 129 CURVE SMOOTH",
"130 204 OFFCURVE",
"199 237 OFFCURVE",
"397 278 CURVE",
"396 331 LINE",
"164 288 OFFCURVE",
"66 230 OFFCURVE",
"66 124 CURVE SMOOTH",
"66 44 OFFCURVE",
"122 -10 OFFCURVE",
"215 -10 CURVE SMOOTH"
);
}
);
width = 526;
},
{
layerId = "83B83716-1CD1-47ED-B715-8773FED73F88";
paths = (
{
closed = 1;
nodes = (
"558 150 OFFCURVE",
"554 167 OFFCURVE",
"554 211 CURVE SMOOTH",
"554 326 LINE SMOOTH",
"554 472 OFFCURVE",
"426 510 OFFCURVE",
"288 510 CURVE SMOOTH",
"167 510 OFFCURVE",
"4 493 OFFCURVE",
"4 382 CURVE SMOOTH",
"4 330 OFFCURVE",
"40 305 OFFCURVE",
"90 305 CURVE SMOOTH",
"157 305 OFFCURVE",
"218 352 OFFCURVE",
"299 352 CURVE SMOOTH",
"330 352 OFFCURVE",
"338 345 OFFCURVE",
"338 331 CURVE SMOOTH",
"338 143 LINE",
"342 101 LINE",
"361 0 OFFCURVE",
"448 -34 OFFCURVE",
"598 0 CURVE",
"598 160 LINE"
);
},
{
closed = 1;
nodes = (
"258 -10 OFFCURVE",
"326 28 OFFCURVE",
"358 96 CURVE",
"338 213 LINE",
"338 171 OFFCURVE",
"316 142 OFFCURVE",
"278 142 CURVE SMOOTH",
"257 142 OFFCURVE",
"246 151 OFFCURVE",
"246 167 CURVE SMOOTH",
"246 186 OFFCURVE",
"262 197 OFFCURVE",
"349 219 CURVE",
"351 333 LINE",
"114 302 OFFCURVE",
"10 253 OFFCURVE",
"10 134 CURVE SMOOTH",
"10 45 OFFCURVE",
"68 -10 OFFCURVE",
"174 -10 CURVE SMOOTH"
);
}
);
width = 600;
}
);
leftMetricsKey = "=a";
},
{
glyphname = l.ss04;
lastChange = "2025-06-17 09:33:22 +0000";
layers = (
{
layerId = "D8D2F0D2-8948-448B-99CD-378CDFD0E0AE";
paths = (
{
closed = 1;
nodes = (
"100 720 LINE",
"100 120 LINE SMOOTH",
"100 36 OFFCURVE",
"128 -24 OFFCURVE",
"260 0 CURVE",
"260 50 LINE",
"173 34 OFFCURVE",
"160 60 OFFCURVE",
"160 125 CURVE SMOOTH",
"160 720 LINE"
);
}
);
width = 288;
},
{
layerId = "83B83716-1CD1-47ED-B715-8773FED73F88";
paths = (
{
closed = 1;
nodes = (
"28 720 LINE",
"28 180 LINE SMOOTH",
"28 38 OFFCURVE",
"106 -29 OFFCURVE",
"304 11 CURVE",
"304 186 LINE",
"258 176 OFFCURVE",
"244 192 OFFCURVE",
"244 232 CURVE SMOOTH",
"244 720 LINE"
);
}
);
width = 312;
}
);
leftMetricsKey = "=l";
},
{
color = 1;
glyphname = g.ss05;
lastChange = "2025-06-18 08:19:15 +0000";
layers = (
{
layerId = "D8D2F0D2-8948-448B-99CD-378CDFD0E0AE";
width = 600;
},
{
layerId = "83B83716-1CD1-47ED-B715-8773FED73F88";
paths = (
{
closed = 1;
nodes = (
"16 249 OFFCURVE",
"111 212 OFFCURVE",
"296 212 CURVE SMOOTH",
"490 212 OFFCURVE",
"594 253 OFFCURVE",
"594 367 CURVE SMOOTH",
"594 477 OFFCURVE",
"500 512 OFFCURVE",
"315 512 CURVE SMOOTH",
"121 512 OFFCURVE",
"16 472 OFFCURVE",
"16 358 CURVE SMOOTH"
);
},
{
closed = 1;
nodes = (
"266 395 OFFCURVE",
"280 412 OFFCURVE",
"306 412 CURVE SMOOTH",
"332 412 OFFCURVE",
"344 396 OFFCURVE",
"344 363 CURVE SMOOTH",
"344 329 OFFCURVE",
"329 312 OFFCURVE",
"304 312 CURVE SMOOTH",
"279 312 OFFCURVE",
"266 328 OFFCURVE",
"266 362 CURVE SMOOTH"
);
},
{
closed = 1;
nodes = (
"480 439 LINE",
"480 494 OFFCURVE",
"482 528 OFFCURVE",
"505 528 CURVE SMOOTH",
"520 528 OFFCURVE",
"543 514 OFFCURVE",
"572 514 CURVE SMOOTH",
"605 514 OFFCURVE",
"638 532 OFFCURVE",
"638 586 CURVE SMOOTH",
"638 651 OFFCURVE",
"589 688 OFFCURVE",
"524 688 CURVE SMOOTH",
"438 688 OFFCURVE",
"349 624 OFFCURVE",
"359 456 CURVE"
);
},
{
closed = 1;
nodes = (
"73 226 OFFCURVE",
"18 190 OFFCURVE",
"18 115 CURVE SMOOTH",
"18 41 OFFCURVE",
"70 -10 OFFCURVE",
"205 -10 CURVE SMOOTH",
"341 -10 LINE SMOOTH",
"375 -10 OFFCURVE",
"384 -21 OFFCURVE",
"384 -31 CURVE SMOOTH",
"384 -48 OFFCURVE",
"359 -59 OFFCURVE",
"289 -59 CURVE SMOOTH",
"191 -59 OFFCURVE",
"189 -32 OFFCURVE",
"212 6 CURVE",
"117 19 LINE",
"69 4 OFFCURVE",
"13 -35 OFFCURVE",
"13 -100 CURVE SMOOTH",
"13 -192 OFFCURVE",
"124 -212 OFFCURVE",
"266 -212 CURVE SMOOTH",
"518 -212 OFFCURVE",
"616 -138 OFFCURVE",
"616 6 CURVE SMOOTH",
"616 106 OFFCURVE",
"569 182 OFFCURVE",
"375 182 CURVE SMOOTH",
"265 182 LINE SMOOTH",
"225 182 OFFCURVE",
"209 194 OFFCURVE",
"235 233 CURVE",
"134 240 LINE"
);
}
);
width = 616;
},
{
associatedMasterId = "83B83716-1CD1-47ED-B715-8773FED73F88";
layerId = "A28FBD9C-2A69-4563-ABDE-2E2E8E43C805";
name = "17 juin 25 à 12:27";
paths = (
{
closed = 1;
nodes = (
"16 249 OFFCURVE",
"111 212 OFFCURVE",
"296 212 CURVE SMOOTH",
"490 212 OFFCURVE",
"594 253 OFFCURVE",
"594 367 CURVE SMOOTH",
"594 477 OFFCURVE",
"500 512 OFFCURVE",
"315 512 CURVE SMOOTH",
"121 512 OFFCURVE",
"16 472 OFFCURVE",
"16 358 CURVE SMOOTH"
);
},
{
closed = 1;
nodes = (
"266 395 OFFCURVE",
"280 412 OFFCURVE",
"306 412 CURVE SMOOTH",
"332 412 OFFCURVE",
"344 396 OFFCURVE",
"344 363 CURVE SMOOTH",
"344 329 OFFCURVE",
"329 312 OFFCURVE",
"304 312 CURVE SMOOTH",
"279 312 OFFCURVE",
"266 328 OFFCURVE",
"266 362 CURVE SMOOTH"
);
},
{
closed = 1;
nodes = (
"565 431 OFFCURVE",
"629 470 OFFCURVE",
"629 556 CURVE SMOOTH",
"629 621 OFFCURVE",
"592 670 OFFCURVE",
"522 670 CURVE SMOOTH",
"473 670 OFFCURVE",
"445 645 OFFCURVE",
"445 604 CURVE SMOOTH",
"445 575 OFFCURVE",
"455 552 OFFCURVE",
"455 537 CURVE SMOOTH",
"455 514 OFFCURVE",
"435 512 OFFCURVE",
"340 512 CURVE",
"397 441 LINE"
);
},
{
closed = 1;
nodes = (
"73 226 OFFCURVE",
"18 190 OFFCURVE",
"18 115 CURVE SMOOTH",
"18 41 OFFCURVE",
"70 -10 OFFCURVE",
"205 -10 CURVE SMOOTH",
"341 -10 LINE SMOOTH",
"375 -10 OFFCURVE",
"384 -23 OFFCURVE",
"384 -34 CURVE SMOOTH",
"384 -48 OFFCURVE",
"369 -59 OFFCURVE",
"329 -59 CURVE SMOOTH",
"262 -59 OFFCURVE",
"203 -27 OFFCURVE",
"139 -27 CURVE SMOOTH",
"72 -27 OFFCURVE",
"43 -62 OFFCURVE",
"43 -102 CURVE SMOOTH",
"43 -192 OFFCURVE",
"164 -212 OFFCURVE",
"286 -212 CURVE SMOOTH",
"518 -212 OFFCURVE",
"616 -138 OFFCURVE",
"616 6 CURVE SMOOTH",
"616 106 OFFCURVE",
"569 182 OFFCURVE",
"375 182 CURVE SMOOTH",
"265 182 LINE SMOOTH",
"225 182 OFFCURVE",
"209 194 OFFCURVE",
"235 233 CURVE",
"134 240 LINE"
);
}
);
width = 616;
},
{
associatedMasterId = "83B83716-1CD1-47ED-B715-8773FED73F88";
layerId = "BA01A3A4-362B-4EA4-9800-C5360530FAEB";
name = "18 juin 25 à 09:50";
paths = (
{
closed = 1;
nodes = (
"16 249 OFFCURVE",
"111 212 OFFCURVE",
"296 212 CURVE SMOOTH",
"490 212 OFFCURVE",
"574 243 OFFCURVE",
"564 357 CURVE",
"315 512 LINE",
"121 512 OFFCURVE",
"16 472 OFFCURVE",
"16 358 CURVE SMOOTH"
);
},
{
closed = 1;
nodes = (
"266 395 OFFCURVE",
"280 412 OFFCURVE",
"306 412 CURVE SMOOTH",
"332 412 OFFCURVE",
"344 396 OFFCURVE",
"344 363 CURVE SMOOTH",
"344 329 OFFCURVE",
"329 312 OFFCURVE",
"304 312 CURVE SMOOTH",
"279 312 OFFCURVE",
"266 328 OFFCURVE",
"266 362 CURVE SMOOTH"
);
},
{
closed = 1;
nodes = (
"73 226 OFFCURVE",
"18 190 OFFCURVE",
"18 115 CURVE SMOOTH",
"18 41 OFFCURVE",
"70 -10 OFFCURVE",
"205 -10 CURVE SMOOTH",
"341 -10 LINE SMOOTH",
"375 -10 OFFCURVE",
"384 -23 OFFCURVE",
"384 -34 CURVE SMOOTH",
"384 -48 OFFCURVE",
"369 -59 OFFCURVE",
"329 -59 CURVE SMOOTH",
"262 -59 OFFCURVE",
"203 -27 OFFCURVE",
"139 -27 CURVE SMOOTH",
"72 -27 OFFCURVE",
"43 -62 OFFCURVE",
"43 -102 CURVE SMOOTH",
"43 -192 OFFCURVE",
"164 -212 OFFCURVE",
"286 -212 CURVE SMOOTH",
"518 -212 OFFCURVE",
"616 -138 OFFCURVE",
"616 6 CURVE SMOOTH",
"616 106 OFFCURVE",
"569 182 OFFCURVE",
"375 182 CURVE SMOOTH",
"265 182 LINE SMOOTH",
"225 182 OFFCURVE",
"209 194 OFFCURVE",
"235 233 CURVE",
"134 240 LINE"
);
},
{
closed = 1;
nodes = (
"539 340 OFFCURVE",
"586 310 OFFCURVE",
"644 320 CURVE",
"644 500 LINE",
"549 490 OFFCURVE",
"421 512 OFFCURVE",
"315 512 CURVE",
"481 360 LINE"
);
}
);
width = 644;
}
);
},
{
color = 5;
glyphname = k.ss05;
lastChange = "2025-06-18 08:20:48 +0000";
layers = (
{
layerId = "D8D2F0D2-8948-448B-99CD-378CDFD0E0AE";
paths = (
{
closed = 1;
nodes = (
"160 0 LINE",
"160 720 LINE",
"100 720 LINE",
"100 0 LINE"
);
},
{
closed = 1;
nodes = (
"486 500 LINE",
"410 500 LINE",
"117 208 LINE",
"160 176 LINE"
);
},
{
closed = 1;
nodes = (
"202 272 LINE",
"431 0 LINE",
"510 0 LINE",
"254 304 LINE"
);
}
);
width = 522;
},
{
associatedMasterId = "83B83716-1CD1-47ED-B715-8773FED73F88";
layerId = "F9955363-F8D9-47DB-A8A5-6FDD80476128";
name = "13 juin 25 à 12:10";
paths = (
{
closed = 1;
nodes = (
"240 0 LINE",
"240 740 LINE",
"24 740 LINE",
"24 0 LINE"
);
},
{
closed = 1;
nodes = (
"586 500 LINE",
"334 500 LINE",
"107 208 LINE",
"229 86 LINE"
);
},
{
closed = 1;
nodes = (
"197 262 LINE",
"329 80 LINE SMOOTH",
"381 8 OFFCURVE",
"418 -14 OFFCURVE",
"468 -14 CURVE SMOOTH",
"573 -14 OFFCURVE",
"604 86 OFFCURVE",
"532 177 CURVE SMOOTH",
"399 344 LINE"
);
}
);
width = 590;
},
{
associatedMasterId = "D8D2F0D2-8948-448B-99CD-378CDFD0E0AE";
layerId = "F414CA67-C7A4-4130-ADBE-AF8DB7DEFE88";
name = "13 juin 25 à 12:41";
paths = (
{
closed = 1;
nodes = (
"160 0 LINE",
"160 740 LINE",
"100 740 LINE",
"100 0 LINE"
);
},
{
closed = 1;
nodes = (
"486 500 LINE",
"410 500 LINE",
"117 208 LINE",
"160 176 LINE"
);
},
{
closed = 1;
nodes = (
"201 272 LINE",
"425 17 LINE SMOOTH",
"444 -4 OFFCURVE",
"456 -11 OFFCURVE",
"470 -11 CURVE SMOOTH",
"500 -11 OFFCURVE",
"498 24 OFFCURVE",
"475 51 CURVE SMOOTH",
"254 304 LINE"
);
}
);
width = 522;
},
{
associatedMasterId = "83B83716-1CD1-47ED-B715-8773FED73F88";
layerId = "4193ED1E-EB43-4E56-8372-5D62B9E8AA92";
name = "18 juin 25 à 09:58";
paths = (
{
closed = 1;
nodes = (
"244 0 LINE",
"244 720 LINE",
"28 720 LINE",
"28 0 LINE"
);
},
{
closed = 1;
nodes = (
"390 280 OFFCURVE",
"438 302 OFFCURVE",
"547 288 CURVE",
"547 500 LINE",
"390 527 OFFCURVE",
"312 477 OFFCURVE",
"101 208 CURVE",
"223 86 LINE"
);
},
{
closed = 1;
nodes = (
"201 262 LINE",
"340 0 LINE",
"604 0 LINE",
"381 344 LINE"
);
}
);
width = 604;
},
{
associatedMasterId = "83B83716-1CD1-47ED-B715-8773FED73F88";
layerId = "0D8EFD48-EE5C-4196-A649-214F05787BCC";
name = "18 juin 25 à 10:20";
paths = (
{
closed = 1;
nodes = (
"244 0 LINE",
"244 720 LINE",
"28 720 LINE",
"28 0 LINE"
);
},
{
closed = 1;
nodes = (
"590 500 LINE",
"338 500 LINE",
"111 208 LINE",
"233 86 LINE"
);
},
{
closed = 1;
nodes = (
"201 262 LINE",
"340 0 LINE",
"604 0 LINE",
"381 344 LINE"
);
}
);
width = 604;
},
{
layerId = "83B83716-1CD1-47ED-B715-8773FED73F88";
name = Black;
paths = (
{
closed = 1;
nodes = (
"244 0 LINE",
"244 720 LINE",
"28 720 LINE",
"28 0 LINE"
);
},
{
closed = 1;
nodes = (
"493 305 LINE SMOOTH",
"532 336 OFFCURVE",
"554 372 OFFCURVE",
"554 415 CURVE SMOOTH",
"554 467 OFFCURVE",
"521 512 OFFCURVE",
"454 512 CURVE SMOOTH",
"398 512 OFFCURVE",
"353 481 OFFCURVE",
"314 440 CURVE SMOOTH",
"93 208 LINE",
"214 86 LINE"
);
},
{
closed = 1;
nodes = (
"191 262 LINE",
"330 0 LINE",
"594 0 LINE",
"381 344 LINE"
);
}
);
width = 594;
}
);
leftMetricsKey = "=n";
},
{
glyphname = i.ss08;
lastChange = "2025-06-17 13:15:46 +0000";
layers = (
{
components = (
{
name = idotless;
},
{
name = dotaccentcomb;
}
);
layerId = "D8D2F0D2-8948-448B-99CD-378CDFD0E0AE";
width = 260;
},
{
anchors = (
{
name = bottom;
position = "{200, 0}";
},
{
name = ogonek;
position = "{200, 0}";
},
{
name = top;
position = "{200, 500}";
}
);
components = (
{
name = dotaccentcomb;
transform = "{1, 0, 0, 1, 58, 0}";
}
);
layerId = "83B83716-1CD1-47ED-B715-8773FED73F88";
paths = (
{
closed = 1;
nodes = (
"308 0 LINE",
"308 500 LINE",
"92 500 LINE",
"92 0 LINE"
);
},
{
closed = 1;
nodes = (
"92 500 LINE",
"39 500 OFFCURVE",
"0 467 OFFCURVE",
"0 416 CURVE SMOOTH",
"0 359 OFFCURVE",
"46 330 OFFCURVE",
"90 330 CURVE SMOOTH",
"92 330 LINE"
);
}
);
width = 338;
}
);
},
{
glyphname = zero;
lastChange = "2025-06-11 14:58:15 +0000";
layers = (
{
layerId = "D8D2F0D2-8948-448B-99CD-378CDFD0E0AE";
paths = (
{
closed = 1;
nodes = (
"44 130 OFFCURVE",
"145 -12 OFFCURVE",
"299 -12 CURVE SMOOTH",
"455 -12 OFFCURVE",
"556 140 OFFCURVE",
"556 385 CURVE SMOOTH",
"556 614 OFFCURVE",
"461 752 OFFCURVE",
"311 752 CURVE SMOOTH",
"152 752 OFFCURVE",
"44 595 OFFCURVE",
"44 355 CURVE SMOOTH"
);
},
{
closed = 1;
nodes = (
"110 565 OFFCURVE",
"189 692 OFFCURVE",
"307 692 CURVE SMOOTH",
"418 692 OFFCURVE",
"490 577 OFFCURVE",
"490 379 CURVE SMOOTH",
"490 169 OFFCURVE",
"418 48 OFFCURVE",
"303 48 CURVE SMOOTH",
"188 48 OFFCURVE",
"110 168 OFFCURVE",
"110 361 CURVE SMOOTH"
);
}
);
width = 600;
},
{
layerId = "83B83716-1CD1-47ED-B715-8773FED73F88";
paths = (
{
closed = 1;
nodes = (
"4 120 OFFCURVE",
"118 -12 OFFCURVE",
"329 -12 CURVE SMOOTH",
"532 -12 OFFCURVE",
"656 110 OFFCURVE",
"656 375 CURVE SMOOTH",
"656 624 OFFCURVE",
"549 752 OFFCURVE",
"343 752 CURVE SMOOTH",
"137 752 OFFCURVE",
"4 625 OFFCURVE",
"4 365 CURVE SMOOTH"
);
},
{
closed = 1;
nodes = (
"250 522 OFFCURVE",
"282 568 OFFCURVE",
"331 568 CURVE SMOOTH",
"380 568 OFFCURVE",
"410 523 OFFCURVE",
"410 376 CURVE SMOOTH",
"410 218 OFFCURVE",
"378 172 OFFCURVE",
"329 172 CURVE SMOOTH",
"280 172 OFFCURVE",
"250 217 OFFCURVE",
"250 364 CURVE SMOOTH"
);
}
);
width = 660;
}
);
rightMetricsKey = "=|";
unicode = 0030;
},
{
glyphname = one;
lastChange = "2025-06-13 22:18:52 +0000";
layers = (
{
layerId = "D8D2F0D2-8948-448B-99CD-378CDFD0E0AE";
paths = (
{
closed = 1;
nodes = (
"314 0 LINE",
"314 740 LINE",
"250 740 LINE",
"250 0 LINE"
);
},
{
closed = 1;
nodes = (
"266 688 LINE",
"250 740 LINE",
"87 648 LINE SMOOTH",
"37 620 OFFCURVE",
"70 566 OFFCURVE",
"118 596 CURVE SMOOTH"
);
}
);
width = 450;
},
{
layerId = "83B83716-1CD1-47ED-B715-8773FED73F88";
paths = (
{
closed = 1;
nodes = (
"516 0 LINE",
"516 740 LINE",
"280 740 LINE",
"280 0 LINE"
);
},
{
closed = 1;
nodes = (
"367 564 LINE",
"280 740 LINE",
"116 648 LINE SMOOTH",
"-34 564 OFFCURVE",
"101 359 OFFCURVE",
"237 464 CURVE SMOOTH"
);
}
);
width = 600;
}
);
unicode = 0031;
},
{
glyphname = two;
lastChange = "2025-06-14 10:22:36 +0000";
layers = (
{
layerId = "D8D2F0D2-8948-448B-99CD-378CDFD0E0AE";
paths = (
{
closed = 1;
nodes = (
"132 39 LINE",
"135 388 OFFCURVE",
"543 245 OFFCURVE",
"543 536 CURVE SMOOTH",
"543 661 OFFCURVE",
"463 750 OFFCURVE",
"320 750 CURVE SMOOTH",
"202 750 OFFCURVE",
"90 686 OFFCURVE",
"90 620 CURVE SMOOTH",
"90 604 OFFCURVE",
"98 595 OFFCURVE",
"111 595 CURVE SMOOTH",
"153 595 OFFCURVE",
"173 692 OFFCURVE",
"317 692 CURVE SMOOTH",
"426 692 OFFCURVE",
"479 624 OFFCURVE",
"479 539 CURVE SMOOTH",
"479 302 OFFCURVE",
"64 437 OFFCURVE",
"64 0 CURVE"
);
},
{
closed = 1;
nodes = (
"556 0 LINE",
"556 60 LINE",
"94 60 LINE",
"64 0 LINE"
);
}
);
width = 600;
},
{
layerId = "83B83716-1CD1-47ED-B715-8773FED73F88";
paths = (
{
closed = 1;
nodes = (
"306 129 LINE",
"306 332 OFFCURVE",
"614 252 OFFCURVE",
"614 509 CURVE SMOOTH",
"614 648 OFFCURVE",
"513 732 OFFCURVE",
"343 732 CURVE SMOOTH",
"237 732 OFFCURVE",
"57 699 OFFCURVE",
"57 575 CURVE SMOOTH",
"57 518 OFFCURVE",
"95 481 OFFCURVE",
"149 481 CURVE SMOOTH",
"222 481 OFFCURVE",
"256 552 OFFCURVE",
"328 552 CURVE SMOOTH",
"362 552 OFFCURVE",
"378 536 OFFCURVE",
"378 510 CURVE SMOOTH",
"378 390 OFFCURVE",
"44 430 OFFCURVE",
"44 0 CURVE"
);
},
{
closed = 1;
nodes = (
"626 0 LINE",
"626 180 LINE",
"94 180 LINE",
"44 0 LINE"
);
}
);
width = 660;
},
{
associatedMasterId = "D8D2F0D2-8948-448B-99CD-378CDFD0E0AE";
layerId = "24E6C80F-32C1-47B8-AF2C-0071E576D8FD";
name = "Sep 10 21, 23:45";
paths = (
{
closed = 1;
nodes = (
"172 678 OFFCURVE",
"243 730 OFFCURVE",
"329 730 CURVE SMOOTH",
"426 730 OFFCURVE",
"481 664 OFFCURVE",
"481 574 CURVE SMOOTH",
"481 334 OFFCURVE",
"64 387 OFFCURVE",
"64 0 CURVE",
"125 0 LINE",
"124 357 OFFCURVE",
"543 287 OFFCURVE",
"543 574 CURVE SMOOTH",
"543 700 OFFCURVE",
"463 790 OFFCURVE",
"331 790 CURVE SMOOTH",
"217 790 OFFCURVE",
"126 724 OFFCURVE",
"76 613 CURVE",
"133 588 LINE"
);
},
{
closed = 1;
nodes = (
"94 0 LINE",
"556 0 LINE",
"556 60 LINE",
"94 60 LINE"
);
}
);
width = 600;
}
);
unicode = 0032;
},
{
glyphname = three;
lastChange = "2025-06-11 05:38:18 +0000";
layers = (
{
layerId = "D8D2F0D2-8948-448B-99CD-378CDFD0E0AE";
paths = (
{
closed = 1;
nodes = (
"414 370 OFFCURVE",
"539 423 OFFCURVE",
"539 557 CURVE SMOOTH",
"539 666 OFFCURVE",
"457 750 OFFCURVE",
"320 750 CURVE",
"317 692 LINE",
"420 692 OFFCURVE",
"475 630 OFFCURVE",
"475 552 CURVE SMOOTH",
"475 447 OFFCURVE",
"376 414 OFFCURVE",
"255 414 CURVE",
"255 370 LINE"
);
},
{
closed = 1;
nodes = (
"185 356 LINE",
"255 356 LINE",
"255 414 LINE",
"185 414 LINE"
);
},
{
closed = 1;
nodes = (
"202 750 OFFCURVE",
"90 686 OFFCURVE",
"90 620 CURVE SMOOTH",
"90 604 OFFCURVE",
"98 595 OFFCURVE",
"111 595 CURVE SMOOTH",
"153 595 OFFCURVE",
"173 692 OFFCURVE",
"317 692 CURVE",
"320 750 LINE"
);
},
{
closed = 1;
nodes = (
"94 41 LINE",
"149 10 OFFCURVE",
"218 -10 OFFCURVE",
"293 -10 CURVE SMOOTH",
"436 -10 OFFCURVE",
"548 67 OFFCURVE",
"548 201 CURVE SMOOTH",
"548 376 OFFCURVE",
"357 405 OFFCURVE",
"255 405 CURVE",
"255 356 LINE",
"382 356 OFFCURVE",
"484 304 OFFCURVE",
"484 200 CURVE SMOOTH",
"484 115 OFFCURVE",
"417 48 OFFCURVE",
"296 48 CURVE SMOOTH",
"227 48 OFFCURVE",
"157 70 OFFCURVE",
"94 109 CURVE"
);
}
);
width = 600;
},
{
layerId = "83B83716-1CD1-47ED-B715-8773FED73F88";
width = 600;
},
{
associatedMasterId = "D8D2F0D2-8948-448B-99CD-378CDFD0E0AE";
layerId = "FFA630A1-16CC-4EE5-8BC8-5692722E01EF";
name = "30 mai 25 à 17:26";
paths = (
{
closed = 1;
nodes = (
"414 390 OFFCURVE",
"539 443 OFFCURVE",
"539 585 CURVE SMOOTH",
"539 700 OFFCURVE",
"457 790 OFFCURVE",
"325 790 CURVE SMOOTH",
"211 790 OFFCURVE",
"120 724 OFFCURVE",
"70 643 CURVE",
"121 607 LINE",
"168 682 OFFCURVE",
"237 732 OFFCURVE",
"322 732 CURVE SMOOTH",
"420 732 OFFCURVE",
"475 664 OFFCURVE",
"475 580 CURVE SMOOTH",
"475 467 OFFCURVE",
"376 434 OFFCURVE",
"255 434 CURVE",
"255 390 LINE"
);
},
{
closed = 1;
nodes = (
"484 115 OFFCURVE",
"417 48 OFFCURVE",
"296 48 CURVE SMOOTH",
"215 48 OFFCURVE",
"157 79 OFFCURVE",
"103 163 CURVE",
"48 122 LINE",
"102 31 OFFCURVE",
"190 -10 OFFCURVE",
"293 -10 CURVE SMOOTH",
"436 -10 OFFCURVE",
"548 67 OFFCURVE",
"548 208 CURVE SMOOTH",
"548 396 OFFCURVE",
"357 425 OFFCURVE",
"255 425 CURVE",
"255 376 LINE",
"382 376 OFFCURVE",
"484 324 OFFCURVE",
"484 207 CURVE SMOOTH"
);
},
{
closed = 1;
nodes = (
"185 376 LINE",
"255 376 LINE",
"255 434 LINE",
"185 434 LINE"
);
}
);
width = 600;
}
);
unicode = 0033;
},
{
glyphname = four;
lastChange = "2025-06-11 14:54:37 +0000";
layers = (
{
layerId = "D8D2F0D2-8948-448B-99CD-378CDFD0E0AE";
paths = (
{
closed = 1;
nodes = (
"574 224 LINE",
"574 284 LINE",
"78 284 LINE",
"456 780 LINE",
"392 780 LINE",
"39 319 LINE SMOOTH",
"18 291 OFFCURVE",
"12 275 OFFCURVE",
"12 259 CURVE SMOOTH",
"12 231 OFFCURVE",
"32 224 OFFCURVE",
"68 224 CURVE SMOOTH"
);
},
{
closed = 1;
nodes = (
"456 0 LINE",
"456 780 LINE",
"392 780 LINE",
"392 0 LINE"
);
}
);
width = 600;
},
{
layerId = "83B83716-1CD1-47ED-B715-8773FED73F88";
paths = (
{
closed = 1;
nodes = (
"704 118 LINE",
"704 308 LINE",
"224 308 LINE",
"580 740 LINE",
"360 740 LINE",
"77 399 LINE SMOOTH",
"28 340 OFFCURVE",
"16 293 OFFCURVE",
"16 257 CURVE SMOOTH",
"16 168 OFFCURVE",
"75 118 OFFCURVE",
"188 118 CURVE SMOOTH"
);
},
{
closed = 1;
nodes = (
"596 0 LINE",
"596 740 LINE",
"360 740 LINE",
"360 0 LINE"
);
}
);
width = 734;
}
);
unicode = 0034;
},
{
glyphname = five;
lastChange = "2025-06-13 22:44:17 +0000";
layers = (
{
layerId = "D8D2F0D2-8948-448B-99CD-378CDFD0E0AE";
paths = (
{
closed = 1;
nodes = (
"495 115 OFFCURVE",
"417 48 OFFCURVE",
"296 48 CURVE SMOOTH",
"227 48 OFFCURVE",
"157 70 OFFCURVE",
"94 109 CURVE",
"94 41 LINE",
"149 10 OFFCURVE",
"222 -10 OFFCURVE",
"297 -10 CURVE SMOOTH",
"440 -10 OFFCURVE",
"565 67 OFFCURVE",
"565 217 CURVE SMOOTH",
"565 352 OFFCURVE",
"460 482 OFFCURVE",
"163 428 CURVE",
"105 363 LINE",
"423 426 OFFCURVE",
"495 312 OFFCURVE",
"495 215 CURVE SMOOTH"
);
},
{
closed = 1;
nodes = (
"145 682 LINE",
"531 682 LINE",
"531 740 LINE",
"145 740 LINE"
);
},
{
closed = 1;
nodes = (
"105 363 LINE",
"168 406 LINE",
"203 740 LINE",
"145 740 LINE"
);
}
);
width = 600;
},
{
layerId = "83B83716-1CD1-47ED-B715-8773FED73F88";
paths = (
{
closed = 1;
nodes = (
"332 196 OFFCURVE",
"279 176 OFFCURVE",
"199 176 CURVE SMOOTH",
"148 176 OFFCURVE",
"91 184 OFFCURVE",
"34 199 CURVE",
"34 19 LINE",
"89 2 OFFCURVE",
"168 -12 OFFCURVE",
"246 -12 CURVE SMOOTH",
"453 -12 OFFCURVE",
"578 82 OFFCURVE",
"578 240 CURVE SMOOTH",
"578 396 OFFCURVE",
"455 519 OFFCURVE",
"106 452 CURVE",
"41 280 LINE",
"254 306 OFFCURVE",
"332 282 OFFCURVE",
"332 235 CURVE SMOOTH"
);
},
{
closed = 1;
nodes = (
"80 560 LINE",
"546 560 LINE",
"546 740 LINE",
"80 740 LINE"
);
},
{
closed = 1;
nodes = (
"41 280 LINE",
"274 406 LINE",
"303 740 LINE",
"80 740 LINE"
);
}
);
width = 660;
}
);
unicode = 0035;
},
{
glyphname = six;
lastChange = "2025-06-14 10:15:17 +0000";
layers = (
{
layerId = "D8D2F0D2-8948-448B-99CD-378CDFD0E0AE";
paths = (
{
closed = 1;
nodes = (
"442 -10 OFFCURVE",
"558 72 OFFCURVE",
"558 236 CURVE SMOOTH",
"558 353 OFFCURVE",
"499 460 OFFCURVE",
"330 460 CURVE SMOOTH",
"238 460 OFFCURVE",
"166 429 OFFCURVE",
"89 372 CURVE",
"92 312 LINE",
"164 369 OFFCURVE",
"239 400 OFFCURVE",
"321 400 CURVE SMOOTH",
"447 400 OFFCURVE",
"496 326 OFFCURVE",
"496 235 CURVE SMOOTH",
"496 118 OFFCURVE",
"416 50 OFFCURVE",
"313 50 CURVE SMOOTH",
"178 50 OFFCURVE",
"104 167 OFFCURVE",
"106 367 CURVE SMOOTH",
"108 565 OFFCURVE",
"174 700 OFFCURVE",
"330 700 CURVE SMOOTH",
"430 700 OFFCURVE",
"459 640 OFFCURVE",
"495 640 CURVE SMOOTH",
"509 640 OFFCURVE",
"520 650 OFFCURVE",
"520 667 CURVE SMOOTH",
"520 709 OFFCURVE",
"449 760 OFFCURVE",
"337 760 CURVE SMOOTH",
"139 760 OFFCURVE",
"44 595 OFFCURVE",
"44 361 CURVE SMOOTH",
"44 131 OFFCURVE",
"136 -10 OFFCURVE",
"310 -10 CURVE SMOOTH"
);
}
);
width = 600;
},
{
layerId = "83B83716-1CD1-47ED-B715-8773FED73F88";
paths = (
{
closed = 1;
nodes = (
"484 -12 OFFCURVE",
"636 60 OFFCURVE",
"636 253 CURVE SMOOTH",
"636 401 OFFCURVE",
"547 485 OFFCURVE",
"409 485 CURVE SMOOTH",
"347 485 OFFCURVE",
"293 467 OFFCURVE",
"245 425 CURVE",
"262 273 LINE",
"286 292 OFFCURVE",
"310 299 OFFCURVE",
"333 299 CURVE SMOOTH",
"377 299 OFFCURVE",
"392 274 OFFCURVE",
"392 239 CURVE SMOOTH",
"392 198 OFFCURVE",
"370 170 OFFCURVE",
"334 170 CURVE SMOOTH",
"290 170 OFFCURVE",
"271 213 OFFCURVE",
"272 355 CURVE SMOOTH",
"273 502 OFFCURVE",
"292 550 OFFCURVE",
"351 550 CURVE SMOOTH",
"416 550 OFFCURVE",
"430 492 OFFCURVE",
"515 492 CURVE SMOOTH",
"569 492 OFFCURVE",
"617 516 OFFCURVE",
"617 582 CURVE SMOOTH",
"617 687 OFFCURVE",
"491 732 OFFCURVE",
"361 732 CURVE SMOOTH",
"110 732 OFFCURVE",
"28 567 OFFCURVE",
"28 349 CURVE SMOOTH",
"28 129 OFFCURVE",
"105 -12 OFFCURVE",
"325 -12 CURVE SMOOTH"
);
}
);
width = 660;
},
{
associatedMasterId = "D8D2F0D2-8948-448B-99CD-378CDFD0E0AE";
layerId = "D28698A3-FBA8-4D76-95A0-9273F026368D";
name = "Sep 11 21, 15:19";
paths = (
{
closed = 1;
nodes = (
"496 108 OFFCURVE",
"406 50 OFFCURVE",
"316 50 CURVE SMOOTH",
"188 50 OFFCURVE",
"106 167 OFFCURVE",
"108 387 CURVE SMOOTH",
"110 595 OFFCURVE",
"184 730 OFFCURVE",
"324 730 CURVE SMOOTH",
"407 730 OFFCURVE",
"471 682 OFFCURVE",
"497 591 CURVE",
"560 612 LINE",
"516 736 OFFCURVE",
"430 790 OFFCURVE",
"327 790 CURVE SMOOTH",
"149 790 OFFCURVE",
"44 625 OFFCURVE",
"44 375 CURVE SMOOTH",
"44 131 OFFCURVE",
"146 -10 OFFCURVE",
"313 -10 CURVE SMOOTH",
"432 -10 OFFCURVE",
"560 62 OFFCURVE",
"560 235 CURVE SMOOTH",
"560 373 OFFCURVE",
"479 468 OFFCURVE",
"326 468 CURVE SMOOTH",
"241 468 OFFCURVE",
"169 439 OFFCURVE",
"89 386 CURVE",
"92 322 LINE",
"167 379 OFFCURVE",
"243 406 OFFCURVE",
"317 406 CURVE SMOOTH",
"427 406 OFFCURVE",
"496 346 OFFCURVE",
"496 234 CURVE SMOOTH"
);
}
);
width = 600;
}
);
unicode = 0036;
},
{
glyphname = seven;
lastChange = "2025-06-14 10:14:43 +0000";
layers = (
{
layerId = "D8D2F0D2-8948-448B-99CD-378CDFD0E0AE";
paths = (
{
closed = 1;
nodes = (
"295 451 OFFCURVE",
"251 318 OFFCURVE",
"251 35 CURVE SMOOTH",
"251 10 OFFCURVE",
"264 -4 OFFCURVE",
"284 -4 CURVE SMOOTH",
"305 -4 OFFCURVE",
"317 11 OFFCURVE",
"317 36 CURVE SMOOTH",
"317 318 OFFCURVE",
"364 452 OFFCURVE",
"564 682 CURVE",
"495 682 LINE"
);
},
{
closed = 1;
nodes = (
"52 682 LINE",
"564 682 LINE",
"564 740 LINE",
"52 740 LINE"
);
}
);
width = 600;
},
{
layerId = "83B83716-1CD1-47ED-B715-8773FED73F88";
paths = (
{
closed = 1;
nodes = (
"197 390 OFFCURVE",
"167 241 OFFCURVE",
"167 125 CURVE SMOOTH",
"167 28 OFFCURVE",
"212 -12 OFFCURVE",
"288 -12 CURVE SMOOTH",
"364 -12 OFFCURVE",
"403 28 OFFCURVE",
"403 126 CURVE SMOOTH",
"403 245 OFFCURVE",
"425 361 OFFCURVE",
"598 530 CURVE",
"343 530 LINE"
);
},
{
closed = 1;
nodes = (
"26 530 LINE",
"598 530 LINE",
"598 720 LINE",
"26 720 LINE"
);
}
);
width = 660;
}
);
unicode = 0037;
},
{
glyphname = period;
lastChange = "2025-06-11 06:36:09 +0000";
layers = (
{
layerId = "D8D2F0D2-8948-448B-99CD-378CDFD0E0AE";
paths = (
{
closed = 1;
nodes = (
"156 -10 OFFCURVE",
"170 8 OFFCURVE",
"170 30 CURVE SMOOTH",
"170 52 OFFCURVE",
"156 70 OFFCURVE",
"130 70 CURVE SMOOTH",
"104 70 OFFCURVE",
"90 52 OFFCURVE",
"90 30 CURVE SMOOTH",
"90 8 OFFCURVE",
"104 -10 OFFCURVE",
"130 -10 CURVE SMOOTH"
);
}
);
width = 260;
},
{
layerId = "83B83716-1CD1-47ED-B715-8773FED73F88";
paths = (
{
closed = 1;
nodes = (
"211 -10 OFFCURVE",
"252 29 OFFCURVE",
"252 95 CURVE SMOOTH",
"252 162 OFFCURVE",
"211 200 OFFCURVE",
"142 200 CURVE SMOOTH",
"73 200 OFFCURVE",
"32 162 OFFCURVE",
"32 95 CURVE SMOOTH",
"32 29 OFFCURVE",
"73 -10 OFFCURVE",
"142 -10 CURVE SMOOTH"
);
}
);
width = 284;
}
);
rightMetricsKey = "=|";
unicode = 002E;
},
{
glyphname = comma;
lastChange = "2025-06-11 07:40:58 +0000";
layers = (
{
layerId = "D8D2F0D2-8948-448B-99CD-378CDFD0E0AE";
paths = (
{
closed = 1;
nodes = (
"149 -81 OFFCURVE",
"166 -23 OFFCURVE",
"166 18 CURVE SMOOTH",
"166 52 OFFCURVE",
"154 70 OFFCURVE",
"128 70 CURVE SMOOTH",
"102 70 OFFCURVE",
"90 52 OFFCURVE",
"90 22 CURVE SMOOTH",
"90 -17 OFFCURVE",
"110 -58 OFFCURVE",
"90 -140 CURVE",
"120 -140 LINE"
);
}
);
width = 256;
},
{
layerId = "83B83716-1CD1-47ED-B715-8773FED73F88";
paths = (
{
closed = 1;
nodes = (
"217 -66 OFFCURVE",
"248 14 OFFCURVE",
"248 85 CURVE SMOOTH",
"248 162 OFFCURVE",
"211 200 OFFCURVE",
"142 200 CURVE SMOOTH",
"73 200 OFFCURVE",
"32 162 OFFCURVE",
"32 79 CURVE SMOOTH",
"32 9 OFFCURVE",
"62 -43 OFFCURVE",
"32 -139 CURVE",
"146 -141 LINE"
);
}
);
width = 280;
}
);
leftMetricsKey = "=period";
rightMetricsKey = "=period";
unicode = 002C;
},
{
glyphname = exclam;
lastChange = "2025-06-11 14:47:12 +0000";
layers = (
{
components = (
{
name = period;
}
);
layerId = "D8D2F0D2-8948-448B-99CD-378CDFD0E0AE";
paths = (
{
closed = 1;
nodes = (
"121 200 OFFCURVE",
"139 200 OFFCURVE",
"158 200 CURVE",
"166 673 LINE SMOOTH",
"167 724 OFFCURVE",
"93 724 OFFCURVE",
"94 673 CURVE SMOOTH",
"102 200 LINE"
);
}
);
width = 260;
},
{
components = (
{
name = period;
}
);
layerId = "83B83716-1CD1-47ED-B715-8773FED73F88";
paths = (
{
closed = 1;
nodes = (
"112 248 OFFCURVE",
"184 248 OFFCURVE",
"246 220 CURVE",
"272 573 LINE SMOOTH",
"286 762 OFFCURVE",
"10 762 OFFCURVE",
"24 573 CURVE SMOOTH",
"50 220 LINE"
);
}
);
width = 286;
}
);
unicode = 0021;
},
{
glyphname = question;
lastChange = "2025-06-17 09:22:36 +0000";
layers = (
{
layerId = "D8D2F0D2-8948-448B-99CD-378CDFD0E0AE";
width = 600;
},
{
components = (
{
name = period;
transform = "{1, 0, 0, 1, 125, 0}";
}
);
layerId = "83B83716-1CD1-47ED-B715-8773FED73F88";
paths = (
{
closed = 1;
nodes = (
"369 363 OFFCURVE",
"576 310 OFFCURVE",
"576 509 CURVE SMOOTH",
"576 648 OFFCURVE",
"476 732 OFFCURVE",
"306 732 CURVE SMOOTH",
"200 732 OFFCURVE",
"20 699 OFFCURVE",
"20 575 CURVE SMOOTH",
"20 518 OFFCURVE",
"58 481 OFFCURVE",
"112 481 CURVE SMOOTH",
"185 481 OFFCURVE",
"219 552 OFFCURVE",
"291 552 CURVE SMOOTH",
"325 552 OFFCURVE",
"340 536 OFFCURVE",
"340 510 CURVE SMOOTH",
"340 419 OFFCURVE",
"147 430 OFFCURVE",
"170 220 CURVE",
"232 248 OFFCURVE",
"304 248 OFFCURVE",
"366 220 CURVE"
);
}
);
width = 596;
}
);
unicode = 003F;
},
{
glyphname = hyphen;
lastChange = "2025-06-17 09:25:28 +0000";
layers = (
{
layerId = "D8D2F0D2-8948-448B-99CD-378CDFD0E0AE";
paths = (
{
closed = 1;
nodes = (
"64 233 LINE",
"356 233 LINE",
"356 289 LINE",
"64 289 LINE"
);
}
);
width = 420;
},
{
layerId = "83B83716-1CD1-47ED-B715-8773FED73F88";
paths = (
{
closed = 1;
nodes = (
"34 159 LINE",
"362 159 LINE",
"362 361 LINE",
"34 361 LINE"
);
}
);
width = 396;
}
);
rightMetricsKey = "=|";
unicode = 002D;
},
{
glyphname = quotesingle;
lastChange = "2025-06-11 07:43:15 +0000";
layers = (
{
layerId = "D8D2F0D2-8948-448B-99CD-378CDFD0E0AE";
paths = (
{
closed = 1;
nodes = (
"147 500 LINE",
"162 611 OFFCURVE",
"170 683 OFFCURVE",
"170 700 CURVE SMOOTH",
"170 722 OFFCURVE",
"156 740 OFFCURVE",
"130 740 CURVE SMOOTH",
"104 740 OFFCURVE",
"90 722 OFFCURVE",
"90 700 CURVE SMOOTH",
"90 683 OFFCURVE",
"98 611 OFFCURVE",
"113 500 CURVE"
);
}
);
width = 260;
},
{
layerId = "83B83716-1CD1-47ED-B715-8773FED73F88";
paths = (
{
closed = 1;
nodes = (
"205 463 LINE",
"235 550 OFFCURVE",
"252 602 OFFCURVE",
"252 644 CURVE SMOOTH",
"252 711 OFFCURVE",
"211 749 OFFCURVE",
"142 749 CURVE SMOOTH",
"73 749 OFFCURVE",
"32 711 OFFCURVE",
"32 644 CURVE SMOOTH",
"32 602 OFFCURVE",
"49 550 OFFCURVE",
"79 463 CURVE"
);
}
);
width = 284;
}
);
leftMetricsKey = "=comma";
rightMetricsKey = "=comma";
unicode = 0027;
},
{
glyphname = dotaccentcomb;
lastChange = "2025-06-14 11:56:40 +0000";
layers = (
{
anchors = (
{
name = _top;
position = "{130, 500}";
},
{
name = top;
position = "{130, 740}";
}
);
layerId = "D8D2F0D2-8948-448B-99CD-378CDFD0E0AE";
paths = (
{
closed = 1;
nodes = (
"156 652 OFFCURVE",
"170 670 OFFCURVE",
"170 692 CURVE SMOOTH",
"170 714 OFFCURVE",
"156 732 OFFCURVE",
"130 732 CURVE SMOOTH",
"104 732 OFFCURVE",
"90 714 OFFCURVE",
"90 692 CURVE SMOOTH",
"90 670 OFFCURVE",
"104 652 OFFCURVE",
"130 652 CURVE SMOOTH"
);
}
);
width = 260;
},
{
anchors = (
{
name = _top;
position = "{142, 500}";
},
{
name = top;
position = "{142, 780}";
}
);
layerId = "83B83716-1CD1-47ED-B715-8773FED73F88";
paths = (
{
closed = 1;
nodes = (
"221 530 OFFCURVE",
"262 569 OFFCURVE",
"262 631 CURVE SMOOTH",
"262 694 OFFCURVE",
"221 732 OFFCURVE",
"142 732 CURVE SMOOTH",
"63 732 OFFCURVE",
"22 694 OFFCURVE",
"22 631 CURVE SMOOTH",
"22 569 OFFCURVE",
"63 530 OFFCURVE",
"142 530 CURVE SMOOTH"
);
}
);
width = 284;
}
);
unicode = 0307;
},
{
glyphname = gravecomb;
lastChange = "2025-06-13 14:15:34 +0000";
layers = (
{
anchors = (
{
name = _top;
position = "{180, 500}";
},
{
name = top;
position = "{150, 750}";
}
);
layerId = "D8D2F0D2-8948-448B-99CD-378CDFD0E0AE";
paths = (
{
closed = 1;
nodes = (
"210 570 LINE",
"155 695 LINE SMOOTH",
"142 724 OFFCURVE",
"129 750 OFFCURVE",
"101 750 CURVE SMOOTH",
"70 750 OFFCURVE",
"73 717 OFFCURVE",
"91 684 CURVE SMOOTH",
"152 570 LINE"
);
}
);
width = 294;
},
{
anchors = (
{
name = _top;
position = "{241, 500}";
},
{
name = top;
position = "{191, 750}";
}
);
layerId = "83B83716-1CD1-47ED-B715-8773FED73F88";
paths = (
{
closed = 1;
nodes = (
"324 540 LINE",
"264 665 LINE SMOOTH",
"244 707 OFFCURVE",
"214 732 OFFCURVE",
"156 732 CURVE SMOOTH",
"59 732 OFFCURVE",
"29 654 OFFCURVE",
"95 598 CURVE SMOOTH",
"164 540 LINE"
);
}
);
width = 384;
}
);
rightMetricsKey = "=|";
unicode = 0300;
},
{
glyphname = circumflexcomb;
lastChange = "2025-06-13 14:15:00 +0000";
layers = (
{
anchors = (
{
name = _top;
position = "{168, 500}";
},
{
name = top;
position = "{168, 750}";
}
);
layerId = "D8D2F0D2-8948-448B-99CD-378CDFD0E0AE";
paths = (
{
closed = 1;
nodes = (
"90 570 LINE",
"168 688 LINE",
"245 570 LINE",
"308 570 LINE",
"219 705 LINE SMOOTH",
"199 735 OFFCURVE",
"190 750 OFFCURVE",
"168 750 CURVE SMOOTH",
"146 750 OFFCURVE",
"133 736 OFFCURVE",
"114 706 CURVE SMOOTH",
"28 570 LINE"
);
}
);
width = 336;
},
{
anchors = (
{
name = _top;
position = "{224, 500}";
},
{
name = top;
position = "{224, 750}";
}
);
layerId = "83B83716-1CD1-47ED-B715-8773FED73F88";
paths = (
{
closed = 1;
nodes = (
"184 540 LINE",
"224 603 LINE",
"264 540 LINE",
"424 540 LINE",
"372 637 LINE SMOOTH",
"335 706 OFFCURVE",
"295 732 OFFCURVE",
"224 732 CURVE SMOOTH",
"153 732 OFFCURVE",
"113 706 OFFCURVE",
"76 637 CURVE SMOOTH",
"24 540 LINE"
);
}
);
width = 448;
}
);
rightMetricsKey = "=|";
unicode = 0302;
},
{
glyphname = tildecomb;
lastChange = "2025-06-16 10:55:40 +0000";
layers = (
{
anchors = (
{
name = _top;
position = "{230, 500}";
},
{
name = top;
position = "{230, 723}";
}
);
layerId = "D8D2F0D2-8948-448B-99CD-378CDFD0E0AE";
paths = (
{
closed = 1;
nodes = (
"121 759 OFFCURVE",
"61 684 OFFCURVE",
"70 576 CURVE",
"114 576 LINE",
"113 671 OFFCURVE",
"146 672 OFFCURVE",
"192 635 CURVE SMOOTH",
"242 595 LINE SMOOTH",
"340 517 OFFCURVE",
"400 592 OFFCURVE",
"391 700 CURVE",
"347 700 LINE",
"348 605 OFFCURVE",
"315 604 OFFCURVE",
"269 641 CURVE SMOOTH",
"219 681 LINE SMOOTH"
);
}
);
width = 460;
},
{
anchors = (
{
name = _top;
position = "{230, 500}";
},
{
name = top;
position = "{230, 723}";
}
);
layerId = "83B83716-1CD1-47ED-B715-8773FED73F88";
paths = (
{
closed = 1;
nodes = (
"103 758 OFFCURVE",
"3 712 OFFCURVE",
"25 554 CURVE",
"143 554 LINE",
"142 589 OFFCURVE",
"155 591 OFFCURVE",
"187 579 CURVE SMOOTH",
"246 557 LINE SMOOTH",
"357 516 OFFCURVE",
"457 562 OFFCURVE",
"435 720 CURVE",
"317 720 LINE",
"318 685 OFFCURVE",
"305 683 OFFCURVE",
"273 695 CURVE SMOOTH",
"214 717 LINE SMOOTH"
);
}
);
width = 460;
}
);
rightMetricsKey = "=|";
unicode = 0303;
},
{
glyphname = cedillacomb;
lastChange = "2025-06-13 22:22:00 +0000";
layers = (
{
anchors = (
{
name = _bottom;
position = "{119, 0}";
},
{
name = bottom;
position = "{119, -212}";
}
);
layerId = "D8D2F0D2-8948-448B-99CD-378CDFD0E0AE";
paths = (
{
closed = 1;
nodes = (
"157 -159 OFFCURVE",
"133 -172 OFFCURVE",
"95 -172 CURVE SMOOTH",
"72 -172 OFFCURVE",
"50 -167 OFFCURVE",
"30 -160 CURVE",
"30 -195 LINE",
"51 -206 OFFCURVE",
"77 -212 OFFCURVE",
"105 -212 CURVE SMOOTH",
"161 -212 OFFCURVE",
"207 -187 OFFCURVE",
"207 -133 CURVE SMOOTH",
"207 -84 OFFCURVE",
"168 -44 OFFCURVE",
"55 -62 CURVE",
"33 -103 LINE",
"135 -92 OFFCURVE",
"157 -112 OFFCURVE",
"157 -135 CURVE SMOOTH"
);
},
{
closed = 1;
nodes = (
"33 -103 LINE",
"77 -75 LINE",
"89 18 LINE",
"49 18 LINE"
);
}
);
width = 237;
},
{
anchors = (
{
name = _bottom;
position = "{119, 0}";
},
{
name = bottom;
position = "{119, -212}";
}
);
layerId = "83B83716-1CD1-47ED-B715-8773FED73F88";
paths = (
{
closed = 1;
nodes = (
"127 -130 OFFCURVE",
"111 -137 OFFCURVE",
"82 -137 CURVE SMOOTH",
"63 -137 OFFCURVE",
"45 -134 OFFCURVE",
"30 -130 CURVE",
"30 -200 LINE",
"59 -208 OFFCURVE",
"99 -212 OFFCURVE",
"132 -212 CURVE SMOOTH",
"223 -212 OFFCURVE",
"288 -183 OFFCURVE",
"288 -119 CURVE SMOOTH",
"288 -61 OFFCURVE",
"233 -14 OFFCURVE",
"75 -35 CURVE",
"32 -98 LINE",
"110 -92 OFFCURVE",
"127 -101 OFFCURVE",
"127 -116 CURVE SMOOTH"
);
},
{
closed = 1;
nodes = (
"32 -98 LINE",
"157 -75 LINE",
"169 18 LINE",
"49 18 LINE"
);
}
);
width = 318;
}
);
rightMetricsKey = "=|";
unicode = 0327;
},
{
export = 0;
glyphname = _panse;
lastChange = "2025-06-18 07:57:38 +0000";
layers = (
{
layerId = "D8D2F0D2-8948-448B-99CD-378CDFD0E0AE";
paths = (
{
closed = 1;
nodes = (
"160 315 LINE",
"160 406 OFFCURVE",
"239 454 OFFCURVE",
"316 454 CURVE SMOOTH",
"392 454 OFFCURVE",
"498 407 OFFCURVE",
"498 252 CURVE SMOOTH",
"498 107 OFFCURVE",
"402 44 OFFCURVE",
"319 44 CURVE SMOOTH",
"238 44 OFFCURVE",
"160 104 OFFCURVE",
"160 185 CURVE",
"148 112 LINE",
"174 27 OFFCURVE",
"251 -10 OFFCURVE",
"332 -10 CURVE SMOOTH",
"467 -10 OFFCURVE",
"562 92 OFFCURVE",
"562 252 CURVE SMOOTH",
"562 438 OFFCURVE",
"438 510 OFFCURVE",
"333 510 CURVE SMOOTH",
"255 510 OFFCURVE",
"174 472 OFFCURVE",
"136 374 CURVE"
);
}
